<svg xmlns="http://www.w3.org/2000/svg" width="260" height="52" viewBox="0 0 260 52">
  <g id="logo_-_EN" data-name="logo - EN" transform="translate(0)">
    <path id="Union_60_2_" d="M47.873,122.9a25.429,25.429,0,0,1-4.406-50.507,16.99,16.99,0,0,1,2.575-.265,20.656,20.656,0,0,0-5.795,1.623A24.3,24.3,0,0,0,31.165,80.4a23.774,23.774,0,0,0-3.152,25.817,24.487,24.487,0,0,0,7.049,8.44,24.89,24.89,0,0,0,34.363-4.3,23.356,23.356,0,0,0,4.643-10.029,1.575,1.575,0,0,0,.034-.4,2.453,2.453,0,0,1-.034.861,24.615,24.615,0,0,1-7.117,14.4,26.355,26.355,0,0,1-18.673,7.679,1.689,1.689,0,0,1-.407.033Zm4.575-5.031a18.3,18.3,0,0,0,8.879-3.972,23.485,23.485,0,0,0,6.879-10.1c.61-1.656,1.152-3.343,1.728-5.031a37.665,37.665,0,0,0,1.118-3.806c.237-.96.474-1.921.779-2.879a18.853,18.853,0,0,1-.407,10.26,22.8,22.8,0,0,1-4.812,8.407,21.651,21.651,0,0,1-12.844,7.017,5.382,5.382,0,0,1-1.051.1ZM39.5,115.285a65.788,65.788,0,0,0,19.384-12.511,41.047,41.047,0,0,0,6.3-7.743,30.161,30.161,0,0,0,2.677-5.56,22.353,22.353,0,0,0-5.117-7.116A17.481,17.481,0,0,0,60.242,80.4c-.779-.5-1.559-.927-2.3-1.457a27.37,27.37,0,0,0-1.22-4A23.208,23.208,0,0,1,66.206,80.9c.881.96,1.694,1.987,2.542,3.012a9.449,9.449,0,0,0-1.525-5.031,11.625,11.625,0,0,0-2.813-2.615,8.784,8.784,0,0,1,4.982,3.674,11.4,11.4,0,0,1,1.593,4.733,21.042,21.042,0,0,1-1.356,9.6,37.937,37.937,0,0,1-9.353,14.067,51.534,51.534,0,0,1-7.964,6.288,33.926,33.926,0,0,1-5.524,2.979,19.949,19.949,0,0,1-7.286-2.317ZM29.335,104.66c-.407-.894-.746-1.788-1.084-2.681a19.845,19.845,0,0,0,1.966-.729,55.807,55.807,0,0,0,10.675-5.726,32.691,32.691,0,0,0,7.727-7.911q1.627-2.484,3.05-5.064a16.4,16.4,0,0,0,1.66-5.2,22.942,22.942,0,0,0-12.674.662A21.4,21.4,0,0,0,26.861,94.135c.034-.5.1-.994.169-1.49A22.427,22.427,0,0,1,40.315,75.833,24.829,24.829,0,0,1,52.922,74.11a7.569,7.569,0,0,0-2.948-3.21h.034a6.688,6.688,0,0,1,4.711,3.84,8.89,8.89,0,0,1,.678,2.946,16.471,16.471,0,0,1-.847,6.421,29.229,29.229,0,0,1-5.524,9.566,39.075,39.075,0,0,1-8.371,7.546,58.118,58.118,0,0,1-5.016,2.946c-1.762.927-3.592,1.722-5.388,2.517-.271-.7-.644-1.357-.915-2.019Z" transform="translate(-22.231 -70.9)" fill="#29398c"/>
    <g id="Group_755" data-name="Group 755" transform="translate(57.433 11.599)">
      <path id="Path_4091" data-name="Path 4091" d="M4.644-34.074c.363-1.366.726-3.01,1.067-4.462H5.8c.363,1.452.726,3.1,1.089,4.462l.3,1.2H4.346ZM-.5-27.114H2.893l.811-3.2H7.825l.811,3.2h3.5L7.8-41.013H3.833Zm14.068,0H22.3V-29.89H16.9V-41.013H13.568Zm18.788-6.96c.363-1.366.726-3.01,1.067-4.462h.085c.363,1.452.726,3.1,1.089,4.462l.3,1.2H32.057Zm-5.145,6.96h3.395l.811-3.2h4.12l.811,3.2h3.5l-4.334-13.9H31.545Zm14.07,0h8.732V-29.89h-5.4V-41.013H41.28Zm14.347-6.96c.363-1.366.726-3.01,1.067-4.462h.085c.363,1.452.726,3.1,1.089,4.462l.3,1.2H55.329Zm-5.145,6.96h3.395l.811-3.2h4.121l.81,3.2h3.5l-4.333-13.9H54.816Zm14.07,0h8.732V-29.89h-5.4V-41.013H64.552Zm11.145,0h2.989v-4.825c0-1.366-.278-3.736-.448-5.1h.085l1.11,3.629,1.857,5.124h1.879l1.879-5.124L86.2-37.042h.085c-.17,1.366-.448,3.736-.448,5.1v4.825h3.01v-13.9h-3.63L83.1-34.971c-.278.811-.491,1.644-.747,2.519h-.085c-.256-.875-.491-1.708-.747-2.519l-2.2-6.042H75.7Zm16.354,0h3.331v-13.9H92.05Zm8.947,0h3.309v-4.911l4.185-8.988H105.03l-1.174,3.1c-.363,1.046-.769,2.007-1.152,3.1h-.085c-.384-1.089-.726-2.05-1.089-3.1l-1.174-3.1H96.812L101-32.025Zm11.892-6.96c.363-1.366.726-3.01,1.068-4.462h.085c.363,1.452.726,3.1,1.089,4.462l.3,1.2h-2.84Zm-5.146,6.96h3.395l.811-3.2h4.121l.811,3.2h3.5l-4.333-13.9h-3.969Zm21.713-6.96c.363-1.366.726-3.01,1.067-4.462h.085c.363,1.452.726,3.1,1.089,4.462l.3,1.2h-2.838Zm-5.145,6.96h3.395l.811-3.2h4.121l.811,3.2h3.5l-4.334-13.9h-3.971Zm14.07,0h8.732V-29.89h-5.4V-41.013H138.38Zm11.146,0h3.331v-5.722h4.589v5.722h3.309v-13.9h-3.309v5.295h-4.59v-5.295h-3.33Zm19.983.256c3.694,0,5.551-2.092,5.551-6.789v-7.366h-3.181v7.729c0,2.647-.833,3.565-2.37,3.565-1.516,0-2.3-.918-2.3-3.565v-7.729h-3.31v7.366c0,4.7,1.92,6.789,5.614,6.789Zm8.688-.256h3.331V-32h1.623l2.562,4.889h3.715l-3.1-5.508a4.14,4.14,0,0,0,2.391-4.014c0-3.352-2.477-4.377-5.422-4.377h-5.1Zm3.331-7.515v-3.758h1.516c1.58,0,2.434.427,2.434,1.751s-.854,2.007-2.434,2.007Zm13.045.555c.363-1.366.726-3.01,1.067-4.462h.085c.363,1.452.726,3.1,1.089,4.462l.3,1.2h-2.84Zm-5.145,6.96h3.395l.811-3.2h4.121l.811,3.2h3.5l-4.334-13.9h-3.971Z" transform="translate(0.5 41.013)" fill="#29398c"/>
      <path id="Path_4092" data-name="Path 4092" d="M3.6-21.07h.711v-2.48H6.427v-.6H4.311v-1.87H6.8v-.6H3.6Zm9.529.1c1.4,0,2.378-1.117,2.378-2.9,0-1.769-.982-2.852-2.378-2.852s-2.37,1.075-2.37,2.852.973,2.9,2.37,2.9Zm0-.626c-.99,0-1.633-.889-1.633-2.276s.643-2.226,1.633-2.226,1.642.846,1.642,2.226-.652,2.277-1.642,2.277Zm6.948.525h.711v-2.344h1l1.337,2.344h.8l-1.413-2.42a1.514,1.514,0,0,0,1.244-1.566c0-1.159-.812-1.566-1.946-1.566H20.077Zm.711-2.92v-2.056h.922c.863,0,1.337.262,1.337.99,0,.711-.474,1.066-1.337,1.066Zm12.559,2.92h.711v-5.552h-.711Zm5.6,0h.669v-2.92c0-.575-.051-1.176-.093-1.735h.034c.186.406.389.821.6,1.193l1.98,3.461H42.9v-5.552h-.669v2.894c0,.575.051,1.185.093,1.76h-.034c-.195-.406-.389-.821-.6-1.193l-1.98-3.461h-.762Zm8.844,0H48.5v-2.48h2.116v-.6H48.5v-1.87h2.488v-.6h-3.2Zm9.529.1c1.4,0,2.378-1.117,2.378-2.9,0-1.769-.982-2.852-2.378-2.852s-2.37,1.075-2.37,2.852.973,2.9,2.37,2.9Zm0-.626c-.99,0-1.633-.889-1.633-2.276s.643-2.226,1.633-2.226,1.642.846,1.642,2.226-.652,2.276-1.642,2.276Zm6.948.525h.711v-2.344h1l1.337,2.344h.8l-1.413-2.42a1.514,1.514,0,0,0,1.244-1.566c0-1.159-.812-1.566-1.946-1.566H64.27Zm.711-2.92v-2.056H65.9c.863,0,1.337.262,1.337.99,0,.711-.474,1.066-1.337,1.066Zm7.481,2.92h.652v-3.064c0-.491-.059-1.176-.1-1.659h.034l.44,1.295,1.032,2.869h.516L76.075-24.5l.432-1.295h.034c-.042.482-.1,1.168-.1,1.659v3.064h.669v-5.552h-.889l-1.049,2.97c-.135.389-.237.745-.364,1.159h-.034c-.118-.415-.237-.77-.372-1.159l-1.049-2.97h-.888Zm10.5-3.1c.195-.618.372-1.227.542-1.87h.034c.178.643.355,1.252.559,1.87l.262.838H82.7Zm-1.7,3.1h.719l.533-1.684h2.023l.525,1.684h.753l-1.87-5.552h-.812Zm9.4,0h.711v-4.951H93.06v-.6H88.99v.6h1.676Zm6.762,0h.711v-5.552h-.711Zm7.65.1c1.4,0,2.378-1.117,2.378-2.9,0-1.769-.982-2.852-2.378-2.852s-2.37,1.075-2.37,2.852S103.681-20.969,105.077-20.969Zm0-.626c-.99,0-1.633-.889-1.633-2.276s.643-2.226,1.633-2.226,1.642.846,1.642,2.226S106.068-21.595,105.077-21.595Zm6.948.525h.669v-2.92c0-.575-.051-1.176-.093-1.735h.034c.186.406.389.821.6,1.193l1.98,3.461h.762v-5.552h-.669v2.894c0,.575.051,1.185.093,1.76h-.034c-.195-.406-.389-.821-.6-1.193l-1.98-3.461h-.762Zm15.064,0h.711v-4.951h1.684v-.6h-4.071v.6h1.676Zm6.762,0h3.284v-.6h-2.573v-2.014h2.1v-.6h-2.1v-1.735h2.488v-.6h-3.2Zm9.935.1a2.147,2.147,0,0,0,1.7-.8L145.1-22.2a1.65,1.65,0,0,1-1.286.6c-1.049,0-1.709-.872-1.709-2.268,0-1.379.694-2.234,1.735-2.234a1.525,1.525,0,0,1,1.134.5l.389-.44a2.06,2.06,0,0,0-1.532-.686c-1.413,0-2.463,1.092-2.463,2.877,0,1.811,1.032,2.877,2.42,2.877Zm6.11-.1h.711v-2.606h2.573v2.606h.711v-5.552h-.711V-24.3h-2.573v-2.319H149.9Zm8.894,0h.669v-2.92c0-.575-.051-1.176-.093-1.735h.034c.186.406.389.821.6,1.193l1.98,3.461h.762v-5.552h-.669v2.894c0,.575.051,1.185.093,1.76h-.034c-.195-.406-.389-.821-.6-1.193l-1.98-3.461h-.762Zm10.892.1c1.4,0,2.378-1.117,2.378-2.9,0-1.769-.982-2.852-2.378-2.852s-2.37,1.075-2.37,2.852.973,2.9,2.37,2.9Zm0-.626c-.99,0-1.633-.889-1.633-2.276s.643-2.226,1.633-2.226,1.642.846,1.642,2.226-.652,2.276-1.642,2.276Zm6.948.525h3.131v-.6h-2.42v-4.951h-.711Zm9.318.1c1.4,0,2.378-1.117,2.378-2.9,0-1.769-.982-2.852-2.378-2.852s-2.37,1.075-2.37,2.852.973,2.9,2.37,2.9Zm0-.626c-.99,0-1.633-.889-1.633-2.276s.643-2.226,1.633-2.226,1.642.846,1.642,2.226-.652,2.276-1.642,2.276Zm9.131.626a2.4,2.4,0,0,0,1.718-.643v-2.336h-1.828v.584h1.176v1.447a1.519,1.519,0,0,1-1,.322c-1.185,0-1.836-.872-1.836-2.268,0-1.379.711-2.234,1.828-2.234a1.554,1.554,0,0,1,1.193.5l.389-.44a2.1,2.1,0,0,0-1.6-.686,2.575,2.575,0,0,0-2.547,2.877C192.574-22.035,193.615-20.969,195.079-20.969Zm7.312-.1h.711v-2.15l1.676-3.4h-.745l-.711,1.566c-.169.406-.364.8-.55,1.21h-.034c-.195-.415-.364-.8-.542-1.21l-.711-1.566h-.762l1.667,3.4Z" transform="translate(-2.211 49.645)" fill="#29398c"/>
    </g>
  </g>
</svg>
