<svg xmlns="http://www.w3.org/2000/svg" width="369.964" height="107.077" viewBox="0 0 369.964 107.077">
  <g id="Group_789" data-name="Group 789" transform="translate(4409.891 -5531.816)">
    <g id="Group_751" data-name="Group 751" transform="translate(-4293.773 5562.934)">
      <g id="_ffffffff" data-name="#ffffffff" transform="translate(0 0)">
        <path id="Path_17912" data-name="Path 17912" d="M7.208,650.99c1.663,0,3.329,0,4.992,0q3.592,9.353,7.2,18.7c-1.5.005-3.007,0-4.512,0-.4-1.059-.788-2.125-1.192-3.185q-3.994.01-7.989,0c-.408,1.058-.783,2.127-1.2,3.183-1.5-.007-3,.007-4.507-.007v-.348l.005.316c2.417-6.215,4.786-12.449,7.2-18.667m2.484,3.983q-1.458,4.034-2.922,8.068h5.842Q11.156,659,9.691,654.973Z" transform="translate(0 -650.983)" fill="#2a398c"/>
        <path id="Path_17913" data-name="Path 17913" d="M125.24,651q1.988,0,3.976,0,0,7.594,0,15.189,3.974,0,7.948,0c0,1.171,0,2.341,0,3.513q-5.962.008-11.926,0Q125.239,660.349,125.24,651Z" transform="translate(-104.281 -650.99)" fill="#2a398c"/>
        <path id="Path_17914" data-name="Path 17914" d="M200.76,669.692q3.6-9.351,7.206-18.7c1.667,0,3.334,0,5,0q3.582,9.359,7.2,18.7c-1.513-.017-3.026.02-4.537-.02-.375-1.061-.781-2.11-1.168-3.165q-4,.008-7.993,0c-.41,1.056-.787,2.125-1.192,3.185-1.5-.012-3.009,0-4.514-.007m9.688-14.714q-1.451,4.034-2.919,8.065c1.948,0,3.894,0,5.842,0C212.4,660.352,211.432,657.662,210.448,654.978Z" transform="translate(-167.162 -650.983)" fill="#2a398c"/>
        <path id="Path_17915" data-name="Path 17915" d="M326,651q1.988,0,3.976,0,0,7.594,0,15.186,3.976,0,7.949,0V669.7q-5.962,0-11.922,0Q325.995,660.348,326,651Z" transform="translate(-271.441 -650.99)" fill="#2a398c"/>
        <path id="Path_17916" data-name="Path 17916" d="M413.24,651c1.862,0,3.725-.005,5.589,0,1.493,3.9,3.016,7.783,4.517,11.678,1.536-3.886,3.029-7.789,4.552-11.68h5.593q0,9.351,0,18.7c-1.326,0-2.651,0-3.976,0,.005-4.512,0-9.025.005-13.537q-2.646,6.77-5.293,13.542c-.581,0-1.16,0-1.74,0-1.741-4.493-3.521-8.972-5.25-13.47-.047,4.49-.005,8.982-.022,13.472-1.324,0-2.649,0-3.973,0Q413.239,660.346,413.24,651Z" transform="translate(-344.083 -650.987)" fill="#2a398c"/>
        <path id="Path_17917" data-name="Path 17917" d="M556.5,651h3.975c0,6.232-.007,12.463,0,18.693-1.327.02-2.652,0-3.978.01Q556.495,660.35,556.5,651Z" transform="translate(-463.366 -650.992)" fill="#2a398c"/>
        <path id="Path_17918" data-name="Path 17918" d="M590.7,650.992h4.537q2.317,3.738,4.624,7.482c1.558-2.483,3.069-5,4.624-7.484q2.259,0,4.52,0c-2.34,3.585-4.647,7.191-6.982,10.779a.794.794,0,0,0-.187.6q0,3.662,0,7.325c-1.326,0-2.651,0-3.976,0-.021-2.561.049-5.133-.033-7.687C595.478,658.318,593.063,654.672,590.7,650.992Z" transform="translate(-491.845 -650.983)" fill="#2a398c"/>
        <path id="Path_17919" data-name="Path 17919" d="M694.614,651c1.67-.03,3.34-.005,5.012-.013,2.39,6.236,4.8,12.461,7.189,18.7-1.5.01-3.009.007-4.514,0-.4-1.057-.78-2.122-1.186-3.176-2.661,0-5.32.008-7.981-.007-.418,1.054-.795,2.125-1.193,3.186-1.508,0-3.014.007-4.522-.005q3.6-9.341,7.194-18.683m-.422,12.036c1.948,0,3.9,0,5.846,0q-1.466-4.039-2.925-8.078C696.152,657.656,695.168,660.347,694.193,663.04Z" transform="translate(-572.378 -650.982)" fill="#2a398c"/>
        <path id="Path_17920" data-name="Path 17920" d="M852.225,650.99c1.665,0,3.331,0,5,0q3.592,9.355,7.2,18.707c-1.5-.01-3.009,0-4.514,0-.41-1.057-.79-2.125-1.2-3.185q-3.994.01-7.988,0c-.408,1.054-.793,2.12-1.186,3.181H845.02q3.6-9.356,7.2-18.7m2.484,3.983q-1.456,4.034-2.922,8.068c1.948,0,3.9,0,5.844,0Q856.167,659.005,854.708,654.973Z" transform="translate(-703.603 -650.983)" fill="#2a398c"/>
        <path id="Path_17921" data-name="Path 17921" d="M970.24,651q1.988,0,3.976,0,0,7.594,0,15.189,3.974,0,7.948,0V669.7q-5.962,0-11.924,0Q970.239,660.349,970.24,651Z" transform="translate(-807.867 -650.99)" fill="#2a398c"/>
        <path id="Path_17922" data-name="Path 17922" d="M1057.495,651h3.975v7.322q4.413,0,8.826,0,.005-3.662,0-7.323,1.988,0,3.977,0,0,9.348,0,18.7-1.989,0-3.973,0-.005-3.934,0-7.867-4.415,0-8.828,0,0,3.931,0,7.862c-1.324.005-2.648,0-3.972.005Q1057.486,660.349,1057.495,651Z" transform="translate(-880.519 -650.99)" fill="#2a398c"/>
        <path id="Path_17923" data-name="Path 17923" d="M1179.958,651h4.016v11.214a4.374,4.374,0,0,0,1.65,3.55,5.31,5.31,0,0,0,3.889.673,3.692,3.692,0,0,0,2.724-1.98,6.133,6.133,0,0,0,.522-3.255q0-5.1,0-10.2,2.03-.005,4.061,0,0,4.27,0,8.542a39.359,39.359,0,0,1-.1,4,7.253,7.253,0,0,1-2.469,4.743,8.824,8.824,0,0,1-5.133,1.74,10.967,10.967,0,0,1-5.471-.991,6.771,6.771,0,0,1-3.374-4.291,10.556,10.556,0,0,1-.311-3.2Z" transform="translate(-982.481 -650.99)" fill="#2a398c"/>
        <path id="Path_17924" data-name="Path 17924" d="M1303,650.959h7.872a8.171,8.171,0,0,1,4.094.71,5.719,5.719,0,0,1,3.018,4.289,7.309,7.309,0,0,1-.34,3.305,5.459,5.459,0,0,1-3.724,3.292c1.421,2.363,2.825,4.738,4.233,7.111-1.533-.01-3.066,0-4.6,0q-1.84-3.326-3.677-6.654h-2.9v6.652c-1.326,0-2.65,0-3.974,0q0-9.353,0-18.7m3.975,3.514v5.062h3.9a3.378,3.378,0,0,0,2.181-.636,2.546,2.546,0,0,0,.455-3.377,2.826,2.826,0,0,0-2.311-1.051C1309.788,654.475,1308.38,654.472,1306.973,654.473Z" transform="translate(-1084.937 -650.951)" fill="#2a398c"/>
        <path id="Path_17925" data-name="Path 17925" d="M1398.87,669.7q3.584-9.358,7.2-18.7h5q3.595,9.353,7.2,18.7h-4.52c-.407-1.058-.785-2.127-1.195-3.183-2.666.01-5.331,0-7.993,0-.395,1.063-.786,2.125-1.184,3.185-1.5-.01-3.008-.005-4.51,0m9.681-14.7c-.966,2.683-1.947,5.362-2.91,8.048h5.839C1410.5,660.367,1409.551,657.674,1408.551,655Z" transform="translate(-1164.765 -650.992)" fill="#2a398c"/>
      </g>
      <path id="Path_26552" data-name="Path 26552" d="M7.876-20.2H4.584v2.29H7.609v1.7H4.584v3.624h-2.1v-9.33H7.876ZM14.9-12.42a4.343,4.343,0,0,1-3.266-1.3,4.683,4.683,0,0,1-1.262-3.4A5.019,5.019,0,0,1,11.654-20.7a4.438,4.438,0,0,1,3.4-1.366,4.235,4.235,0,0,1,3.23,1.308,4.822,4.822,0,0,1,1.233,3.448,4.938,4.938,0,0,1-1.278,3.546A4.388,4.388,0,0,1,14.9-12.42Zm.091-7.84a2.115,2.115,0,0,0-1.757.83,3.459,3.459,0,0,0-.651,2.2,3.4,3.4,0,0,0,.651,2.193,2.085,2.085,0,0,0,1.7.807,2.106,2.106,0,0,0,1.724-.784A3.358,3.358,0,0,0,17.3-17.2a3.639,3.639,0,0,0-.618-2.258A2.015,2.015,0,0,0,14.991-20.261Zm15.443,7.677H28.021l-1.451-2.4q-.163-.273-.312-.488a2.711,2.711,0,0,0-.3-.368,1.2,1.2,0,0,0-.319-.234.809.809,0,0,0-.361-.081h-.566v3.572h-2.1v-9.33h3.331q3.4,0,3.4,2.537a2.628,2.628,0,0,1-.15.9,2.5,2.5,0,0,1-.423.745,2.681,2.681,0,0,1-.66.573,3.406,3.406,0,0,1-.862.377v.026a1.337,1.337,0,0,1,.4.211,2.888,2.888,0,0,1,.377.342,4.765,4.765,0,0,1,.348.42q.166.224.3.439Zm-5.726-7.756v2.6h.911a1.51,1.51,0,0,0,1.087-.39,1.3,1.3,0,0,0,.416-.982q0-1.223-1.464-1.223Zm15.466,7.756h-2.1v-9.33h2.1Zm12.06,0H50.114l-3.845-5.862a8.473,8.473,0,0,1-.468-.774h-.026q.052.494.052,1.509v5.127H43.842v-9.33h2.264l3.7,5.68q.254.384.468.761H50.3a9.976,9.976,0,0,1-.052-1.282v-5.16h1.984ZM61.309-20.2H58.017v2.29h3.025v1.7H58.017v3.624h-2.1v-9.33h5.394Zm7.024,7.782a4.343,4.343,0,0,1-3.266-1.3,4.683,4.683,0,0,1-1.262-3.4A5.019,5.019,0,0,1,65.086-20.7a4.438,4.438,0,0,1,3.4-1.366,4.235,4.235,0,0,1,3.23,1.308,4.822,4.822,0,0,1,1.233,3.448,4.938,4.938,0,0,1-1.278,3.546A4.388,4.388,0,0,1,68.333-12.42Zm.091-7.84a2.115,2.115,0,0,0-1.757.83,3.459,3.459,0,0,0-.651,2.2,3.4,3.4,0,0,0,.651,2.193,2.085,2.085,0,0,0,1.7.807A2.106,2.106,0,0,0,70.1-15.02a3.358,3.358,0,0,0,.638-2.176,3.639,3.639,0,0,0-.618-2.258A2.015,2.015,0,0,0,68.424-20.261Zm15.443,7.677H81.454L80-14.984q-.163-.273-.312-.488a2.71,2.71,0,0,0-.3-.368,1.2,1.2,0,0,0-.319-.234.809.809,0,0,0-.361-.081h-.566v3.572h-2.1v-9.33h3.331q3.4,0,3.4,2.537a2.627,2.627,0,0,1-.15.9,2.5,2.5,0,0,1-.423.745,2.681,2.681,0,0,1-.66.573,3.406,3.406,0,0,1-.862.377v.026a1.337,1.337,0,0,1,.4.211,2.889,2.889,0,0,1,.377.342,4.767,4.767,0,0,1,.348.42q.166.224.3.439Zm-5.726-7.756v2.6h.911a1.51,1.51,0,0,0,1.087-.39,1.3,1.3,0,0,0,.416-.982q0-1.223-1.464-1.223Zm18.775,7.756H94.841v-5.582q0-.9.078-2h-.052a9.829,9.829,0,0,1-.293,1.236l-2.186,6.344H90.67l-2.225-6.279a12.218,12.218,0,0,1-.293-1.3h-.059q.085,1.379.085,2.42v5.16H86.285v-9.33h3.077l1.906,5.53a7.787,7.787,0,0,1,.332,1.334h.039a13.432,13.432,0,0,1,.371-1.347l1.906-5.517h3Zm11.871,0H106.5l-.664-2.076h-3.318l-.657,2.076H99.581l3.4-9.33h2.492Zm-3.435-3.689-1-3.136a4.086,4.086,0,0,1-.156-.839h-.052a3.559,3.559,0,0,1-.163.813l-1.015,3.162Zm11.767-3.93h-2.661v7.619H112.35V-20.2H109.7v-1.711h7.417Zm4.9,7.619h-2.1v-9.33h2.1Zm7.61.163a4.343,4.343,0,0,1-3.266-1.3,4.683,4.683,0,0,1-1.262-3.4,5.019,5.019,0,0,1,1.282-3.578,4.438,4.438,0,0,1,3.4-1.366,4.235,4.235,0,0,1,3.23,1.308,4.822,4.822,0,0,1,1.233,3.448,4.938,4.938,0,0,1-1.279,3.546A4.388,4.388,0,0,1,129.632-12.42Zm.091-7.84a2.115,2.115,0,0,0-1.757.83,3.459,3.459,0,0,0-.651,2.2,3.4,3.4,0,0,0,.651,2.193,2.085,2.085,0,0,0,1.7.807,2.106,2.106,0,0,0,1.724-.784,3.358,3.358,0,0,0,.638-2.176,3.639,3.639,0,0,0-.618-2.258A2.015,2.015,0,0,0,129.723-20.261Zm16.009,7.677h-2.121l-3.845-5.862a8.48,8.48,0,0,1-.468-.774h-.026q.052.494.052,1.509v5.127h-1.984v-9.33H139.6l3.7,5.68q.254.384.468.761h.026a9.979,9.979,0,0,1-.052-1.282v-5.16h1.984ZM161.186-20.2h-2.661v7.619h-2.108V-20.2h-2.648v-1.711h7.417Zm8.4,7.619h-5.6v-9.33h5.381V-20.2h-3.279v2.076h3.052v1.7h-3.052v2.134h3.494Zm9.731-.332a6.153,6.153,0,0,1-2.668.494,4.5,4.5,0,0,1-3.377-1.262,4.614,4.614,0,0,1-1.23-3.364,4.93,4.93,0,0,1,1.383-3.631,4.836,4.836,0,0,1,3.588-1.392,6.711,6.711,0,0,1,2.3.345V-19.7a4.081,4.081,0,0,0-2.134-.56,2.831,2.831,0,0,0-2.121.826,3.066,3.066,0,0,0-.807,2.238,3.007,3.007,0,0,0,.761,2.157,2.689,2.689,0,0,0,2.05.8,4.372,4.372,0,0,0,2.251-.6Zm11.247.332h-2.108v-3.8h-3.865v3.8h-2.1v-9.33h2.1v3.722h3.865v-3.722h2.108Zm12.073,0h-2.121l-3.845-5.862a8.48,8.48,0,0,1-.468-.774h-.026q.052.494.052,1.509v5.127H194.24v-9.33H196.5l3.7,5.68q.254.384.468.761h.026a9.975,9.975,0,0,1-.052-1.282v-5.16h1.984Zm7.623.163a4.343,4.343,0,0,1-3.266-1.3,4.683,4.683,0,0,1-1.262-3.4,5.019,5.019,0,0,1,1.282-3.578,4.437,4.437,0,0,1,3.4-1.366,4.235,4.235,0,0,1,3.23,1.308,4.822,4.822,0,0,1,1.233,3.448,4.938,4.938,0,0,1-1.279,3.546A4.388,4.388,0,0,1,210.256-12.42Zm.091-7.84a2.116,2.116,0,0,0-1.757.83,3.459,3.459,0,0,0-.651,2.2,3.4,3.4,0,0,0,.651,2.193,2.085,2.085,0,0,0,1.7.807,2.106,2.106,0,0,0,1.724-.784,3.358,3.358,0,0,0,.638-2.176,3.639,3.639,0,0,0-.618-2.258A2.015,2.015,0,0,0,210.347-20.261Zm13.173,7.677h-5.556v-9.33h2.1v7.625h3.455Zm6.412.163a4.343,4.343,0,0,1-3.266-1.3,4.683,4.683,0,0,1-1.262-3.4,5.019,5.019,0,0,1,1.282-3.578,4.438,4.438,0,0,1,3.4-1.366,4.235,4.235,0,0,1,3.23,1.308,4.822,4.822,0,0,1,1.233,3.448,4.938,4.938,0,0,1-1.278,3.546A4.388,4.388,0,0,1,229.932-12.42Zm.091-7.84a2.115,2.115,0,0,0-1.757.83,3.459,3.459,0,0,0-.651,2.2,3.4,3.4,0,0,0,.651,2.193,2.085,2.085,0,0,0,1.7.807,2.106,2.106,0,0,0,1.724-.784,3.358,3.358,0,0,0,.638-2.176,3.639,3.639,0,0,0-.618-2.258A2.015,2.015,0,0,0,230.023-20.261ZM245.3-13.208a6.715,6.715,0,0,1-3.4.787,4.912,4.912,0,0,1-3.549-1.246,4.533,4.533,0,0,1-1.3-3.432,4.791,4.791,0,0,1,1.418-3.585,5.168,5.168,0,0,1,3.774-1.386,7.665,7.665,0,0,1,2.616.41v1.971a5.2,5.2,0,0,0-2.642-.625,2.836,2.836,0,0,0-2.131.849,3.119,3.119,0,0,0-.823,2.267A3.128,3.128,0,0,0,240-14.971a2.6,2.6,0,0,0,1.994.787,2.776,2.776,0,0,0,1.2-.215V-16.22h-1.867V-17.9H245.3Zm10.394-8.706L252.653-15.9v3.318h-2.1v-3.279l-2.96-6.051h2.4l1.5,3.481q.039.1.215.761h.026a3.389,3.389,0,0,1,.2-.735l1.529-3.507Z" transform="translate(-1.845 58.273)" fill="#2a398c"/>
    </g>
    <g id="Group_752" data-name="Group 752" transform="translate(-4409.927 5531.856)">
      <path id="Path_26548" data-name="Path 26548" d="M38.846,0h.064a11.2,11.2,0,0,1,7.91,6.6,15.273,15.273,0,0,1,1.135,5.092,28.965,28.965,0,0,1-1.445,11.07,50.522,50.522,0,0,1-9.3,16.44,66.706,66.706,0,0,1-14.061,13c-2.736,1.8-5.514,3.544-8.4,5.089-2.971,1.571-6.025,2.977-9.093,4.344C5.2,60.452,4.605,59.336,4.122,58.17c-.661-1.517-1.25-3.063-1.8-4.622a34.718,34.718,0,0,0,3.328-1.255,90.547,90.547,0,0,0,17.942-9.869A55.286,55.286,0,0,0,36.549,28.806c1.844-2.829,3.513-5.766,5.125-8.73a28.6,28.6,0,0,0,2.8-8.95A37.835,37.835,0,0,0,23.161,12.26,36.01,36.01,0,0,0,8.2,22.749,37.515,37.515,0,0,0,0,39.977a20.651,20.651,0,0,1,.308-2.567A39.1,39.1,0,0,1,8.3,19.533,38.066,38.066,0,0,1,22.641,8.485,40.286,40.286,0,0,1,43.794,5.547,13.434,13.434,0,0,0,38.846,0Z" transform="translate(6.801 19.924) rotate(-16)" fill="#2a398c"/>
      <path id="Path_26549" data-name="Path 26549" d="M35.554.456A26.034,26.034,0,0,1,39.882.028a35.136,35.136,0,0,0-9.729,2.717A41.473,41.473,0,0,0,14.979,14.07a39.4,39.4,0,0,0-9.31,25.437A39.736,39.736,0,0,0,9.8,57.963a41.891,41.891,0,0,0,11.9,14.419,41.582,41.582,0,0,0,51.634-.906A40.261,40.261,0,0,0,87.134,48.228c.031-.228.05-.456.062-.686A5.732,5.732,0,0,1,87.166,49,41.725,41.725,0,0,1,75.3,73.428a43.111,43.111,0,0,1-12.225,8.7,44.251,44.251,0,0,1-53.3-12.007A43.546,43.546,0,0,1,1.222,52.83,43.078,43.078,0,0,1,35.554.456Z" transform="translate(0 23.978) rotate(-16)" fill="#2a398c"/>
      <path id="Path_26550" data-name="Path 26550" d="M28.918.025A39.7,39.7,0,0,1,44.882,10.243c1.5,1.643,2.852,3.418,4.251,5.15a16.488,16.488,0,0,0-2.57-8.624C45.386,4.9,43.529,3.642,41.828,2.3a15.081,15.081,0,0,1,8.366,6.287,19.316,19.316,0,0,1,2.659,8.123,36.761,36.761,0,0,1-2.286,16.483A65.54,65.54,0,0,1,34.9,57.293,82,82,0,0,1,21.5,68.06a60.77,60.77,0,0,1-9.245,5.076A33.486,33.486,0,0,1,.06,69.18c11.893-5.335,23.255-12.2,32.539-21.412a69.5,69.5,0,0,0,10.58-13.276,54.784,54.784,0,0,0,4.477-9.507,38.693,38.693,0,0,0-8.613-12.206A33.687,33.687,0,0,0,34.826,9.4c-1.289-.841-2.617-1.619-3.867-2.518A45.206,45.206,0,0,0,28.918.025Z" transform="translate(29.16 20.821) rotate(-16)" fill="#2a398c"/>
      <path id="Path_26551" data-name="Path 26551" d="M31.252,4.944c.391-1.658.8-3.315,1.3-4.944a32.709,32.709,0,0,1-.693,17.659A39.476,39.476,0,0,1,23.8,32.1,35.933,35.933,0,0,1,2.217,44.146,9.717,9.717,0,0,1,0,44.293a30.466,30.466,0,0,0,14.905-6.828C20.312,32.92,24.051,26.679,26.456,20.1c1.013-2.862,1.936-5.755,2.895-8.635A62.983,62.983,0,0,0,31.252,4.944Z" transform="translate(58.202 42.488) rotate(-16)" fill="#2a398c"/>
    </g>
  </g>
</svg>
