<svg id="EG_-_Egypt" data-name="EG - Egypt" xmlns="http://www.w3.org/2000/svg" width="24" height="18" viewBox="0 0 24 18">
  <path id="Path_33481" data-name="Path 33481" d="M0,0V18H24V0Z" fill="#f7fcff" fill-rule="evenodd"/>
  <g id="Group_17639" data-name="Group 17639">
    <path id="Path_33482" data-name="Path 33482" d="M0,0V6.059H24V0Z" fill="#bf2714" fill-rule="evenodd"/>
    <path id="Path_33483" data-name="Path 33483" d="M0,10v6.059H24V10Z" transform="translate(0 1.941)" fill="#272727" fill-rule="evenodd"/>
    <path id="Path_33484" data-name="Path 33484" d="M7.7,6.388l.757.035-.19,4.142-.757-.035Z" transform="translate(1.498 1.255)" fill="#c09302"/>
    <path id="Path_33485" data-name="Path 33485" d="M8.348,6.6l.756.043L8.914,10l-.756-.043Z" transform="translate(1.628 1.302)" fill="#c09302"/>
    <path id="Path_33486" data-name="Path 33486" d="M9,6.807l.755.062-.19,2.314-.755-.062Z" transform="translate(1.758 1.349)" fill="#c09302"/>
    <path id="Path_33487" data-name="Path 33487" d="M12.469,6.388l-.756.035.19,4.142.756-.035Z" transform="translate(2.337 1.255)" fill="#c09302"/>
    <path id="Path_33488" data-name="Path 33488" d="M11.817,6.6l-.756.043L11.251,10l.756-.043Z" transform="translate(2.207 1.302)" fill="#c09302"/>
    <path id="Path_33489" data-name="Path 33489" d="M11.164,6.807l-.755.062.19,2.314.755-.062Z" transform="translate(2.077 1.349)" fill="#c09302"/>
    <path id="Path_33490" data-name="Path 33490" d="M10.112,9.847l-.738-.169.312-1.364.738.169Z" transform="translate(1.87 1.654)" fill="#c09302"/>
    <path id="Path_33491" data-name="Path 33491" d="M10.5,9.847l.738-.169L10.93,8.314l-.738.169Z" transform="translate(2.033 1.654)" fill="#c09302"/>
    <path id="Path_33492" data-name="Path 33492" d="M10.427,9.8H9.67V8.464h.757Z" transform="translate(1.93 1.685)" fill="#c09302"/>
    <path id="Path_33493" data-name="Path 33493" d="M9.154,6.821l.757.019-.044,1.8L9.11,8.624Z" transform="translate(1.818 1.355)" fill="#c09302"/>
    <path id="Path_33494" data-name="Path 33494" d="M10.241,6.821,11,6.839l-.044,1.8L10.2,8.624Z" transform="translate(2.035 1.355)" fill="#c09302"/>
    <path id="Path_33495" data-name="Path 33495" d="M8.336,10.08l.2-.731a7.75,7.75,0,0,0,1.841.323,7.751,7.751,0,0,0,1.841-.323l.2.731a8.371,8.371,0,0,1-2.038.349A8.371,8.371,0,0,1,8.336,10.08Z" transform="translate(1.647 1.863)" fill="#c09302"/>
    <path id="Path_33496" data-name="Path 33496" d="M7.677,6.706a.654.654,0,0,1,.739-.8,2.58,2.58,0,0,1,.591.145l.141.049c.336.119.427.15.446.154-.074-.017.145-.413.195-.479.006.042-.019.036-.08.024l-.683-.137.486-.5a.886.886,0,0,1,.655-.261c.027,0,.052,0,.134-.006l.129-.007c.473-.015.811.118.811.6a4.537,4.537,0,0,0,.058.666c.012.071.036.138-.034.167a1.843,1.843,0,0,1,.426-.2l.031-.013c.748-.312.835-.341,1.076-.195a1.689,1.689,0,0,1,.485.535l-.634.415a1.321,1.321,0,0,0-.24-.3c.1.066-.226.173-.4.244l-.03.013c-.582.243-.659.273-.825.273-.453,0-.616-.464-.66-1.129-.14.46-.557,1.041-.9,1.041-.15,0-.078.024-.7-.2l-.13-.045a2.038,2.038,0,0,0-.412-.108.344.344,0,0,1,.03-.03Z" transform="translate(1.507 0.971)" fill="#c09302"/>
  </g>
</svg>
