<svg xmlns="http://www.w3.org/2000/svg" width="24" height="18" viewBox="0 0 24 18">
  <g id="SA_-_Saudi_Arabia" data-name="SA - Saudi Arabia" transform="translate(-0.276)">
    <rect id="Rectangle_2180" data-name="Rectangle 2180" width="24" height="18" transform="translate(0.276)" fill="#67bd23"/>
    <path id="Path_33497" data-name="Path 33497" d="M10.4,2.556a1.133,1.133,0,0,0-.182.473v.03c0,.116,0,.331.133.182s.295-.353.263-.5S10.5,2.4,10.4,2.556ZM9,2.906a.452.452,0,0,1,.329-.371c.07,0,0,.187-.128.267-.094.059-.02.088.069.122a.841.841,0,0,1,.094.041c.108.059-.035.211-.2.26S9,3.117,9,2.906Zm-.256.256a1.277,1.277,0,0,0-.106.986l.055.118h0c.134.29.243.526.486.492.259-.036.379-.5.418-.653L9.6,4.079c.031-.118.16-.316.194-.19a1.182,1.182,0,0,1,0,.3h0a1.062,1.062,0,0,0,0,.287c.034.11.193.6.55.483a.933.933,0,0,0,.4-.3c.086-.095.151-.167.225-.141a.55.55,0,0,1,.187.181c.106.135.228.288.385.259.2-.037.351-.257.444-.4h0c.024-.036.044-.066.061-.087.063-.077.093-.031.134.032a.621.621,0,0,0,.045.063.177.177,0,0,0,.3,0c.094-.14.233-.566.053-.5l-.012,0c-.18.069-.433.165-.522-.013s-.339-.745-.215-.745.33,0,.287-.2.384.451.461.588l.085.155a9.57,9.57,0,0,0,.575.979,8.876,8.876,0,0,1,.15,1.625,1.431,1.431,0,0,0-.22-.01,4.863,4.863,0,0,0-.706.058A1.181,1.181,0,0,1,12,6.531a1.664,1.664,0,0,0-.212-.046c-.163-.028-.271-.046-.019-.135.072-.025.154-.046.24-.068.34-.086.731-.185.7-.625-.039-.552-.112-.794-.526-.721a.657.657,0,0,0-.544.721c0,.267-.036.27-.147.281-.022,0-.046,0-.074.009l-.063.009h0a1.282,1.282,0,0,0-.949.5c-.271.392-.238-.185-.222-.466h0c0-.05.005-.091.005-.115a1.479,1.479,0,0,0-.181-.588L10,5.27c-.123-.281-.265-.605-.466-.3a.77.77,0,0,0,.125.836c.088.07.539,1.056.1,1.544s-1.074.968-1.243.814-.27-.25-.078-.374a1.535,1.535,0,0,1,.146-.075c.322-.154.953-.456.834-1.1a5.776,5.776,0,0,0-.189-.765c-.038-.121-.049-.156-.007-.156l.034,0c.081.005.166.011.073-.238-.107-.284-.26-.607-.542-.291a.453.453,0,0,0,0,.71c.169.2.457.549.127.863-.1.1-.193.193-.273.276h0c-.179.188-.293.306-.293.2,0-.159-.048-.371-.133-.185-.017.036-.033.077-.05.122a.812.812,0,0,1-.4.519,7.46,7.46,0,0,0-.954.613s-.434.386-.235.353a2.7,2.7,0,0,0,.854-.3,1.534,1.534,0,0,1,.479-.2s.4.744.808.624a5.658,5.658,0,0,0,1.33-1.125s.567.778,1.2.83.795-.158.617-.293a1.843,1.843,0,0,0-.188-.117c-.2-.113-.425-.244-.338-.381.119-.187.366-.248.787-.316.062-.01.124-.018.185-.027.352-.048.664-.09.752-.405a.7.7,0,0,1,.294-.347l.046-.034c0,.047,0,.085,0,.113a13.758,13.758,0,0,1-.05,1.378c-.039.109.2.039.269-.078l0-.008a.974.974,0,0,0,.166-.528c0-.039,0-.1,0-.164a6.265,6.265,0,0,0-.058-1.264c-.083-.2-.056-.386,0-.337.026.023.2.355.389.718.221.425.464.89.516.946s.086-.092.114-.248a1.006,1.006,0,0,1,.058-.238c.064-.119.115-.212.115,0,0,.02,0,.042,0,.067a1.087,1.087,0,0,1-.4,1.009c-.147.1-.273.185-.38.259a2.035,2.035,0,0,1-.46.279.15.15,0,0,0,.048.286h.044a1.235,1.235,0,0,0,1.232-.7c.365-.693.138-2.882.081-3.429-.007-.071-.012-.114-.012-.123a.821.821,0,0,0-.037-.149,1.016,1.016,0,0,1-.069-.533c.042-.1.068-.086.1-.071a.056.056,0,0,0,.082-.015.3.3,0,0,0,0-.45A1.353,1.353,0,0,1,15,2.978c-.076-.174-.135-.308-.24-.165A1.939,1.939,0,0,0,14.6,3.994c.078.314.423,2.813.211,2.6a2.5,2.5,0,0,1-.365-.614c-.087-.178-.179-.366-.283-.534-.254-.411-.75-1.242-.614-1.49a1.657,1.657,0,0,1,.1-.159.227.227,0,0,0,.037-.267.8.8,0,0,0-.172-.277,1.141,1.141,0,0,1-.163-.234c-.1-.211-.323-.345-.323-.146s-.111.406-.18.2-.437-.637-.616-.487c-.113.094-.088.149-.066.2a.087.087,0,0,1,.007.086c-.009.015-.017.033-.026.05h0c-.04.081-.082.165-.135.039-.011-.025-.021-.057-.032-.091-.057-.176-.136-.419-.384-.187-.3.278-.329.563-.164.726s.412.554.288.733-.355.312-.467.122a.933.933,0,0,1-.128-.673c.049-.271.125-1.1-.2-1s-.29.574-.213.789a1.248,1.248,0,0,1,.06.689l-.007.013c-.066.133-.237.479-.419.361a.766.766,0,0,1-.241-.795c.087-.325.03-.843-.236-.685a1.446,1.446,0,0,0-.565.923c0,.259-.105.571-.214.381l-.018-.031a.914.914,0,0,1-.176-.7C8.983,3.262,8.837,2.943,8.744,3.162Zm-5.11-.477c-.015.02,0,.033.022.062a.669.669,0,0,1,.128.212,1.311,1.311,0,0,1,.059.348c.011.14.019.231.073.118.1-.2.148-.641,0-.74S3.667,2.64,3.634,2.684Zm1.924.42c-.292,0-.253-.428-.253-.428s0-.041.129-.041c.088,0,.1.047.105.088a.1.1,0,0,0,.018.049c.016.017.017,0,.02-.025s.007-.072.04-.072c.06,0,.072.062.072.163s.083.02.083-.066.077-.1.145-.1S5.851,3.1,5.558,3.1Zm-1.6,4.7C3.926,7.4,4.021,7,4.2,7s.176.392.176.392a.966.966,0,0,0,.912.841C6.1,8.27,6.641,6.858,6.641,6.858a2.664,2.664,0,0,0,.033-.534c-.053-.112-.083,0-.144.226a4.976,4.976,0,0,1-.256.761A1.1,1.1,0,0,1,5.082,7.9H5.041C4.689,7.891,4.4,7.3,4.374,7a1.194,1.194,0,0,1,.071-.541s.28-.293.27.219.244.6.7.632.79-.661.862-.926-.361.147-.361.147c-.117.111-.373.007-.5-.268s.127-.6.336-.824A.33.33,0,0,1,6.2,5.4a.637.637,0,0,1,.432.263c.153.114-.013-.519-.013-.519a8.659,8.659,0,0,1-.234-1.119,2.423,2.423,0,0,1-.062-.316.616.616,0,0,0-.044.191s.2.88-.087,1.154c-.141.133-.213.2-.288.205s-.162-.065-.331-.205h0c-.33-.274-.347,0-.347.328V6.705c0,.2-.129.2-.244.2a.233.233,0,0,0-.148.025c.021-.215.043-.6.043-.6a5.21,5.21,0,0,0-.232-.911,2.967,2.967,0,0,1-.464-.638c-.058-.339-.181-.16-.181-.16,0,.238-.076.744-.462.595S3.363,3.68,3.363,3.68s.155.016.169.368a1.247,1.247,0,0,0,.2.615c.1.256.132-.563.132-.563,0-.335.413-.634.413-.634.229-.123.223.4.223.4a.91.91,0,0,1-.009.607c-.015.341.234.168.234.168.175-.009-.13-1-.13-1a1.111,1.111,0,0,1-.066-.659c.015-.187.246-.235.246-.235.159.016.16.719.16.719a1.506,1.506,0,0,0,.229.919c.107.082-.018-.248-.107-.341C5,3.99,5.019,3.855,5.038,3.7h0a2.41,2.41,0,0,0,.022-.282c0-.265.159-.14.334,0l0,0c.138.108.128.286.118.477h0c0,.052-.006.105-.006.158a.694.694,0,0,0,.327.571c.174.135.166-.075.16-.235,0-.028,0-.054,0-.076a1.322,1.322,0,0,0-.188-.475c-.027-.052-.054-.1-.079-.152a.3.3,0,0,1,.041-.372h0c.02-.031.043-.065.067-.105.126-.211.352.015.439.211l.015.032c-.012-.135-.015-.232-.015-.232-.053-.158.4-.507.4-.507.283-.064.334.857.334.857.1.328-.236.2-.236.2C6.608,3.749,6.95,5.1,6.95,5.1c.025.463.25.217.25.217.173-.068.185.376.185.376.116.177.337-.425.337-.425.155-.22.4.282.4.282.115.156.355-.289.355-.289.135-.087.1.049.056.221a1.352,1.352,0,0,0-.056.3c0,.236-.038.254-.29.369l-.01,0c-.261.119-.341-.08-.341-.08-.063-.075-.5.183-.5.183a.235.235,0,0,1-.266-.074C7,6.1,7,6.482,7,6.971H7c0,.083,0,.169,0,.256,0,.6-.913,1.355-1.758,1.5A1.058,1.058,0,0,1,3.962,7.8Zm.838-.78c.006.1.017.031.029-.094A.106.106,0,0,0,4.8,7.024ZM3.89,5.888c.371-.326.631-.263.631-.263a.293.293,0,0,1,.187.113c.106.113-.26.341-.5.412a3.728,3.728,0,0,0-.553.244h0c-.091.046-.181.091-.264.129C3.132,6.64,3.519,6.214,3.89,5.888ZM3.435,7.252a1.936,1.936,0,0,0-.3.972c.059.382.31.461.476.421s.243-.421.243-.421-.115-.262-.243-.12c0,0-.209.088-.17-.156A3.709,3.709,0,0,0,3.435,7.252ZM5.9,5.815s-.243.076-.121.189.308.127.308,0S5.9,5.815,5.9,5.815Zm4.869-.577s-.025.429.267.419.413-.443.345-.441-.145.016-.142.1-.077.169-.08.069-.018-.162-.078-.16c-.033,0-.036.043-.038.073s0,.042-.019.026A.1.1,0,0,1,11,5.277c-.009-.041-.02-.088-.108-.085C10.763,5.2,10.764,5.238,10.764,5.238Zm3.414-.615c-.292.01-.267-.419-.267-.419s0-.041.128-.045c.088,0,.1.043.108.085a.1.1,0,0,0,.02.049c.016.016.017,0,.019-.026s0-.072.038-.073c.06,0,.075.06.078.16s.083.017.08-.069.073-.1.142-.1S14.471,4.613,14.178,4.623ZM7.466,6.809c-.133-.071-.119-.123,0-.232s.264.05.409.232c.122.153.046.276-.024.389-.013.021-.026.042-.038.063-.072.131-.267.107-.194,0A.4.4,0,0,0,7.466,6.809Zm9.786-.623c-.119.109-.133.161,0,.232s.073.369,0,.477.131.225.2.095l.013-.023a.616.616,0,0,0,.1-.495C17.5,6.236,17.371,6.077,17.251,6.186Zm1.694-2.5c-.133-.071-.119-.123,0-.232s.25.05.31.285a.616.616,0,0,1-.1.495l-.013.023c-.072.131-.276.013-.2-.095S19.078,3.754,18.945,3.683ZM13.888,2.82c-.119.109-.133.161,0,.232a.747.747,0,0,1,.215.628c-.073.107.122.131.194,0a.645.645,0,0,0,0-.628C14.152,2.87,14.007,2.712,13.888,2.82ZM12.156,5.455c-.164.075-.259.118-.173.178s.291.074.291,0c0-.012,0-.027,0-.043C12.283,5.507,12.293,5.392,12.156,5.455Zm-1.59,1.474a1.58,1.58,0,0,0,.313-.031,3.974,3.974,0,0,0,.428.031c.189,0,.155.166-.069.273-.206.1-.219.161-.246.29l-.008.036c-.034.154-.059.261-.227.208s-.314-.437-.4-.641l-.012-.031c-.061-.153,0-.148.116-.139C10.495,6.926,10.529,6.929,10.566,6.929ZM8.482,3.153c.066,0,.146-.406,0-.463s-.57.014-.518.184a.643.643,0,0,0,.1.17c.085.119.173.242.064.37a6.32,6.32,0,0,1-.738.659l-.033.02c-.1.06-.3.175-.158.175.049,0,.109,0,.171.008h0a1.152,1.152,0,0,0,.361-.008,1,1,0,0,0,.259-.253,1.983,1.983,0,0,1,.3-.308c.193-.136.234-.407.193-.445a.318.318,0,0,0-.073-.036c-.089-.038-.219-.093-.177-.183.057-.124.1-.044.1,0S8.416,3.153,8.482,3.153Zm-.11,1.353-.152.055A.132.132,0,0,1,8.1,4.455.267.267,0,0,1,8.126,4.3c.023-.065.042-.117-.025-.117-.119,0-.208.2-.248.32s.146.267.248.331.23-.064.34-.179S8.372,4.506,8.372,4.506Zm7.066,3.618a1.08,1.08,0,0,1,.053-.933c.107-.219.1-.1.1.123,0,.064,0,.137,0,.213a.614.614,0,0,0,.19.487h0c.028.033.059.068.091.11.156.2.287,0,.287-.123a2.6,2.6,0,0,1,.476-.906c.2-.216.366-.086.366,0a.7.7,0,0,0,.419.432c.225.065.306-.518.306-.518V5.251c0-.51-.127-.608-.235-.691A.561.561,0,0,1,17.41,4.5c-.037-.04-.1-.1-.182-.177h0a3.986,3.986,0,0,1-.453-.472,1.466,1.466,0,0,1-.1-.743h0c0-.055,0-.11,0-.164,0-.345.476.153.589.345a.335.335,0,0,1,.027.3.66.66,0,0,0-.027.173c0,.189.144.144.144,0,0-.026,0-.067-.006-.117h0c-.016-.225-.044-.634.118-.7s.185.02.274.25c.026.067.056.146.1.238a.681.681,0,0,1,.045.528,1.214,1.214,0,0,0-.045.32,1.179,1.179,0,0,0,.348.7,1.34,1.34,0,0,1,.113.147,2.929,2.929,0,0,0-.248-1.22,1.056,1.056,0,0,1,.157-1.04c.172-.215.284.058.393.326.035.086.07.172.107.241a.452.452,0,0,1-.1.531c-.02.026-.038.05-.052.073-.039.061-.01.138.033.251a1.512,1.512,0,0,1,.118.574,2.367,2.367,0,0,0,.48,1.362,2.587,2.587,0,0,1,.391,1.234l.01.071c.064.455.069-.715,0-1.3a21.946,21.946,0,0,1-.2-3.2c.059-.351.125-.194.221.039h0a1.97,1.97,0,0,0,.183.369l.044.061c.168.234.181.252.079.41-.058.09-.109.077-.145.068s-.052-.013-.052.064c0,.048.027.27.064.583.09.752.243,2.031.243,2.694a1.4,1.4,0,0,1-.932,1.467c-.432.161-.667,0-.667-.161,0-.085-.061-.035-.141.03a.462.462,0,0,1-.233.13c-.157,0-.1-.185,0-.368.063-.111.049-.121.029-.135a.061.061,0,0,1-.029-.061c0-.106,0-.213.157-.213s.3,0,.145.213c-.092.13-.086.131-.024.138a.4.4,0,0,1,.175.058c.1.064.112.065.122.067s.018,0,.082.04c.143.082.486-.206.817-.515.236-.22.117-.271-.008-.324a.36.36,0,0,1-.131-.077,3.407,3.407,0,0,1-.207-.322h0a2.48,2.48,0,0,0-.277-.413c-.043-.032-.026.077-.005.217a.893.893,0,0,1,.005.445.785.785,0,0,1-.4.309,10.481,10.481,0,0,1,0-1.736s-.538-.747-.452-.466A5.916,5.916,0,0,1,17.776,8c-.244.284-.75-.08-.875-.284s-.275-.006-.331.2a1.468,1.468,0,0,1-.482.856c-.226.141-.395-.183-.528-.439A1.788,1.788,0,0,0,15.438,8.124ZM17.1,5.61a5.207,5.207,0,0,0-.589.446c-.084.107-.114.185,0,.245s.574-.16.744-.345.3-.363.234-.476S17.1,5.61,17.1,5.61Zm-.83-.77c-.2-.24.107-.341.107-.341a.593.593,0,0,1,.344.146c.1.081.088.005.073-.11a.607.607,0,0,1,.009-.3c.082-.185.359.031.431.261.05.161,0,.167-.089.176a.4.4,0,0,0-.119.027c-.09.039-.061.217-.031.4a1.745,1.745,0,0,1,.031.263C17.023,5.591,16.472,5.08,16.268,4.84Z" transform="translate(0.794 0.583)" fill="#fff" fill-rule="evenodd"/>
    <path id="Path_33498" data-name="Path 33498" d="M10.234,3.047h0Zm.182-.473-.077-.051h0Zm-.182.5h0Zm.133.182L10.3,3.2h0Zm.263-.5.09-.02h0Zm-1.411.06.049.079h0Zm.069.122-.034.086h0Zm.094.041L9.426,2.9h0ZM8.656,4.165l.083-.04h0Zm.106-.986-.085-.036Zm-.051,1.1-.084.039h0Zm0,0,.084-.039h0Zm.486.492-.013-.092Zm.418-.653L9.526,4.1h0ZM9.622,4.1l-.089-.024h0Zm.194-.19.089-.024h0Zm0,.3L9.724,4.2V4.21Zm0,0,.092.007V4.21Zm0,.287L9.9,4.47h0Zm.55.483.028.088Zm.4-.3.069.062h0Zm.225-.141-.03.087Zm.187.181.073-.057h0Zm.385.259.017.091Zm.444-.4.077.052h0Zm0,0-.077-.052h0Zm.061-.087L12,4.439h0Zm.134.032.078-.05h0Zm.045.063.071-.059Zm.3,0-.077-.052h0Zm.053-.5-.033-.086h0Zm-.012,0-.033-.086h0Zm-.522-.013-.083.041Zm.072-.947.091-.019h0Zm.461.588-.081.046h0Zm.085.155-.081.044h0Zm.575.979.056-.074h0Zm.15,1.625-.017.091.113.021,0-.115Zm-.926.047.013.092Zm-.474.013-.028.088ZM11.8,6.5l.016-.091Zm-.019-.135-.031-.087Zm.24-.068.023.09Zm.7-.625.092-.006h0Zm-1.218.281L11.5,5.864h0Zm-.074.009.015.091Zm-.063.009-.012-.092h0Zm0,0,.011.092h0Zm0,0-.011-.092h0Zm-.949.5.076.053ZM10.2,6.012l.092.005V6.012Zm0,0-.092-.005v.005Zm-.176-.7-.085.037h0Zm-.009-.021-.085.037h0Zm-.466-.3.078.05Zm.125.836L9.614,5.9h0Zm.1,1.544L9.7,7.309Zm-1.243.814-.062.068h0Zm-.078-.374L8.4,7.734h0Zm.146-.075.04.083h0Zm.834-1.1-.091.017ZM9.238,5.87l.088-.028Zm.027-.154-.006.092h0Zm.073-.238.087-.033ZM8.8,5.187l.069.062h0Zm0,.71.07-.06h0Zm.127.863-.064-.067Zm-.273.276.065.065v0Zm0,0L8.585,6.97v0Zm-.426.011L8.14,7.008h0Zm-.05.122-.086-.033h0Zm-.4.519.036.085ZM6.822,8.3l-.055-.075-.006.005Zm-.235.353-.015-.091h0Zm.854-.3-.06-.07h0Zm.479-.2L8,8.107l-.034-.064L7.9,8.06Zm.808.624.026.089h0Zm1.33-1.125.075-.054L10.066,7.5l-.076.084Zm1.2.83.007-.092Zm.617-.293.056-.073Zm-.188-.117.046-.08Zm-.338-.381-.078-.05h0Zm.787-.316-.015-.091Zm.185-.027.013.092h0Zm.752-.405-.089-.025h0Zm.294-.347.054.075h0Zm.046-.034.092,0,0-.184-.145.114Zm-.048,1.491.087.031Zm.269-.078-.08-.047h0Zm0-.008-.08-.047h0Zm.168-.693h0Zm-.058-1.264-.085.036h0Zm0-.337-.061.07h0Zm.389.718-.082.043Zm.516.946-.067.063h0Zm.114-.248.091.016h0Zm.058-.238.082.044h0Zm.116.067-.092,0h0Zm-.4,1.009L14.594,8Zm-.38.259.053.076h0Zm-.46.279.022.09Zm.092.287,0,.092Zm1.232-.7.082.043Zm.081-3.429-.092.01Zm-.049-.272-.089.026h0Zm-.069-.533.085.036h0Zm.1-.071-.043.082h0Zm.082-.015.069.062h0Zm0-.45.073-.057h0ZM15.016,3l-.085.037h0Zm-.24-.165.075.054h0Zm-.159,1.181.09-.022h0Zm.211,2.6.065-.066h0ZM14.464,6l-.083.041h0Zm-.283-.534-.079.049h0Zm-.614-1.49-.081-.045h0Zm.1-.159.076.053h0Zm.037-.267-.088.028h0Zm-.172-.277-.071.059h0Zm-.163-.234L13.452,3h0ZM12.251,2.61l.059.071h0Zm-.066.2-.084.038h0Zm.007.086.08.046h0Zm-.026.05L12.084,2.9l0,0Zm0,0,.083.041,0,0Zm-.135.039.085-.036h0ZM12,2.892l.088-.029h0Zm-.384-.187-.063-.067h0Zm-.164.726.065-.066h0Zm.288.733-.076-.053h0Zm-.467.122.08-.047h0ZM10.945,2.61l-.026-.089Zm-.153,1.478-.083-.041h0Zm-.007.013L10.7,4.061h0Zm-.419.361.05-.078h0Zm-.478-1.48.047.08h0Zm-.779,1.3.08-.046h0Zm-.018-.031.08-.046h0Zm-.176-.7-.088-.028ZM3.673,2.764l-.07.061h0ZM3.651,2.7l-.074-.055h0Zm.15.273.086-.034Zm.059.348-.092.007Zm.073.118L3.85,3.4h0Zm1.39-.748.092.009V2.693Zm.234.048.091-.017h0Zm.018.049.067-.064h0Zm.02-.025L5.5,2.756h0ZM3.98,7.822l-.092.008Zm.411-.412H4.3v.011Zm2.268-.535.088.034,0-.016Zm.033-.534.092,0V6.319L6.776,6.3Zm-.144.226-.089-.024h0Zm-.256.761.084.038ZM5.1,7.916l0-.092h0Zm-.041,0,0-.092h0Zm-.668-.9L4.3,7.028Zm.071-.541L4.4,6.414l-.012.012-.007.015Zm.27.219-.092,0ZM6.292,6.4,6.2,6.379Zm-.361.147.063.067H6Zm-.5-.268.084-.039h0Zm.336-.824L5.7,5.395Zm.446-.041-.057.073.018.014.023,0Zm.432.263-.08.047.009.016.015.011Zm-.013-.519.09-.024,0-.01ZM6.4,4.042l.092-.014,0-.011Zm-.062-.316.092-.013-.037-.27-.135.237Zm-.044.191L6.2,3.91v.014l0,.014ZM6.205,5.071,6.142,5Zm-.288.205,0-.092h0Zm-.331-.205-.061.069,0,0Zm0,0L5.647,5h0Zm0,0L5.646,5h0Zm0,0L5.645,5l0,0Zm0,0-.06.07,0,0Zm0,0L5.646,5h0ZM4.994,6.923,5,6.83H5Zm-.1-.577L4.8,6.34h0Zm-.232-.911.088-.029-.008-.024-.02-.017ZM4.193,4.8,4.1,4.812l0,.015.008.014Zm-.181-.16-.076-.052-.016.024v.029Zm-.462.595-.033.086ZM3.381,3.7l.009-.092L3.3,3.6l-.014.087Zm.169.368-.092,0Zm.2.615.086-.033,0-.011-.007-.01Zm.132-.563.092,0v0ZM4.3,3.483,4.253,3.4l-.01.007Zm.223.4H4.428V3.9l0,.014Zm-.009.607-.084-.038-.007.016v.018Zm.234.168,0-.092H4.715l-.022.015Zm-.13-1L4.7,3.635l0-.009ZM4.549,3l.091.024V3.012ZM4.8,2.769,4.8,2.677H4.79l-.014,0Zm.16.719h0Zm.122.578L5.144,4h0Zm-.022-.353.092.011h0Zm0,0L4.963,3.7h0Zm.356-.285L5.354,3.5h0Zm0,0L5.358,3.5h0Zm.118.477.092.006h0Zm0,0L5.44,3.9h0Zm.321.729L5.8,4.71h0Zm.16-.235.092,0h0Zm-.19-.552.082-.043h0ZM5.745,3.7l-.083.041h0Zm.041-.372-.077-.052h0Zm0,0L5.71,3.273h0Zm0,0,.076.053h0Zm0,0,.077.052h0Zm.067-.105-.079-.047h0Zm.439.211-.084.038h0Zm.015.032L6.223,3.5,6.4,3.456Zm-.015-.232.092,0V3.214l0-.013Zm.4-.507-.02-.09-.02,0-.016.012Zm.334.857-.092.005V3.6l0,.011Zm-.236.2.033-.086-.012,0H6.8Zm.177,1.337.092,0V5.1l0-.009Zm.25.217L7.184,5.25l-.02.008-.014.016Zm.185.376-.092,0V5.74l.014.022Zm.337-.425-.076-.053-.007.01,0,.011Zm.4.282-.085.041.01.014Zm.355-.289L8.442,5.2l-.02.013-.011.021Zm.056.221.09.023h0ZM8.2,6.174,8.163,6.09h0Zm-.01,0-.039-.084h0ZM7.85,6.1l.086-.035-.005-.013-.009-.011Zm-.5.183.033.088L7.4,6.362Zm-.266-.074.074-.055h0Zm-.067.781h0Zm0,0h0ZM5.261,8.747l-.016-.091ZM4.817,7.042l.092-.006Zm-.279-1.4-.022.09.011,0h.011Zm-.631.263.061.069Zm.818-.151-.067.063Zm-.5.412.026.089Zm-.553.244-.042-.083h0Zm0,0,.042.083h0Zm-.264.129.039.084h0Zm-.256,1.7-.091.014Zm.3-.972.092-.009-.026-.276-.145.236Zm.174,1.393.021.09h0Zm.243-.421.091.018.006-.029L3.953,8.2Zm-.243-.12.036.085L3.681,8.2l.014-.015Zm-.17-.156-.091-.015ZM5.791,6.022l.063-.068h0Zm.121-.189.029-.088-.028-.01-.029.009Zm5.136-.158,0-.092Zm-.267-.419.093.005V5.252Zm.613-.021,0-.092h0Zm-.142.1.092,0h0Zm-.08.069-.092,0h0Zm-.078-.16,0-.092Zm-.038.073.092.006h0Zm-.019.026.065-.066h0Zm-.02-.049.09-.021h0Zm-.108-.085,0,.092Zm3.019-.989.093.005V4.218Zm.267.419,0,.092Zm-.14-.465,0,.092Zm.108.085.09-.021Zm.02.049.065-.066h0Zm.019-.026-.092-.006h0Zm.038-.073,0-.092Zm.078.16-.092,0h0ZM14.4,4.3l.092,0ZM7.483,6.595l-.062-.068h0Zm0,.232-.043.082h0Zm.409,0,.072-.058Zm-.024.389.079.049h0Zm-.038.063-.081-.045h0Zm-.194,0,.076.052h0ZM17.269,6.2l.062.068h0Zm0,.708.076.052h0Zm.2.095-.081-.045h0Zm.013-.023L17.4,6.939h0Zm.1-.495.09-.023Zm1.383-3.02.062.068h0Zm0,.232.043-.082Zm.31.054.09-.023h0Zm-.1.495L19.1,4.2h0Zm-.013.023-.081-.045h0Zm-.2-.095.076.052h0ZM13.905,3.069l-.044.082h0Zm0-.232-.062-.068h0Zm.215.86.076.052h0Zm.194,0-.081-.045h0Zm0-.628-.072.058h0Zm-2.141,2.4.038.084Zm.121.134L12.2,5.6h0ZM10.9,6.915l.012-.092-.016,0-.016,0Zm.359.3-.04-.084Zm-.246.29.09.019h0ZM11,7.545l.09.02h0Zm-.227.208-.028.088Zm-.4-.641.086-.034h0Zm-.012-.031.086-.034h0Zm.116-.139.007-.092ZM8.5,2.707l-.034.086Zm-.518.184-.089.027h0Zm.1.17.075-.054h0Zm.064.37-.071-.06h0Zm-.738.659.048.079h0Zm-.033.02.047.08h0Zm.013.184L7.4,4.2H7.392Zm0,0-.011.092H7.38Zm.361-.008.03.088Zm.259-.253-.07-.06h0Zm.3-.308L8.36,3.8ZM8.5,3.28l-.063.068h0Zm-.073-.036-.036.085h0Zm-.177-.183-.084-.039h0ZM8.237,4.579v.092h.016l.015-.006Zm.152-.055.018-.091-.025-.005-.024.009Zm-.271-.051L8.03,4.5h0Zm.025-.152.087.031h0Zm-.273.2.088.029h0Zm.248.331-.049.078h0Zm.34-.179.067.064h0Zm7.049,2.533.083.041Zm-.053.933.074-.055Zm.148-.81.092,0h0Zm.185.7.072-.058,0,0Zm0,0-.072.058,0,0Zm.091.11.073-.056h0Zm.763-1.029-.068-.063h0Zm.785.432.026-.089h0Zm.306-.518.092.013V7.027ZM17.5,4.577l.056-.073h0Zm-.071-.061.068-.063h0Zm-.182-.177-.064.067h0Zm0,0,.064-.067h0Zm-.453-.472.076-.052Zm-.1-.743h0Zm0,0h0Zm.59.18.08-.047h0Zm.027.3.09.023h0Zm.11.056-.092,0v0Zm0,0,.092,0v0Zm.118-.7L17.5,2.875h0Zm.274.25-.086.033h0Zm.1.238-.085.037h0Zm.045.528-.09-.022h0Zm.3,1.017.071-.059h0Zm.113.147-.08.047h0Zm-.248-1.22-.076.053Zm.157-1.04.072.058Zm.393.326.086-.035h0Zm.107.241-.082.043h0Zm-.1.531-.074-.056h0Zm-.052.073L18.551,4h0Zm.033.251.086-.033h0Zm.6,1.936-.075.055Zm.391,1.234-.092.013h0Zm.01.071-.092.013h0Zm-.2-4.5.091.015h0Zm.221.039-.086.035,0,0Zm0,0,.085-.035,0,0Zm.183.369-.075.054h0Zm.044.061-.075.054h0Zm.079.41-.078-.05h0Zm-.145.068-.023.09h0Zm.012.646-.092.011ZM19.164,8.8l-.032-.087Zm-.808-.13L18.3,8.594Zm-.233-.237-.081-.046Zm.029-.135-.052.076Zm.272-.061-.075-.054h0ZM18.4,8.37l.011-.092Zm.175.058.049-.079Zm.122.067-.014.091h0Zm.082.04-.046.08h0Zm.817-.515.063.068ZM19.589,7.7l.036-.085h0Zm-.131-.077-.07.06h0ZM19.251,7.3l-.081.044,0,0Zm0,0,.081-.044v0Zm0,0,.08-.046v0Zm-.277-.413-.056.074h0Zm-.005.217.091-.014h0Zm.005.445L18.9,7.492h0Zm-.4-1.428.092.005,0-.033-.019-.027Zm-.452-.466-.089.027h0Zm-.329,2.368-.07-.06Zm-.875-.284L17,7.687Zm-.331.2.089.024h0Zm-.482.856-.049-.078Zm-.528-.439L15.5,8.4h0Zm.948-2.283.073.057Zm.589-.446.052.077,0,0Zm-.589.69-.043.082Zm.744-.345.068.063h0ZM17.5,5.5l.081-.046h0Zm-1.112-.981V4.424h-.015l-.014,0Zm-.107.341-.071.06h0Zm.451-.195.059-.071Zm.073-.11.092-.012h0Zm.009-.3-.085-.037h0Zm.431.261.088-.028h0Zm-.089.176.01.092h0Zm-.119.027L17,4.634h0Zm-.031.4L17.1,5.1h0Zm-6.682-2.07a.627.627,0,0,1,.047-.185,1.278,1.278,0,0,1,.119-.238l-.155-.1A1.462,1.462,0,0,0,10.2,2.8a.784.784,0,0,0-.059.251Zm0,.031v-.03l-.185,0v.03ZM10.3,3.2a.145.145,0,0,1-.026.024.048.048,0,0,1,.02,0,.059.059,0,0,1,.04.019c.005.006,0,.009,0,0a.291.291,0,0,1-.009-.068c0-.031,0-.063,0-.093l-.185,0c0,.029,0,.067,0,.1a.46.46,0,0,0,.018.116.141.141,0,0,0,.122.106.15.15,0,0,0,.088-.025.319.319,0,0,0,.064-.055Zm.241-.419a.27.27,0,0,1-.053.178,1.509,1.509,0,0,1-.188.24l.136.125a1.685,1.685,0,0,0,.211-.272.444.444,0,0,0,.074-.311Zm-.046-.154c.02-.031.022-.016,0-.015s-.029-.014-.017,0a.272.272,0,0,1,.035.068.711.711,0,0,1,.029.1l.181-.039a.639.639,0,0,0-.1-.243.167.167,0,0,0-.139-.071.191.191,0,0,0-.143.1ZM9.347,2.46a.2.2,0,0,0-.065.012.423.423,0,0,0-.06.027.662.662,0,0,0-.128.091.464.464,0,0,0-.168.333h.185a.283.283,0,0,1,.108-.2.477.477,0,0,1,.091-.065.238.238,0,0,1,.033-.015c.01,0,.01,0,0,0ZM9.268,2.9a.473.473,0,0,0,.174-.2.257.257,0,0,0,.025-.116.129.129,0,0,0-.03-.076.117.117,0,0,0-.09-.04v.185a.068.068,0,0,1-.05-.024.057.057,0,0,1-.015-.032.152.152,0,0,1-.01.03.289.289,0,0,1-.1.122Zm.053-.043-.056-.023-.015-.008s0,0,0,0a.059.059,0,0,1,.014.026.068.068,0,0,1,0,.043.041.041,0,0,1-.008.012L9.268,2.9l-.1-.157a.189.189,0,0,0-.078.081.117.117,0,0,0-.006.075.126.126,0,0,0,.031.056A.231.231,0,0,0,9.187,3c.021.01.046.02.067.028Zm.1.046a.927.927,0,0,0-.1-.046l-.067.172a.762.762,0,0,1,.084.036Zm-.217.43a.532.532,0,0,0,.246-.156.222.222,0,0,0,.056-.131A.155.155,0,0,0,9.426,2.9l-.088.163a.036.036,0,0,1-.011-.026c0-.006,0,0-.014.019a.349.349,0,0,1-.157.1Zm-.283-.407c0,.052,0,.1,0,.151a.518.518,0,0,0,.023.136.192.192,0,0,0,.1.116.221.221,0,0,0,.162,0l-.053-.177c-.03.009-.035,0-.028.006s0,.008,0-.009a.345.345,0,0,1-.013-.086c0-.04,0-.087,0-.14Zm-.186,1.2a.766.766,0,0,1-.035-.48,2.244,2.244,0,0,1,.143-.43l-.17-.072a2.421,2.421,0,0,0-.154.466.948.948,0,0,0,.05.6Zm.056.119-.056-.119-.167.08.055.117Zm0,0h0l-.167.08h0Zm.39.441a.184.184,0,0,1-.108-.014.273.273,0,0,1-.092-.078,1.724,1.724,0,0,1-.19-.348l-.168.078a1.874,1.874,0,0,0,.214.387A.456.456,0,0,0,9,4.837a.369.369,0,0,0,.212.03ZM9.526,4.1a1.96,1.96,0,0,1-.121.354.649.649,0,0,1-.106.163.2.2,0,0,1-.115.067l.025.183a.381.381,0,0,0,.224-.123.83.83,0,0,0,.139-.21A2.137,2.137,0,0,0,9.7,4.145Zm.007-.026L9.526,4.1l.179.047.007-.026Zm.373-.191a.159.159,0,0,0-.043-.076.119.119,0,0,0-.1-.031.155.155,0,0,0-.07.032.289.289,0,0,0-.045.044.646.646,0,0,0-.114.222l.179.048a.464.464,0,0,1,.078-.151A.111.111,0,0,1,9.8,3.953s0,0-.014,0a.066.066,0,0,1-.054-.017c-.011-.01-.011-.018-.009-.011Zm0,.335c0-.059.009-.122.01-.178a.591.591,0,0,0-.013-.157l-.179.048a.433.433,0,0,1,.006.1c0,.05-.005.108-.009.168Zm0-.007h0Zm0,.26A.361.361,0,0,1,9.9,4.379c0-.047,0-.1.009-.163L9.724,4.2c0,.058-.009.119-.01.172a.505.505,0,0,0,.014.149Zm.433.422a.212.212,0,0,1-.163-.007.361.361,0,0,1-.129-.117,1.06,1.06,0,0,1-.14-.3l-.177.055a1.241,1.241,0,0,0,.168.353.543.543,0,0,0,.2.174.4.4,0,0,0,.3.016Zm.363-.273a.845.845,0,0,1-.363.273l.056.176a1.022,1.022,0,0,0,.444-.326Zm.323-.166a.2.2,0,0,0-.193.038.962.962,0,0,0-.131.128l.137.124a.819.819,0,0,1,.1-.1.073.073,0,0,1,.022-.012h0Zm.229.211c-.032-.041-.067-.085-.1-.121a.339.339,0,0,0-.127-.09l-.061.175a.172.172,0,0,1,.055.044c.027.028.056.065.09.108Zm.3.226a.166.166,0,0,1-.137-.049,1.15,1.15,0,0,1-.159-.177l-.145.115a1.313,1.313,0,0,0,.188.205.348.348,0,0,0,.287.087Zm.384-.356a1.632,1.632,0,0,1-.171.224.415.415,0,0,1-.213.133l.033.182a.6.6,0,0,0,.313-.187,1.8,1.8,0,0,0,.191-.249Zm0,0h0l.155.1h0Zm.067-.1c-.02.025-.043.06-.066.094l.154.1c.025-.037.043-.063.056-.08Zm.283.04c-.01-.015-.022-.034-.035-.05a.181.181,0,0,0-.062-.052.13.13,0,0,0-.111,0A.214.214,0,0,0,12,4.439l.144.117.011-.012h0a.052.052,0,0,1-.021,0,.055.055,0,0,1-.023-.005l-.006,0h0l0,0,.01.014.014.021Zm.038.054a.553.553,0,0,1-.038-.054l-.155.1a.706.706,0,0,0,.052.073Zm.154.008a.106.106,0,0,1-.04.039.053.053,0,0,1-.031,0,.143.143,0,0,1-.083-.052l-.142.119a.326.326,0,0,0,.2.116.255.255,0,0,0,.248-.124Zm.163-.359c.011,0,0,0-.014,0a.045.045,0,0,1-.026-.023v.007a.153.153,0,0,1,0,.021.4.4,0,0,1-.009.065,1,1,0,0,1-.116.294l.154.1a1.171,1.171,0,0,0,.143-.359.385.385,0,0,0,0-.189.142.142,0,0,0-.081-.09.164.164,0,0,0-.121,0Zm-.012,0,.012,0-.066-.173-.012,0Zm-.637-.058a.263.263,0,0,0,.144.132.379.379,0,0,0,.176.018,1.352,1.352,0,0,0,.318-.092l-.066-.173a1.191,1.191,0,0,1-.272.081.2.2,0,0,1-.09-.007.078.078,0,0,1-.044-.042Zm-.132-.879a.121.121,0,0,0-.078.028.13.13,0,0,0-.04.062.252.252,0,0,0,0,.106,1.233,1.233,0,0,0,.063.233,4.524,4.524,0,0,0,.193.451l.165-.083a4.328,4.328,0,0,1-.184-.43,1.072,1.072,0,0,1-.054-.195c0-.025,0-.031,0-.027a.055.055,0,0,1-.018.025.064.064,0,0,1-.04.015Zm.2-.09a.081.081,0,0,1,0,.053.046.046,0,0,1-.025.018.5.5,0,0,1-.171.018v.185A.66.66,0,0,0,12.1,3.4a.228.228,0,0,0,.118-.1.259.259,0,0,0,.019-.179Zm.632.523c-.041-.072-.169-.272-.281-.429a1.687,1.687,0,0,0-.152-.191.252.252,0,0,0-.036-.031.137.137,0,0,0-.028-.015.106.106,0,0,0-.053-.006.1.1,0,0,0-.066.04.108.108,0,0,0-.019.049.177.177,0,0,0,0,.059l.181-.038c0-.01,0-.007,0,0a.077.077,0,0,1-.014.035.085.085,0,0,1-.057.034.079.079,0,0,1-.04,0l-.01,0,.01.009a1.557,1.557,0,0,1,.132.168c.11.153.234.348.27.412Zm.086.157-.086-.157-.161.091.085.154Zm.549.95s0,0-.018-.025-.033-.048-.054-.082c-.043-.069-.1-.159-.153-.259-.114-.2-.24-.43-.324-.584l-.162.089c.084.154.211.387.326.587.057.1.112.193.157.265.022.036.043.067.061.092a.31.31,0,0,0,.057.064Zm.186,1.7c-.008-.245-.027-.639-.054-.979-.013-.17-.028-.328-.045-.447-.008-.059-.017-.112-.027-.152a.421.421,0,0,0-.017-.056.142.142,0,0,0-.043-.061l-.112.147c-.017-.013-.02-.027-.016-.017a.239.239,0,0,1,.009.031c.008.031.016.077.023.134.016.114.031.268.044.436.026.337.045.728.053.97Zm-.312.085a1.382,1.382,0,0,1,.2.009l.034-.182a1.494,1.494,0,0,0-.237-.012Zm-.694.057a4.775,4.775,0,0,1,.694-.057V6.386a4.955,4.955,0,0,0-.719.059Zm-.515.009a.668.668,0,0,0,.237.022c.083,0,.177-.017.278-.032l-.025-.183c-.1.014-.189.026-.263.03a.489.489,0,0,1-.171-.014Zm-.2-.043a1.575,1.575,0,0,1,.2.043l.056-.176a1.74,1.74,0,0,0-.224-.049Zm-.034-.313a.748.748,0,0,0-.146.064.151.151,0,0,0-.053.054.106.106,0,0,0,.012.118.143.143,0,0,0,.058.04.357.357,0,0,0,.05.015c.033.008.074.015.113.022l.031-.182c-.042-.007-.076-.013-.1-.019l-.024-.007h0a.061.061,0,0,1,.015.013.079.079,0,0,1,.009.086.059.059,0,0,1-.011.015h0a.27.27,0,0,1,.035-.017l.072-.028ZM12,6.211c-.085.021-.172.043-.248.07l.061.174c.067-.024.145-.043.232-.065Zm.631-.529a.41.41,0,0,1-.038.223.376.376,0,0,1-.131.14A1.54,1.54,0,0,1,12,6.211l.045.179a1.7,1.7,0,0,0,.518-.192.561.561,0,0,0,.193-.209.593.593,0,0,0,.059-.321Zm-.418-.637a.44.44,0,0,1,.207,0,.18.18,0,0,1,.1.083.616.616,0,0,1,.07.208,3.08,3.08,0,0,1,.039.345l.184-.013a3.28,3.28,0,0,0-.042-.366.791.791,0,0,0-.094-.271.365.365,0,0,0-.2-.161.619.619,0,0,0-.3-.007Zm-.468.63a.747.747,0,0,1,.1-.4.515.515,0,0,1,.366-.227l-.032-.182a.7.7,0,0,0-.489.31.93.93,0,0,0-.132.5Zm-.231.373a.439.439,0,0,0,.089-.015.171.171,0,0,0,.1-.072.291.291,0,0,0,.038-.119,1.308,1.308,0,0,0,.008-.167h-.185a1.142,1.142,0,0,1-.006.143.223.223,0,0,1-.007.034l0,.008v0s.007-.005,0,0a.3.3,0,0,1-.051.007Zm-.068.008c.024,0,.046-.006.068-.008L11.5,5.864c-.022,0-.049,0-.081.01Zm-.066.01.066-.01-.031-.182-.06.009Zm0,0h0l-.026-.183h0Zm0,0h0l-.023-.184h0Zm-.884.465a1.192,1.192,0,0,1,.885-.465l-.025-.183a1.373,1.373,0,0,0-1.012.543Zm-.39-.524a2.547,2.547,0,0,0,0,.507.352.352,0,0,0,.035.108.148.148,0,0,0,.114.08.18.18,0,0,0,.132-.05.632.632,0,0,0,.1-.122l-.152-.105a.459.459,0,0,1-.072.086c-.018.015-.014,0,.005.007a.048.048,0,0,1,.029.014.18.18,0,0,1-.015-.051,2.419,2.419,0,0,1,0-.464Zm0,.005h0Zm.005-.115c0,.021,0,.058-.005.11l.185.011c0-.048.005-.093.005-.12Zm-.173-.551a1.4,1.4,0,0,1,.173.551H10.3a1.561,1.561,0,0,0-.189-.625Zm-.009-.022.009.021.169-.074L10.1,5.25Zm-.3-.283c.046-.071.075-.082.081-.083a.012.012,0,0,1,.008,0,.1.1,0,0,1,.03.023.6.6,0,0,1,.091.139c.032.062.063.132.094.2L10.1,5.25c-.031-.07-.064-.145-.1-.214a.776.776,0,0,0-.123-.183.225.225,0,0,0-.206-.076.334.334,0,0,0-.2.164Zm.1.713a.374.374,0,0,1-.062-.088.906.906,0,0,1-.079-.19.527.527,0,0,1,.036-.435l-.155-.1a.71.71,0,0,0-.059.586,1.091,1.091,0,0,0,.1.229.513.513,0,0,0,.108.142Zm.106,1.679a1.135,1.135,0,0,0,.174-1.011,2.357,2.357,0,0,0-.138-.431A1.487,1.487,0,0,0,9.8,5.848c-.011-.019-.022-.036-.032-.051a.211.211,0,0,0-.038-.042L9.614,5.9s0,0,0,.005.013.02.022.035a1.311,1.311,0,0,1,.062.127,2.173,2.173,0,0,1,.127.4.957.957,0,0,1-.13.847Zm-1.373.82a.29.29,0,0,0,.3.026A1.483,1.483,0,0,0,9.1,8.1a4.639,4.639,0,0,0,.74-.662L9.7,7.309a4.457,4.457,0,0,1-.709.634A1.308,1.308,0,0,1,8.7,8.1c-.086.03-.11.013-.111.013ZM8.4,7.734a.344.344,0,0,0-.124.124.193.193,0,0,0-.008.162.393.393,0,0,0,.083.122c.033.036.074.073.116.111l.125-.137c-.043-.039-.078-.071-.105-.1a.221.221,0,0,1-.045-.062c0-.008,0-.008,0-.011a.174.174,0,0,1,.06-.054Zm.156-.081a1.591,1.591,0,0,0-.156.081l.1.155a1.49,1.49,0,0,1,.135-.069Zm.783-1A.685.685,0,0,1,9.11,7.3a2.124,2.124,0,0,1-.558.35l.08.167a2.3,2.3,0,0,0,.606-.383.869.869,0,0,0,.279-.818ZM9.15,5.9a5.686,5.686,0,0,1,.186.754l.182-.033a5.87,5.87,0,0,0-.191-.776Zm.081-.276a.118.118,0,0,0-.093.04.124.124,0,0,0-.026.093.374.374,0,0,0,.014.064c.006.022.015.048.024.078l.176-.056c-.01-.031-.017-.054-.022-.073A.222.222,0,0,1,9.3,5.738a.064.064,0,0,1-.017.043.074.074,0,0,1-.034.023.051.051,0,0,1-.015,0Zm.04,0-.04,0v.185h.028Zm-.02-.113a.548.548,0,0,1,.034.121c0,.025,0,.021.005.009a.04.04,0,0,1,.02-.016.226.226,0,0,1-.039,0l-.012.185a.376.376,0,0,0,.078,0,.151.151,0,0,0,.106-.063.2.2,0,0,0,.026-.134.719.719,0,0,0-.045-.165Zm-.387-.262A.269.269,0,0,1,9,5.15a.081.081,0,0,1,.071.026.468.468,0,0,1,.094.134,1.9,1.9,0,0,1,.086.2l.173-.065a2.075,2.075,0,0,0-.094-.22.645.645,0,0,0-.136-.188.264.264,0,0,0-.225-.07.442.442,0,0,0-.242.157Zm0,.588a.533.533,0,0,1-.148-.262.42.42,0,0,1,.146-.326l-.138-.123a.6.6,0,0,0-.192.473.707.707,0,0,0,.191.359Zm.121.99a.552.552,0,0,0,.17-.287.535.535,0,0,0-.023-.284,1.36,1.36,0,0,0-.268-.418l-.141.12a1.188,1.188,0,0,1,.233.358.351.351,0,0,1,.017.187.368.368,0,0,1-.116.191Zm-.27.273c.08-.083.17-.178.27-.273l-.128-.134c-.1.1-.2.2-.276.279Zm0,0h0L8.585,6.97h0Zm-.451.131A.161.161,0,0,0,8.28,7.3a.111.111,0,0,0,.088.062.138.138,0,0,0,.076-.016.3.3,0,0,0,.049-.032A2.556,2.556,0,0,0,8.717,7.1l-.134-.128a2.476,2.476,0,0,1-.2.2l-.018.013a.053.053,0,0,1,.026,0,.074.074,0,0,1,.058.039c.006.012,0,.019,0,.01Zm.043-.147a.164.164,0,0,1,.018-.032.053.053,0,0,1-.025.012.068.068,0,0,1-.059-.014c-.007-.006-.007-.01,0,0a.31.31,0,0,1,.018.075.766.766,0,0,1,.008.108H8.45a.707.707,0,0,0-.043-.26.175.175,0,0,0-.042-.059.117.117,0,0,0-.1-.028.143.143,0,0,0-.078.052.336.336,0,0,0-.043.071ZM8.261,7.2c.017-.045.032-.083.047-.116L8.14,7.008c-.018.039-.035.084-.052.127Zm-.449.571A.9.9,0,0,0,8.261,7.2l-.173-.066A.726.726,0,0,1,7.74,7.6Zm-.99.528.055.074h0l.005,0,.021-.016L6.983,8.3c.066-.048.157-.112.257-.18a4.142,4.142,0,0,1,.571-.344L7.74,7.6a4.267,4.267,0,0,0-.6.362c-.1.069-.194.135-.261.183L6.8,8.2l-.022.016-.006,0h0Zm-.25.262c-.008,0-.008,0,0,0a.071.071,0,0,1,.057.083.192.192,0,0,1,.022-.035c.013-.018.031-.038.05-.06.04-.044.086-.089.122-.124l.045-.042.013-.012,0,0h0L6.822,8.3,6.76,8.232h0l0,0-.014.013-.048.045c-.038.036-.088.085-.132.134-.022.024-.043.05-.061.074a.357.357,0,0,0-.046.077.123.123,0,0,0,.02.134.12.12,0,0,0,.071.034.2.2,0,0,0,.057,0Zm.809-.279a.625.625,0,0,1-.141.078c-.067.03-.148.059-.232.087a3.442,3.442,0,0,1-.436.114l.03.182a3.607,3.607,0,0,0,.463-.121c.087-.028.174-.06.249-.093A.787.787,0,0,0,7.5,8.425ZM7.92,8.15,7.9,8.06h0l-.012,0-.042.012c-.035.01-.084.025-.137.044a1.08,1.08,0,0,0-.321.164l.12.14a.917.917,0,0,1,.263-.13c.049-.017.094-.031.127-.04l.038-.011.01,0h0Zm.782.535a.294.294,0,0,1-.23-.039.934.934,0,0,1-.234-.2,1.951,1.951,0,0,1-.173-.232c-.021-.033-.037-.06-.048-.079l-.012-.022,0-.006H8s0,0,0,0H8L7.92,8.15l-.082.043h0v0l0,.007.014.025c.012.021.03.051.053.086a2.135,2.135,0,0,0,.189.254,1.115,1.115,0,0,0,.283.24.478.478,0,0,0,.371.055Zm1.356-1.036L9.99,7.587h0l0,0L9.98,7.6,9.95,7.63l-.109.115c-.092.1-.218.224-.358.356s-.29.267-.431.375a1.255,1.255,0,0,1-.351.211l.052.178a1.412,1.412,0,0,0,.413-.242c.148-.114.3-.253.445-.387s.27-.265.364-.362l.111-.116.03-.033.008-.009,0,0h0Zm1.211.737a1.439,1.439,0,0,1-.786-.41,2.973,2.973,0,0,1-.256-.265c-.031-.036-.054-.065-.07-.086L10.139,7.6l0-.006h0l-.075.054L9.983,7.7h0v0l.005.007.02.026c.017.022.043.054.075.092a3.157,3.157,0,0,0,.273.281,1.617,1.617,0,0,0,.9.458Zm.554-.128a.113.113,0,0,1,.028.029l0,.007h0l0,0a.089.089,0,0,1-.027.024.988.988,0,0,1-.556.062l-.015.184a1.138,1.138,0,0,0,.672-.091A.222.222,0,0,0,12.04,8.3a.238.238,0,0,0-.1-.183Zm-.178-.11a1.776,1.776,0,0,1,.178.11l.113-.147a1.926,1.926,0,0,0-.2-.124Zm-.37-.511a.2.2,0,0,0-.021.183.352.352,0,0,0,.1.135,1.766,1.766,0,0,0,.292.193l.092-.16a1.621,1.621,0,0,1-.26-.17.177.177,0,0,1-.049-.061.018.018,0,0,1,0-.02Zm.851-.358A2.99,2.99,0,0,0,11.6,7.4a.613.613,0,0,0-.327.24l.156.1a.431.431,0,0,1,.234-.165,2.829,2.829,0,0,1,.49-.109Zm.187-.027c-.061.008-.124.017-.187.027l.029.183c.061-.01.122-.018.183-.026Zm.675-.338a.35.35,0,0,1-.224.242,1.871,1.871,0,0,1-.451.1l.025.183a2.03,2.03,0,0,0,.5-.109.534.534,0,0,0,.33-.363Zm.329-.4a.789.789,0,0,0-.329.4l.178.049a.617.617,0,0,1,.26-.3Zm.043-.032-.043.032.109.149.048-.036Zm.152.186c0-.029,0-.069,0-.116l-.185,0c0,.047,0,.084,0,.111ZM13.456,8.08a.484.484,0,0,0,.018-.1c0-.04.008-.09.011-.146.007-.113.012-.255.016-.4.008-.3.01-.613.01-.76h-.185c0,.145,0,.462-.01.755,0,.147-.009.287-.015.4,0,.055-.007.1-.01.137,0,.018,0,.032-.006.043s0,.016,0,.014Zm.1-.156a.231.231,0,0,1-.121.082c-.027.008-.03,0-.019.007a.063.063,0,0,1,.036.038.049.049,0,0,1,0,.029l-.174-.062a.141.141,0,0,0,0,.095.122.122,0,0,0,.072.073.22.22,0,0,0,.137,0,.411.411,0,0,0,.229-.165Zm0-.008,0,.008.159.094,0-.008Zm.153-.481a.884.884,0,0,1-.153.481l.159.094a1.065,1.065,0,0,0,.179-.575Zm0-.165c0,.068,0,.126,0,.165H13.9c0-.038,0-.094,0-.163Zm-.051-1.227a.78.78,0,0,1,.032.187c.009.094.014.21.017.333.006.247,0,.52,0,.707l.185,0c0-.186.005-.463,0-.714,0-.125-.009-.246-.018-.346a.909.909,0,0,0-.046-.242Zm.146-.443a.113.113,0,0,0-.174.024.244.244,0,0,0-.032.118.712.712,0,0,0,.06.3l.17-.073a.528.528,0,0,1-.045-.219c0-.029.007-.034,0-.027a.073.073,0,0,1-.1.015Zm.41.745c-.094-.181-.185-.355-.256-.487-.035-.066-.066-.122-.089-.163l-.031-.052-.013-.02a.141.141,0,0,0-.021-.023l-.121.14-.007-.008.006.01.027.045c.022.039.052.093.087.159.07.131.16.3.255.486Zm.5.925a.278.278,0,0,1-.018-.026c-.011-.017-.025-.04-.041-.069-.033-.057-.074-.133-.122-.22-.094-.176-.21-.4-.321-.61l-.164.086c.111.212.227.435.322.612.048.088.09.166.124.225.017.03.032.055.045.076a.38.38,0,0,0,.038.053Zm-.045-.2a1.468,1.468,0,0,1-.041.192.129.129,0,0,1-.007.017.042.042,0,0,1,.011-.01.071.071,0,0,1,.057-.011.062.062,0,0,1,.02.008l0,0h0l-.135.126a.134.134,0,0,0,.067.041.114.114,0,0,0,.093-.019.151.151,0,0,0,.043-.049.293.293,0,0,0,.021-.047,1.583,1.583,0,0,0,.049-.221Zm.067-.265a.512.512,0,0,0-.04.123c-.01.044-.019.095-.027.142l.182.032c.008-.049.016-.094.025-.133a.357.357,0,0,1,.023-.076Zm.289.044a.494.494,0,0,0-.013-.133.124.124,0,0,0-.047-.068.1.1,0,0,0-.111,0,.156.156,0,0,0-.044.038.37.37,0,0,0-.026.038c-.016.025-.032.056-.048.086l.163.087c.016-.03.03-.056.042-.075l.013-.019s0,0-.01.007a.076.076,0,0,1-.034.009.082.082,0,0,1-.049-.014.074.074,0,0,1-.022-.023l0-.006v0h0v0s0,.009,0,.016,0,.033,0,.058Zm0,.065c0-.025,0-.047,0-.065h-.185c0,.021,0,.044,0,.069ZM14.594,8a1.177,1.177,0,0,0,.443-1.088l-.185,0a1,1,0,0,1-.36.93Zm-.378.258c.107-.074.232-.161.378-.258l-.1-.154c-.148.1-.275.186-.381.26Zm-.49.292a.773.773,0,0,0,.205-.1c.078-.049.172-.114.285-.192l-.105-.152c-.114.079-.2.142-.277.187a.622.622,0,0,1-.152.077Zm.026.1a.032.032,0,0,1-.026-.01A.072.072,0,0,1,13.71,8.6a.078.078,0,0,1,.006-.043c0-.008.008-.01.011-.01l-.045-.179a.225.225,0,0,0-.155.257.23.23,0,0,0,.226.211Zm.047,0h-.047v.185h.041Zm1.147-.649a1.148,1.148,0,0,1-.627.58,1.345,1.345,0,0,1-.52.069l-.006.185a1.527,1.527,0,0,0,.589-.08,1.333,1.333,0,0,0,.727-.668Zm.071-3.376c.028.273.1.954.117,1.652a8.726,8.726,0,0,1-.024,1.007,2.068,2.068,0,0,1-.165.717l.164.086a2.233,2.233,0,0,0,.185-.786,8.867,8.867,0,0,0,.025-1.029c-.018-.706-.09-1.393-.118-1.667ZM15,4.5c0,.01,0,.029,0,.047l.009.085.184-.019c0-.035-.007-.064-.009-.084l0-.024c0-.007,0-.008,0-.005Zm-.034-.123c.011.036.019.065.026.089s.005.021.007.028S15,4.5,15,4.5h.185a.344.344,0,0,0-.014-.081c-.007-.027-.017-.06-.027-.095Zm-.066-.6a.56.56,0,0,0-.009.3,2.806,2.806,0,0,0,.075.291l.177-.053a2.646,2.646,0,0,1-.07-.271.4.4,0,0,1,0-.2Zm.224-.117A.135.135,0,0,0,15,3.654a.158.158,0,0,0-.06.054.4.4,0,0,0-.038.072l.17.072a.224.224,0,0,1,.019-.038c0-.006,0,0-.012.007a.063.063,0,0,1-.023.006.06.06,0,0,1-.018,0l-.005,0,.006,0Zm-.03,0s0,0,0,0a.047.047,0,0,1,.021-.005.044.044,0,0,1,.016,0l-.006,0-.087.163a.163.163,0,0,0,.082.023.157.157,0,0,0,.113-.058Zm0-.331a.265.265,0,0,1,.079.2.265.265,0,0,1-.075.127l.138.123a.444.444,0,0,0,.12-.22.444.444,0,0,0-.116-.348Zm-.164-.3a1.433,1.433,0,0,0,.164.3l.146-.114a1.275,1.275,0,0,1-.141-.265Zm-.08-.148c.023-.031.029-.026.016-.023s-.033-.009-.026,0a.256.256,0,0,1,.038.059c.016.032.033.07.053.114l.169-.074c-.019-.043-.038-.087-.057-.125a.424.424,0,0,0-.071-.105.155.155,0,0,0-.145-.048.224.224,0,0,0-.125.095Zm-.144,1.1A1.78,1.78,0,0,1,14.7,3.4a2,2,0,0,1,.063-.308.707.707,0,0,1,.09-.206L14.7,2.775a.884.884,0,0,0-.118.262,2.2,2.2,0,0,0-.069.337,1.958,1.958,0,0,0,.012.659Zm.056,2.692a.133.133,0,0,0,.061.036.109.109,0,0,0,.094-.019.135.135,0,0,0,.04-.053.254.254,0,0,0,.015-.048,1.244,1.244,0,0,0,.014-.257c0-.214-.03-.52-.065-.84-.069-.637-.176-1.346-.216-1.51l-.18.045c.037.15.143.847.212,1.485.035.318.06.618.064.823a1.1,1.1,0,0,1-.01.214l0,.009v0l0-.005a.062.062,0,0,1,.013-.013.075.075,0,0,1,.063-.013.063.063,0,0,1,.019.008l.005,0Zm-.383-.639c.062.127.124.253.185.362a1.284,1.284,0,0,0,.2.277l.13-.132a1.109,1.109,0,0,1-.167-.237c-.058-.1-.117-.223-.18-.352ZM14.1,5.516c.1.164.191.348.279.526l.166-.081c-.086-.177-.181-.369-.287-.542Zm-.616-1.583a.326.326,0,0,0-.035.165.794.794,0,0,0,.029.183,2.489,2.489,0,0,0,.164.421,9.229,9.229,0,0,0,.458.815l.157-.1a9.073,9.073,0,0,1-.448-.8,2.329,2.329,0,0,1-.152-.388.624.624,0,0,1-.023-.14.146.146,0,0,1,.012-.072Zm.105-.167a1.741,1.741,0,0,0-.105.167l.162.089a1.572,1.572,0,0,1,.095-.151Zm.024-.186a.248.248,0,0,1,.02.109c0,.014-.01.027-.045.077l.152.106a.387.387,0,0,0,.075-.148.41.41,0,0,0-.026-.2Zm-.155-.245a.71.71,0,0,1,.155.245l.176-.056a.887.887,0,0,0-.189-.308Zm-.175-.252a1.228,1.228,0,0,0,.175.252l.142-.119A1.05,1.05,0,0,1,13.452,3Zm-.147-.187c0-.039.011-.022-.012-.01s-.026,0,0,.011a.439.439,0,0,1,.16.185L13.452,3a.617.617,0,0,0-.241-.268.165.165,0,0,0-.257.163Zm-.36.233a.312.312,0,0,0,.04.082.151.151,0,0,0,.078.059.147.147,0,0,0,.161-.068.57.57,0,0,0,.081-.306h-.185a.5.5,0,0,1-.015.121.254.254,0,0,1-.032.078c-.014.02,0-.015.044,0a.044.044,0,0,1,.019.01.141.141,0,0,1-.015-.033Zm-.469-.446c.01-.008.027-.016.07,0a.514.514,0,0,1,.156.108,1.019,1.019,0,0,1,.242.338l.175-.06a1.191,1.191,0,0,0-.291-.414.693.693,0,0,0-.218-.146.247.247,0,0,0-.254.031Zm-.041.089c-.012-.027-.011-.029-.011-.029a.038.038,0,0,1,.007-.015.236.236,0,0,1,.044-.045l-.119-.142a.293.293,0,0,0-.115.172.228.228,0,0,0,.025.135Zm0,.171a.176.176,0,0,0,0-.171l-.169.076.007.016v0a.025.025,0,0,1,0-.009.029.029,0,0,1,0-.009Zm-.023.045c.009-.018.016-.033.023-.045l-.16-.092c-.01.018-.02.038-.029.055Zm0,0h0l-.17-.073h0Zm-.3.038a.224.224,0,0,0,.069.1.12.12,0,0,0,.074.023.124.124,0,0,0,.067-.023.217.217,0,0,0,.058-.067c.013-.021.024-.045.034-.064L12.084,2.9c-.01.021-.019.038-.027.051l-.009.013s0,0,0,0a.062.062,0,0,1,.033-.01.064.064,0,0,1,.039.011c.006,0,.008.008.005,0a.15.15,0,0,1-.012-.023Zm-.035-.1c.011.033.022.069.035.1l.17-.072c-.009-.021-.018-.048-.029-.084Zm-.233-.148a.241.241,0,0,1,.109-.07.03.03,0,0,1,.029.01.248.248,0,0,1,.05.08c.017.039.031.083.046.127l.176-.057c-.014-.043-.031-.1-.053-.145a.424.424,0,0,0-.093-.141.214.214,0,0,0-.185-.057.41.41,0,0,0-.2.117Zm-.162.593a.251.251,0,0,1-.065-.237.7.7,0,0,1,.227-.356l-.126-.135a.879.879,0,0,0-.283.456.435.435,0,0,0,.116.4Zm.3.851a.326.326,0,0,0,.046-.232.793.793,0,0,0-.074-.233,1.49,1.49,0,0,0-.27-.387l-.13.131a1.308,1.308,0,0,1,.234.335.616.616,0,0,1,.058.177.146.146,0,0,1-.015.1Zm-.623.116a.269.269,0,0,0,.157.128.294.294,0,0,0,.184-.011.632.632,0,0,0,.282-.234l-.152-.105a.45.45,0,0,1-.193.165.112.112,0,0,1-.069.007.086.086,0,0,1-.049-.045ZM11.053,3.6a1.025,1.025,0,0,0,.139.737l.16-.094a.841.841,0,0,1-.116-.61Zm-.082-.9a.05.05,0,0,1,.037,0,.08.08,0,0,1,.031.035.644.644,0,0,1,.054.248,2.852,2.852,0,0,1-.039.616l.182.033a3.033,3.033,0,0,0,.042-.662.812.812,0,0,0-.076-.324.26.26,0,0,0-.112-.112.232.232,0,0,0-.17-.01Zm-.152.669a.9.9,0,0,1-.04-.395.3.3,0,0,1,.192-.274l-.052-.177a.477.477,0,0,0-.323.426,1.084,1.084,0,0,0,.049.483Zm.056.762a.438.438,0,0,0,.036-.164,1.266,1.266,0,0,0-.006-.2,1.765,1.765,0,0,0-.087-.4l-.174.063a1.583,1.583,0,0,1,.077.357,1.082,1.082,0,0,1,.005.166.271.271,0,0,1-.017.093Zm-.007.013.007-.013-.166-.082-.007.013Zm-.552.4a.227.227,0,0,0,.219.02.429.429,0,0,0,.155-.125,1.528,1.528,0,0,0,.178-.293L10.7,4.061a1.358,1.358,0,0,1-.154.256.252.252,0,0,1-.085.073.044.044,0,0,1-.047,0Zm-.28-.9a.922.922,0,0,0,.019.527.706.706,0,0,0,.262.37l.1-.155a.525.525,0,0,1-.187-.273.737.737,0,0,1-.016-.42Zm-.1-.581a.094.094,0,0,1,.044-.016.021.021,0,0,1,.014.005.213.213,0,0,1,.055.115,1.065,1.065,0,0,1-.014.478l.179.048a1.247,1.247,0,0,0,.015-.57.383.383,0,0,0-.123-.218.206.206,0,0,0-.128-.043.274.274,0,0,0-.136.042Zm-.52.843a1.036,1.036,0,0,1,.169-.451,1.194,1.194,0,0,1,.35-.392L9.841,2.9a1.367,1.367,0,0,0-.414.455,1.2,1.2,0,0,0-.2.547Zm-.387.426a.237.237,0,0,0,.068.079.138.138,0,0,0,.115.022A.165.165,0,0,0,9.3,4.378.327.327,0,0,0,9.341,4.3a1.037,1.037,0,0,0,.075-.4H9.231a.86.86,0,0,1-.058.32.148.148,0,0,1-.019.032c0,.006,0,0,.011,0A.047.047,0,0,1,9.2,4.26a.162.162,0,0,1-.013-.019ZM9.011,4.3l.018.031.16-.092L9.172,4.21Zm-.184-.778a.693.693,0,0,0,.018.435,1.947,1.947,0,0,0,.167.343l.16-.092A1.774,1.774,0,0,1,9.02,3.9.51.51,0,0,1,9,3.579Zm.02-.308a.1.1,0,0,1,.014-.026.048.048,0,0,1-.037.009.044.044,0,0,1-.02-.007.1.1,0,0,1,.015.027.48.48,0,0,1,.007.306L9,3.579a.662.662,0,0,0-.013-.435.283.283,0,0,0-.048-.077.154.154,0,0,0-.093-.052.139.139,0,0,0-.113.038.257.257,0,0,0-.059.09ZM3.743,2.7,3.73,2.688s0,0,0,0a.068.068,0,0,1,0,.037.062.062,0,0,1-.011.028l-.148-.111a.123.123,0,0,0-.024.056.117.117,0,0,0,.009.064.24.24,0,0,0,.041.058Zm.145.238A.761.761,0,0,0,3.743,2.7L3.6,2.825a.578.578,0,0,1,.112.185Zm.065.375a1.388,1.388,0,0,0-.065-.375l-.172.069a1.24,1.24,0,0,1,.053.321Zm-.1.085a.191.191,0,0,1-.012.022.076.076,0,0,1,.014-.011.08.08,0,0,1,.04-.011.084.084,0,0,1,.049.015.075.075,0,0,1,.021.021.048.048,0,0,1,0,.009s0,0,0-.009,0-.017,0-.029-.005-.055-.008-.09l-.184.015c0,.035.005.068.009.1a.361.361,0,0,0,.017.083.119.119,0,0,0,.042.056.1.1,0,0,0,.06.018.1.1,0,0,0,.052-.015.143.143,0,0,0,.043-.043.361.361,0,0,0,.025-.045Zm.032-.622a.126.126,0,0,1,.038.074.637.637,0,0,1,.013.176A1.047,1.047,0,0,1,3.85,3.4l.167.081a1.227,1.227,0,0,0,.1-.445A.819.819,0,0,0,4.1,2.808a.3.3,0,0,0-.115-.183Zm-.157-.022a.059.059,0,0,1,.037-.017.176.176,0,0,1,.12.039l.1-.154a.357.357,0,0,0-.249-.068.241.241,0,0,0-.159.09Zm1.6-.064-.092-.008h0v0s0,.009,0,.016,0,.032,0,.055a.775.775,0,0,0,.021.168.424.424,0,0,0,.1.188.3.3,0,0,0,.231.1V3.029a.12.12,0,0,1-.1-.037.242.242,0,0,1-.051-.106.591.591,0,0,1-.016-.127c0-.018,0-.032,0-.043s0-.009,0-.011v0h0Zm.129-.133a.3.3,0,0,0-.162.035.13.13,0,0,0-.046.049.111.111,0,0,0-.01.027.1.1,0,0,0,0,.012v.008h.185V2.7a.078.078,0,0,1,0,.009.074.074,0,0,1-.007.018.055.055,0,0,1-.018.021.243.243,0,0,1,.064-.006Zm.2.163a.214.214,0,0,0-.043-.1.191.191,0,0,0-.153-.061v.185a.065.065,0,0,1,.02,0h0l0,0s0-.005,0,0l0,.007,0,.013Zm-.005,0a.04.04,0,0,1,.009.013v0l0-.012-.182.035a.319.319,0,0,0,.009.039.148.148,0,0,0,.033.057ZM5.5,2.756v.011a.061.061,0,0,1,.006-.016.085.085,0,0,1,.027-.031A.088.088,0,0,1,5.6,2.705a.083.083,0,0,1,.036.014l.01.008-.134.127a.109.109,0,0,0,.065.035.1.1,0,0,0,.068-.017.1.1,0,0,0,.032-.037A.131.131,0,0,0,5.685,2.8c0-.008,0-.016,0-.022ZM5.636,2.6a.122.122,0,0,0-.08.029.135.135,0,0,0-.038.054.269.269,0,0,0-.015.072l.184.018c0-.008,0-.013,0-.018s0-.006,0,0a.05.05,0,0,1-.015.019.064.064,0,0,1-.02.011.06.06,0,0,1-.02,0Zm.165.255a.446.446,0,0,0-.02-.152.163.163,0,0,0-.052-.073A.15.15,0,0,0,5.636,2.6v.185a.036.036,0,0,1-.02-.008c-.008-.006-.009-.012-.008-.008a.123.123,0,0,1,.005.028.57.57,0,0,1,0,.058ZM5.7,2.79a.063.063,0,0,1-.005.024c0,.009-.007.012,0,.009a.054.054,0,0,1,.022-.011.077.077,0,0,1,.063.011.067.067,0,0,1,.027.034s0,.005,0,0H5.616a.192.192,0,0,0,.008.057.118.118,0,0,0,.046.064.108.108,0,0,0,.089.015.131.131,0,0,0,.052-.029.239.239,0,0,0,.073-.172ZM5.936,2.6a.321.321,0,0,0-.139.026.173.173,0,0,0-.072.063.186.186,0,0,0-.027.1h.185c0-.007,0-.006,0,0s-.005.005,0,0a.07.07,0,0,1,.019,0l.038,0Zm-.361.613a.474.474,0,0,0,.4-.26.591.591,0,0,0,.069-.176.227.227,0,0,0,0-.083.121.121,0,0,0-.026-.056A.106.106,0,0,0,5.936,2.6v.185a.079.079,0,0,1-.06-.028.065.065,0,0,1-.015-.029c0-.005,0,0,0,.014a.409.409,0,0,1-.048.118.291.291,0,0,1-.235.168ZM4.215,6.926a.24.24,0,0,0-.19.1.625.625,0,0,0-.1.212,1.736,1.736,0,0,0-.041.588l.184-.016a1.553,1.553,0,0,1,.035-.523.447.447,0,0,1,.065-.149c.023-.03.037-.032.043-.032Zm.176.484h.092v0s0-.008,0-.014,0-.028,0-.048a1.045,1.045,0,0,0-.021-.148.5.5,0,0,0-.066-.166.213.213,0,0,0-.179-.1v.185s.011,0,.025.02a.318.318,0,0,1,.039.1.861.861,0,0,1,.017.121c0,.017,0,.031,0,.04s0,.008,0,.011v0h.092Zm.916.749a.8.8,0,0,1-.686-.39,1.061,1.061,0,0,1-.113-.258c-.01-.035-.017-.064-.02-.084l0-.022V7.4h0s0,0,0,0h0l-.092.011L4.3,7.422h0v.011c0,.007,0,.017.005.029s.012.059.024.1a1.246,1.246,0,0,0,.133.3.983.983,0,0,0,.836.478ZM6.659,6.876l-.086-.033h0v0l0,.011L6.549,6.9c-.016.037-.04.091-.071.156a3.722,3.722,0,0,1-.269.47,1.984,1.984,0,0,1-.408.453.756.756,0,0,1-.494.181L5.3,8.344a.94.94,0,0,0,.615-.219,2.166,2.166,0,0,0,.448-.5,3.907,3.907,0,0,0,.282-.493c.032-.067.057-.124.074-.163l.019-.046.005-.013v0h0Zm.033-.534-.092,0h0v.011c0,.008,0,.02,0,.035,0,.031,0,.074,0,.124a2.113,2.113,0,0,1-.032.341l.181.036a2.3,2.3,0,0,0,.036-.372c0-.053,0-.1,0-.132,0-.016,0-.029,0-.038V6.338h0Zm-.055.25c.015-.057.028-.105.04-.144a.524.524,0,0,1,.028-.078c0-.007,0,0,0,0a.074.074,0,0,1-.061.017.065.065,0,0,1-.04-.02s0,0,.006.012L6.776,6.3a.243.243,0,0,0-.031-.051.122.122,0,0,0-.074-.044.112.112,0,0,0-.094.03.178.178,0,0,0-.035.049.679.679,0,0,0-.04.109c-.013.042-.026.093-.041.149Zm-.261.775a5.065,5.065,0,0,0,.261-.775l-.179-.048a4.886,4.886,0,0,1-.251.747ZM5.1,8.008a1.956,1.956,0,0,0,.659-.067,1,1,0,0,0,.62-.575l-.169-.075a.814.814,0,0,1-.509.474,1.782,1.782,0,0,1-.6.058Zm-.041,0H5.1l0-.185H5.061ZM4.3,7.028a1.507,1.507,0,0,0,.228.6,1.063,1.063,0,0,0,.226.259.509.509,0,0,0,.3.12l0-.185a.326.326,0,0,1-.193-.08.881.881,0,0,1-.185-.214,1.328,1.328,0,0,1-.2-.519Zm.163-.55-.085-.036h0v0l0,.01-.013.035a1.231,1.231,0,0,0-.034.124,1.306,1.306,0,0,0-.026.414l.184-.019a1.122,1.122,0,0,1,.022-.355,1.044,1.044,0,0,1,.029-.105l.01-.027,0-.006h0Zm.363.221a.6.6,0,0,0-.05-.3.194.194,0,0,0-.083-.082.178.178,0,0,0-.1-.016.311.311,0,0,0-.138.062.5.5,0,0,0-.039.032L4.4,6.409l0,0h0l.067.064.067.064h0l.006-.006.024-.02a.137.137,0,0,1,.052-.027s0,0,0,0,0,0,0,.006a.445.445,0,0,1,.026.2Zm.613.538a.934.934,0,0,1-.475-.119c-.085-.064-.143-.177-.138-.419l-.185,0a.641.641,0,0,0,.212.57,1.1,1.1,0,0,0,.572.156ZM6.2,6.379a1.842,1.842,0,0,1-.272.545.612.612,0,0,1-.493.313l-.015.184a.789.789,0,0,0,.656-.388,2.022,2.022,0,0,0,.3-.607Zm-.272.171L6,6.617H6l0,0L6.012,6.6l.046-.041c.038-.034.087-.074.133-.106a.526.526,0,0,1,.06-.037c.019-.01.024-.009.019-.009A.058.058,0,0,1,6.239,6.4a.066.066,0,0,1-.029-.034c-.005-.014,0-.015-.007.015l.179.048a.213.213,0,0,0,0-.125.119.119,0,0,0-.052-.064.127.127,0,0,0-.07-.016.238.238,0,0,0-.095.029.7.7,0,0,0-.082.051,1.891,1.891,0,0,0-.148.118l-.05.045-.014.013,0,0h0Zm-.584-.229a.665.665,0,0,0,.3.323.305.305,0,0,0,.351-.027l-.127-.134c-.019.018-.066.033-.142,0a.482.482,0,0,1-.211-.234ZM5.7,5.395a1.941,1.941,0,0,0-.309.414.575.575,0,0,0-.044.512l.168-.078a.394.394,0,0,1,.04-.35,1.764,1.764,0,0,1,.28-.372Zm.514.022.056-.073h0l0,0-.011-.007-.037-.022a.486.486,0,0,0-.129-.048.4.4,0,0,0-.388.132l.135.126a.217.217,0,0,1,.215-.077.3.3,0,0,1,.08.029l.022.013,0,0h0Zm.432.263.079-.047h0l0,0-.006-.009-.022-.03A.673.673,0,0,0,6.6,5.5a.778.778,0,0,0-.375-.172L6.2,5.508a.593.593,0,0,1,.287.131.489.489,0,0,1,.064.065l.014.019,0,0h0Zm-.013-.519-.089.023h0v0l0,.019c0,.017.01.04.016.069.013.057.028.13.039.2a.664.664,0,0,1,.011.157c0,.006,0,.007,0,0a.06.06,0,0,1,.023-.026A.066.066,0,0,1,6.7,5.606l-.111.148a.129.129,0,0,0,.148.015.126.126,0,0,0,.048-.058A.2.2,0,0,0,6.8,5.66a.809.809,0,0,0-.012-.21c-.012-.075-.028-.153-.041-.212-.007-.029-.013-.054-.017-.072l-.005-.021V5.14h0ZM6.4,4.042l-.091.014h0v.009l0,.028.016.1c.014.084.033.2.056.324a4.586,4.586,0,0,0,.162.677l.172-.068a4.49,4.49,0,0,1-.152-.642c-.023-.122-.042-.237-.056-.32l-.016-.1,0-.027V4.029h0Zm-.154-.3a2.513,2.513,0,0,0,.065.329l.178-.051a2.332,2.332,0,0,1-.059-.3Zm.048.179.092.007h0V3.905c0-.012,0-.029.006-.047a.324.324,0,0,1,.024-.087L6.256,3.68a.479.479,0,0,0-.045.148c0,.022-.006.042-.008.057l0,.017v.005h0ZM6.269,5.138a.621.621,0,0,0,.163-.347,1.783,1.783,0,0,0,.018-.405,3.243,3.243,0,0,0-.039-.342C6.4,4,6.4,3.962,6.391,3.937l-.006-.03,0-.008v0h0l-.09.021-.09.021h0v.008l.006.027c0,.024.011.058.018.1a3.057,3.057,0,0,1,.037.322,1.6,1.6,0,0,1-.015.362A.442.442,0,0,1,6.142,5Zm-.348.23A.308.308,0,0,0,6.092,5.3c.05-.038.108-.093.177-.158L6.142,5c-.072.068-.121.114-.161.145a.134.134,0,0,1-.068.035Zm-.394-.226c.083.069.151.125.207.163a.313.313,0,0,0,.187.064l-.008-.185c-.01,0-.03,0-.077-.033s-.1-.079-.191-.151Zm0,0h0L5.647,5h0Zm0,0h0L5.646,5h0Zm0,0h0L5.645,5h0Zm0,0h0L5.643,5h0Zm0,0h0L5.646,5h0ZM5.331,5.4c0-.082,0-.157.007-.219a.324.324,0,0,1,.029-.123c0-.008.007-.008,0-.006s0,0,.006,0a.379.379,0,0,1,.149.09L5.645,5a.536.536,0,0,0-.238-.131.192.192,0,0,0-.117.016.2.2,0,0,0-.081.076.489.489,0,0,0-.055.2c-.007.073-.008.155-.008.237Zm0,1.324V5.4H5.146V6.723Zm-.338.292a.431.431,0,0,0,.21-.033.268.268,0,0,0,.128-.259H5.146a.181.181,0,0,1-.013.077.037.037,0,0,1-.017.018A.276.276,0,0,1,5,6.83Zm-.087,0s0,0,.015,0a.558.558,0,0,1,.071,0L5,6.83a.72.72,0,0,0-.1,0,.21.21,0,0,0-.113.045Zm-.017-.673L4.8,6.34h0v.016l0,.047c0,.04-.006.094-.01.156-.008.124-.019.273-.029.379l.184.018c.01-.109.021-.261.029-.385,0-.062.008-.117.01-.157l0-.047V6.352h0Zm-.232-.911-.088.029h0v0l0,.006.008.023.027.084c.022.071.052.167.082.268s.058.208.079.3A.894.894,0,0,1,4.8,6.34l.185.011a1.014,1.014,0,0,0-.034-.245c-.022-.1-.052-.207-.082-.31s-.06-.2-.083-.273l-.028-.086-.008-.024,0-.006v0h0ZM4.193,4.8l-.081.045h0l0,0,.009.015.032.055c.027.047.066.111.112.18A2.036,2.036,0,0,0,4.6,5.5l.12-.141A1.872,1.872,0,0,1,4.423,5c-.044-.067-.081-.128-.107-.173l-.031-.053-.008-.014,0,0h0Zm-.181-.16.076.053h0v0L4.1,4.682c.008-.007.005,0-.008,0s-.032-.015-.024,0a.394.394,0,0,1,.04.134l.182-.031a.556.556,0,0,0-.066-.2A.158.158,0,0,0,4.075,4.5a.175.175,0,0,0-.106.049.252.252,0,0,0-.023.025L3.94,4.58l0,0h0Zm-.5.681a.376.376,0,0,0,.309,0,.415.415,0,0,0,.183-.2,1.185,1.185,0,0,0,.1-.483H3.92a1,1,0,0,1-.077.4.234.234,0,0,1-.1.113.194.194,0,0,1-.161-.007ZM3.381,3.7l-.091-.014h0v0l0,.012-.006.045c-.005.039-.012.094-.02.161-.015.134-.03.315-.033.5a2.4,2.4,0,0,0,.042.542.762.762,0,0,0,.082.221.335.335,0,0,0,.164.148l.067-.173a.152.152,0,0,1-.072-.07.582.582,0,0,1-.061-.167,2.226,2.226,0,0,1-.038-.5c0-.179.018-.354.032-.484.007-.065.014-.119.019-.156l.006-.043,0-.011v0h0Zm.262.364a.6.6,0,0,0-.112-.372.258.258,0,0,0-.086-.068.2.2,0,0,0-.034-.012l-.012,0H3.39s0,0-.01.092-.009.092-.01.092H3.366a.075.075,0,0,1,.024.02.429.429,0,0,1,.068.26Zm.109.618.075-.054h0v0l0-.007L3.8,4.587a1.162,1.162,0,0,1-.061-.119,1.124,1.124,0,0,1-.1-.406l-.185.007a1.309,1.309,0,0,0,.114.473,1.348,1.348,0,0,0,.071.138l.024.038.007.011,0,0h0Zm.132-.563-.092,0h0v.033c0,.022,0,.052-.005.088,0,.072-.012.165-.022.249a.886.886,0,0,1-.034.181c0,.006,0,0,0,0A.077.077,0,0,1,3.8,4.639a.074.074,0,0,1,.032.015.048.048,0,0,1,.009.009.114.114,0,0,1-.007-.016l-.173.066a.26.26,0,0,0,.028.056.12.12,0,0,0,.074.051.108.108,0,0,0,.1-.034A.169.169,0,0,0,3.9,4.736a1,1,0,0,0,.047-.23c.011-.089.018-.185.023-.259,0-.037,0-.068.005-.091V4.122h0ZM4.3,3.483l-.054-.075h0l0,0-.015.011-.05.041a1.576,1.576,0,0,0-.151.148.806.806,0,0,0-.23.5h.185a.628.628,0,0,1,.184-.382A1.39,1.39,0,0,1,4.293,3.6l.043-.036.012-.009,0,0h0Zm.223.4h.092V3.877s0-.01,0-.018,0-.036,0-.062a1.136,1.136,0,0,0-.025-.182.4.4,0,0,0-.091-.187.186.186,0,0,0-.111-.055.22.22,0,0,0-.13.029l.088.163a.049.049,0,0,1,.021-.008s0,0,0,0a.228.228,0,0,1,.041.1.952.952,0,0,1,.021.151c0,.022,0,.041,0,.054s0,.012,0,.015v0h.092Zm-.009.607.084.038h0v0l0-.011c0-.01.009-.023.014-.04a.921.921,0,0,0,.032-.142,1.064,1.064,0,0,0-.04-.475l-.176.056a.879.879,0,0,1,.033.392.737.737,0,0,1-.025.113c0,.013-.008.023-.01.029l0,.006h0s0,0,0,0h0Zm.234.168-.053-.076h0l0,0-.02.011a.121.121,0,0,1-.045.013c-.006,0,0,0,0,0A.212.212,0,0,1,4.6,4.494L4.42,4.486a.375.375,0,0,0,.046.226.183.183,0,0,0,.159.083.3.3,0,0,0,.122-.031l.036-.019.011-.007,0,0h0Zm-.13-1-.088.027h0v0l0,.008.009.031c.008.027.019.065.032.11.026.092.058.213.085.335a2.086,2.086,0,0,1,.051.326.285.285,0,0,1,0,.083c0,.013,0-.019.039-.02l.009.185a.144.144,0,0,0,.128-.111.452.452,0,0,0,.013-.145,2.254,2.254,0,0,0-.055-.358c-.028-.126-.061-.252-.087-.345-.013-.047-.024-.086-.033-.113l-.01-.032,0-.008v0h0ZM4.549,3,4.46,2.981h0v0l0,.013c0,.011-.005.026-.008.045a1.151,1.151,0,0,0-.013.157,1.23,1.23,0,0,0,.1.5l.17-.072A1.045,1.045,0,0,1,4.619,3.2a.966.966,0,0,1,.011-.132c0-.015,0-.027.006-.035l0-.008v0h0ZM4.8,2.769l-.019-.09h0l-.01,0-.032.01a.53.53,0,0,0-.1.045A.334.334,0,0,0,4.457,3l.184.015A.15.15,0,0,1,4.725,2.9a.346.346,0,0,1,.064-.029l.02-.006h.005Zm.16.719h.092v0s0,0,0-.006,0-.013,0-.023,0-.048,0-.082c0-.068-.008-.158-.018-.25a1.4,1.4,0,0,0-.052-.265.4.4,0,0,0-.053-.109A.168.168,0,0,0,4.8,2.677l-.018.184c-.017,0-.02-.012-.013,0a.22.22,0,0,1,.026.058,1.221,1.221,0,0,1,.044.228c.01.086.015.172.017.237,0,.032,0,.059,0,.078s0,.017,0,.022v.006h.092Zm.285.846a.252.252,0,0,1-.054-.082,1.141,1.141,0,0,1-.068-.193,2.281,2.281,0,0,1-.071-.571H4.863a2.464,2.464,0,0,0,.077.618,1.322,1.322,0,0,0,.079.225.412.412,0,0,0,.108.15Zm-.23-.2a.407.407,0,0,1,.054.083.885.885,0,0,1,.052.119.421.421,0,0,1,.014.047c0,.014,0,.017,0,.014a.064.064,0,0,1,.009-.026A.081.081,0,0,1,5.2,4.33a.072.072,0,0,1,.042,0c.005,0,.006,0,0,0l-.112.147a.173.173,0,0,0,.038.023.113.113,0,0,0,.067.007.109.109,0,0,0,.085-.1.236.236,0,0,0-.006-.07.6.6,0,0,0-.02-.068,1.067,1.067,0,0,0-.063-.145A.575.575,0,0,0,5.144,4ZM4.963,3.7a1.836,1.836,0,0,0-.018.226.29.29,0,0,0,.065.2L5.144,4s-.013-.019-.014-.076a1.685,1.685,0,0,1,.017-.2Zm0,0h0l.184.02h0Zm.022-.272a2.328,2.328,0,0,1-.022.271l.184.022a2.5,2.5,0,0,0,.023-.293Zm.483-.076c-.043-.034-.088-.069-.131-.1A.449.449,0,0,0,5.2,3.189a.177.177,0,0,0-.087,0,.15.15,0,0,0-.083.056.31.31,0,0,0-.046.187H5.17a.2.2,0,0,1,.009-.076.036.036,0,0,1-.019.012c-.007,0-.009,0,0,0a.284.284,0,0,1,.077.041c.036.025.076.056.121.091Zm0,0,0,0L5.354,3.5l0,0Zm.153.555a1.359,1.359,0,0,0,0-.289.406.406,0,0,0-.149-.265L5.358,3.5a.222.222,0,0,1,.081.15,1.2,1.2,0,0,1,0,.249Zm0,0h0L5.44,3.9h0Zm-.006.153c0-.05,0-.1.006-.153L5.44,3.9c0,.052-.006.108-.006.163Zm.291.5a.6.6,0,0,1-.291-.5H5.434A.785.785,0,0,0,5.8,4.71Zm.011-.159c0,.041,0,.081,0,.117a.294.294,0,0,1-.01.078c-.005.015,0-.008.027-.012s.01.007-.03-.024L5.8,4.71a.233.233,0,0,0,.168.061.155.155,0,0,0,.123-.111.463.463,0,0,0,.019-.132c0-.044,0-.09,0-.129Zm0-.08c0,.025,0,.053,0,.08L6.105,4.4c0-.028,0-.052,0-.073Zm-.177-.432c.047.089.092.175.126.253a.512.512,0,0,1,.051.18H6.1a.679.679,0,0,0-.066-.253c-.037-.086-.086-.178-.132-.266Zm-.08-.154c.025.051.053.1.08.154l.164-.086c-.027-.052-.054-.1-.078-.15Zm.047-.464a.571.571,0,0,0-.1.2.406.406,0,0,0,.052.262l.166-.082a.23.23,0,0,1-.037-.145.414.414,0,0,1,.072-.134Zm0,0h0l.153.1h0Zm0,0h0l.152.106h0Zm0,0h0l.153.1h0Zm.064-.1c-.023.038-.044.071-.065.1l.154.1c.02-.031.044-.067.07-.109Zm.6.22a.724.724,0,0,0-.239-.3.278.278,0,0,0-.188-.051.245.245,0,0,0-.177.128l.159.095c.021-.035.037-.038.042-.039a.1.1,0,0,1,.062.022.543.543,0,0,1,.171.218Zm.014.032-.015-.032-.169.076.015.032Zm-.1-.194-.092,0h0v.017c0,.012,0,.028,0,.049,0,.042.006.1.012.169L6.4,3.456c-.006-.066-.01-.124-.012-.164,0-.02,0-.036,0-.047V3.229h0Zm.4-.507-.056-.073h0l0,0-.015.012-.052.043c-.043.036-.1.087-.156.143a1.151,1.151,0,0,0-.153.182.412.412,0,0,0-.049.1.2.2,0,0,0,0,.123L6.379,3.2s0,0,0-.011a.233.233,0,0,1,.028-.055.974.974,0,0,1,.128-.151c.051-.051.1-.1.144-.132l.049-.04L6.744,2.8l0,0h0Zm.334.857.092-.005h0v-.01c0-.007,0-.017,0-.03s-.005-.063-.01-.106a3.146,3.146,0,0,0-.05-.319,1.179,1.179,0,0,0-.112-.324.253.253,0,0,0-.272-.151l.041.18c.008,0,.031-.006.071.063a1.006,1.006,0,0,1,.091.271,2.968,2.968,0,0,1,.047.3c0,.042.008.076.009.1s0,.022,0,.028v.009h0Zm-.236.2-.033.086h.006l.013,0,.044.012a.4.4,0,0,0,.137.01.2.2,0,0,0,.157-.1.319.319,0,0,0,0-.239l-.177.054c.023.074.013.1.012.1h0a.043.043,0,0,1-.015,0,.225.225,0,0,1-.073-.007L6.833,3.7l-.008,0h0Zm.177,1.337.09-.023h0v0l0-.011-.01-.042c-.009-.037-.022-.089-.036-.152-.029-.126-.067-.293-.1-.46a4.169,4.169,0,0,1-.067-.449.575.575,0,0,1,0-.127c0-.013,0-.011,0,0a.066.066,0,0,1-.058.026L6.8,3.689a.119.119,0,0,0-.108.051.192.192,0,0,0-.03.078.738.738,0,0,0,0,.173,4.334,4.334,0,0,0,.07.471c.033.17.071.339.1.467.015.064.028.117.037.154l.011.043,0,.011v0h0Zm.25.217L7.15,5.273h0l0,0-.017.014L7.107,5.3l-.007,0h0l.007,0s0,0-.006-.009a.45.45,0,0,1-.037-.188l-.185.01a.612.612,0,0,0,.062.271.205.205,0,0,0,.074.077.171.171,0,0,0,.1.022.25.25,0,0,0,.129-.051.379.379,0,0,0,.034-.029l.01-.01,0,0h0Zm.185.376.092,0h0v0s0-.009,0-.015,0-.031,0-.053a1.165,1.165,0,0,0-.025-.158.442.442,0,0,0-.073-.168A.189.189,0,0,0,7.3,5.244a.175.175,0,0,0-.121.005l.068.172s0,0-.006,0,0,0,0,0a.272.272,0,0,1,.038.1.983.983,0,0,1,.021.132c0,.019,0,.035,0,.046v.016h0Zm.337-.425-.087-.032h0l0,0-.007.018-.026.063c-.022.052-.052.119-.085.179a.5.5,0,0,1-.089.128c-.012.01-.008,0,.009,0s.031.016.027.009l-.155.1a.152.152,0,0,0,.122.074.174.174,0,0,0,.116-.046A.659.659,0,0,0,7.7,5.61c.037-.068.069-.141.093-.2.012-.028.021-.051.027-.068l.008-.02,0-.005h0Zm.4.282.083-.04h0l0,0-.009-.017c-.007-.014-.018-.034-.032-.057a1.244,1.244,0,0,0-.109-.161.424.424,0,0,0-.17-.136.189.189,0,0,0-.127,0,.22.22,0,0,0-.107.086l.151.106c.011-.016.018-.017.016-.017s0,0,0,0a.257.257,0,0,1,.089.079,1.06,1.06,0,0,1,.092.136c.012.021.021.038.028.05l.007.014,0,0h0Zm.355-.289L8.41,5.236h0l0,0L8.4,5.253,8.374,5.3a1.251,1.251,0,0,1-.088.126.331.331,0,0,1-.087.082c-.009,0-.008,0,0,0s.015.008.012,0l-.149.11a.166.166,0,0,0,.108.069.184.184,0,0,0,.112-.021.5.5,0,0,0,.146-.131,1.436,1.436,0,0,0,.1-.145l.03-.051L8.57,5.33l0,0h0Zm.145.244c.011-.042.022-.085.03-.124a.451.451,0,0,0,.012-.112.155.155,0,0,0-.018-.067.117.117,0,0,0-.078-.058.146.146,0,0,0-.079.007.311.311,0,0,0-.062.032l.1.156a.137.137,0,0,1,.024-.013.049.049,0,0,1-.021,0A.068.068,0,0,1,8.5,5.312c-.006-.011-.005-.017-.005-.013a.3.3,0,0,1-.009.064c-.007.033-.017.071-.028.115Zm-.053.28a1.281,1.281,0,0,1,.053-.28l-.179-.046A1.429,1.429,0,0,0,8.4,5.8Zm-.344.453c.062-.028.115-.053.158-.076a.4.4,0,0,0,.114-.087.42.42,0,0,0,.073-.29H8.4c0,.12-.012.15-.029.17a.219.219,0,0,1-.062.045c-.035.02-.081.041-.145.07Zm-.01,0,.01,0L8.163,6.09l-.01,0ZM7.85,6.1l-.086.035h0l0,0,.005.01a.289.289,0,0,0,.019.031.3.3,0,0,0,.081.08.355.355,0,0,0,.358,0l-.077-.168c-.106.049-.157.026-.179.012a.117.117,0,0,1-.031-.031l-.007-.011v0h0Zm-.5.183.047.08h0l0,0,.013-.008.049-.027c.041-.023.1-.051.152-.078a1.034,1.034,0,0,1,.153-.061.168.168,0,0,1,.04-.007.053.053,0,0,1-.031-.02l.142-.119a.141.141,0,0,0-.11-.047.34.34,0,0,0-.09.014,1.209,1.209,0,0,0-.183.072c-.061.029-.119.06-.162.083l-.052.029L7.31,6.2l0,0h0Zm-.266-.074-.074.056h0l0,0,.006.007.019.02a.357.357,0,0,0,.072.054.315.315,0,0,0,.273.02L7.32,6.2A.131.131,0,0,1,7.2,6.188a.173.173,0,0,1-.034-.026L7.16,6.153v0h0Zm.025.781c0-.246,0-.461.006-.6a.692.692,0,0,1,.016-.135s0,0,0,0a.072.072,0,0,1-.035.028.08.08,0,0,1-.067,0,.063.063,0,0,1-.013-.009l0,0,.147-.113a.134.134,0,0,0-.041-.036.1.1,0,0,0-.089-.006.113.113,0,0,0-.054.046.173.173,0,0,0-.018.04.816.816,0,0,0-.025.181c-.008.149-.008.371-.007.614Zm0,0h0Zm0,0h0Zm0,0h0Zm0,0h0Zm0,0h0Zm0,0h0Zm0,0h0Zm0,0h0Zm0,0h0Zm0,0h0Zm0,0h0Zm0,0h0Zm0,0h0Zm0,0h0Zm0,0h0Zm0,0h0Zm0,0h0Zm0,0h0Zm0,0h0Zm0,0h0Zm0,.256c0-.087,0-.173,0-.256H6.926c0,.083,0,.169,0,.255ZM5.276,8.838a2.735,2.735,0,0,0,1.24-.6,1.445,1.445,0,0,0,.595-.992H6.926A1.273,1.273,0,0,1,6.4,8.1a2.55,2.55,0,0,1-1.152.56ZM3.888,7.83a1.2,1.2,0,0,0,.365.73,1.145,1.145,0,0,0,1.023.278l-.032-.182a.961.961,0,0,1-.864-.23,1.012,1.012,0,0,1-.308-.612Zm.837-.783c0,.013,0,.025,0,.035a.161.161,0,0,0,.008.036.1.1,0,0,0,.009.018.1.1,0,0,0,.031.031A.094.094,0,0,0,4.9,7.149a.1.1,0,0,0,.019-.032.15.15,0,0,0,0-.016,1.24,1.24,0,0,0,.019-.144l-.184-.018c-.006.065-.011.1-.014.117v0a.082.082,0,0,1,.015-.025A.09.09,0,0,1,4.8,7a.092.092,0,0,1,.074.009.09.09,0,0,1,.03.029.084.084,0,0,1,.007.015c0,.008,0,.013,0,.006s0-.012,0-.024Zm.062-.17a.2.2,0,0,0-.062.17l.185-.011a.07.07,0,0,1,0-.024v0l0,0ZM4.538,5.643l.021-.09H4.552l-.014,0-.045,0a.626.626,0,0,0-.153.016,1.143,1.143,0,0,0-.5.274l.122.139a.961.961,0,0,1,.414-.233.442.442,0,0,1,.107-.012l.024,0h0Zm.254.049a.489.489,0,0,0-.165-.121.29.29,0,0,0-.058-.018l-.02,0H4.538s0,0,0,.092,0,.092,0,.092h0a.108.108,0,0,1,.021.007.307.307,0,0,1,.1.077Zm-.543.564a1.432,1.432,0,0,0,.409-.2A.554.554,0,0,0,4.8,5.9a.2.2,0,0,0,.032-.1.157.157,0,0,0-.044-.112l-.135.127A.028.028,0,0,1,4.651,5.8s0,0-.005.009a.383.383,0,0,1-.1.093,1.249,1.249,0,0,1-.352.176Zm-.538.238a3.655,3.655,0,0,1,.538-.238L4.2,6.078a3.8,3.8,0,0,0-.568.25Zm0,0h0l-.086-.164h0Zm-.268.131c.085-.039.176-.085.267-.13l-.083-.165c-.092.046-.179.09-.261.127Zm.4-.788a5.08,5.08,0,0,0-.5.494,1.143,1.143,0,0,0-.073.1.278.278,0,0,0-.044.092.115.115,0,0,0,.013.084.108.108,0,0,0,.085.05.169.169,0,0,0,.06-.008.4.4,0,0,0,.053-.021l-.077-.168-.028.011c-.007,0,0,0,.006,0A.077.077,0,0,1,3.4,6.5a.071.071,0,0,1,.01.05s0,0,.016-.027a.963.963,0,0,1,.061-.08,4.9,4.9,0,0,1,.476-.473Zm-.6,2.391a1.192,1.192,0,0,1,.122-.579c.04-.094.082-.177.114-.237.016-.03.029-.053.039-.07l.011-.018,0,0h0L3.452,7.27l-.079-.048h0v0l0,.005-.012.02c-.01.018-.025.043-.042.075-.034.063-.078.151-.121.252a1.361,1.361,0,0,0-.135.679Zm.363.345a.257.257,0,0,1-.2-.039.43.43,0,0,1-.159-.307l-.183.028a.611.611,0,0,0,.237.43.441.441,0,0,0,.352.066Zm.264-.331-.091-.018h0v0l0,.011c0,.01-.006.024-.01.041a1.161,1.161,0,0,1-.041.125.559.559,0,0,1-.064.122.113.113,0,0,1-.055.048l.043.18a.29.29,0,0,0,.161-.118A.74.74,0,0,0,3.9,8.472a1.346,1.346,0,0,0,.048-.146c.005-.019.009-.036.012-.047l0-.014v0h0Zm-.174-.058c.017-.018.018-.01.008-.012a.074.074,0,0,1,.024.02.317.317,0,0,1,.041.057l.012.023,0,.006h0l.085-.037L3.953,8.2h0v0l0-.01-.017-.033a.5.5,0,0,0-.066-.092.234.234,0,0,0-.13-.076.192.192,0,0,0-.175.07Zm-.33-.232a.291.291,0,0,0,.02.186.174.174,0,0,0,.125.089.265.265,0,0,0,.105,0l.032-.009.01,0h0l-.036-.085L3.59,8.036h0l-.014,0a.084.084,0,0,1-.03,0s0,0,0,0l0,0h0a.129.129,0,0,1,0-.069Zm.088-.681-.092.009h0V7.3c0,.013,0,.031,0,.053,0,.045.007.108.01.179a2.388,2.388,0,0,1-.012.421l.183.029a2.552,2.552,0,0,0,.014-.458c0-.073-.007-.138-.011-.185,0-.023,0-.042,0-.056V7.263h0Zm2.4-1.316c-.008-.007-.008-.01-.006-.006a.033.033,0,0,1,0,.019c0,.009-.005.005.012-.007a.276.276,0,0,1,.052-.028l.021-.008.006,0h0l-.028-.088-.028-.088h0l-.009,0-.031.012a.459.459,0,0,0-.088.049.205.205,0,0,0-.083.112.17.17,0,0,0,.059.167Zm.152.068c0,.007,0,0,.005,0s0,0-.019,0a.234.234,0,0,1-.139-.065l-.126.135a.416.416,0,0,0,.26.115.212.212,0,0,0,.136-.039.175.175,0,0,0,.067-.143Zm-.094-.189-.029.088h0l.016.007a.34.34,0,0,1,.05.028c.04.027.052.051.052.066h.185A.272.272,0,0,0,6.058,5.8.525.525,0,0,0,5.98,5.76l-.026-.011-.008,0h0Zm5.133-.25a.12.12,0,0,1-.1-.034.242.242,0,0,1-.055-.1.591.591,0,0,1-.02-.126c0-.018,0-.032,0-.043s0-.009,0-.011v0h0l-.092-.005-.092-.005h0v0s0,.009,0,.016,0,.032,0,.055a.775.775,0,0,0,.027.167.424.424,0,0,0,.1.185.3.3,0,0,0,.234.088Zm.352-.256a.079.079,0,0,1-.061-.026.065.065,0,0,1-.016-.029c0-.005,0,0,0,.014a.409.409,0,0,1-.044.12.291.291,0,0,1-.229.176l.006.185a.474.474,0,0,0,.386-.274.591.591,0,0,0,.063-.178.227.227,0,0,0,0-.083.121.121,0,0,0-.028-.055.106.106,0,0,0-.082-.034Zm-.052.006c0-.007,0-.006,0,0s-.005.005,0,0a.069.069,0,0,1,.019-.005l.038,0-.006-.185a.321.321,0,0,0-.138.03.173.173,0,0,0-.069.066.186.186,0,0,0-.024.1Zm-.265.075a.192.192,0,0,0,.01.057.118.118,0,0,0,.048.062.108.108,0,0,0,.09.011.131.131,0,0,0,.051-.031.239.239,0,0,0,.067-.175l-.185.006a.063.063,0,0,1,0,.024c0,.009-.007.012,0,.009a.055.055,0,0,1,.021-.012.077.077,0,0,1,.063.009.067.067,0,0,1,.028.033s0,.005,0,0Zm.018-.071a.036.036,0,0,1-.02-.007c-.008-.006-.01-.011-.008-.008a.122.122,0,0,1,.006.028.574.574,0,0,1,0,.058l.185-.006a.446.446,0,0,0-.025-.151.163.163,0,0,0-.055-.071.15.15,0,0,0-.094-.027Zm.051-.014c0-.008,0-.013,0-.018s0-.006,0,0a.051.051,0,0,1-.014.02.064.064,0,0,1-.019.012.06.06,0,0,1-.02,0l-.006-.185a.122.122,0,0,0-.079.032.135.135,0,0,0-.036.055.269.269,0,0,0-.012.073Zm-.176.086a.109.109,0,0,0,.066.032.1.1,0,0,0,.068-.019.1.1,0,0,0,.03-.038.131.131,0,0,0,.01-.039c0-.008,0-.016,0-.022l-.185-.012c0,.007,0,.01,0,.012a.06.06,0,0,1,.005-.016.085.085,0,0,1,.026-.032.088.088,0,0,1,.062-.018.083.083,0,0,1,.037.012l.01.008Zm-.045-.094a.322.322,0,0,0,.011.038.148.148,0,0,0,.035.056l.13-.132a.041.041,0,0,1,.009.013v0l0-.012ZM10.913,5.3a.065.065,0,0,1,.02,0h0l-.005,0s0-.005,0,0l0,.007,0,.013.18-.041a.214.214,0,0,0-.046-.1.191.191,0,0,0-.155-.056Zm-.131-.047.092,0h0s0,0,0,0v0a.081.081,0,0,1,0,.009.074.074,0,0,1-.006.018.055.055,0,0,1-.018.022.243.243,0,0,1,.063-.008l-.006-.185a.3.3,0,0,0-.161.04.13.13,0,0,0-.045.051.111.111,0,0,0-.009.028.105.105,0,0,0,0,.012s0,0,0,.005,0,0,0,0h0Zm3.147-1.034-.092-.005h0a0,0,0,0,0,0,0s0,0,0,0,0,.009,0,.016,0,.032,0,.055a.771.771,0,0,0,.027.167.423.423,0,0,0,.1.185.3.3,0,0,0,.234.088l-.006-.185a.12.12,0,0,1-.1-.034.243.243,0,0,1-.055-.1.592.592,0,0,1-.02-.126c0-.018,0-.032,0-.043s0-.009,0-.011v0h0Zm.124-.138a.3.3,0,0,0-.161.04.13.13,0,0,0-.045.051.115.115,0,0,0-.009.028.116.116,0,0,0,0,.012s0,0,0,.005v0h0l.092,0,.092,0h0v.007a.084.084,0,0,1,0,.009.078.078,0,0,1-.006.018A.057.057,0,0,1,14,4.277a.241.241,0,0,1,.063-.008Zm.2.156a.214.214,0,0,0-.046-.1.191.191,0,0,0-.155-.056l.007.185a.065.065,0,0,1,.02,0h0l-.005,0s0-.005,0,0l0,.007,0,.013Zm-.005,0a.041.041,0,0,1,.009.013v0l0-.012-.18.041a.3.3,0,0,0,.011.038.149.149,0,0,0,.035.056Zm-.138.034c0,.007,0,.01,0,.012a.055.055,0,0,1,.005-.016.085.085,0,0,1,.026-.032.088.088,0,0,1,.062-.018.083.083,0,0,1,.037.012l.01.008-.13.132a.109.109,0,0,0,.066.032.1.1,0,0,0,.068-.019.1.1,0,0,0,.03-.038.128.128,0,0,0,.01-.039c0-.008,0-.016,0-.022Zm.127-.16a.122.122,0,0,0-.079.032.135.135,0,0,0-.036.055.269.269,0,0,0-.012.073l.185.012c0-.008,0-.013,0-.018s0-.006,0,0a.049.049,0,0,1-.014.02.064.064,0,0,1-.019.012.059.059,0,0,1-.02,0Zm.174.249a.446.446,0,0,0-.025-.151.163.163,0,0,0-.055-.071.151.151,0,0,0-.094-.027l.006.185a.036.036,0,0,1-.02-.007c-.008-.006-.01-.011-.008-.008a.121.121,0,0,1,.006.028c0,.015,0,.034,0,.058Zm-.1-.062a.062.062,0,0,1,0,.024c0,.009-.007.012,0,.009a.056.056,0,0,1,.022-.012.077.077,0,0,1,.063.009.067.067,0,0,1,.028.033s0,.005,0,0l-.185.006a.192.192,0,0,0,.01.057.118.118,0,0,0,.048.062.108.108,0,0,0,.09.011.132.132,0,0,0,.051-.031.239.239,0,0,0,.067-.175Zm.231-.2a.32.32,0,0,0-.137.03.172.172,0,0,0-.069.066.186.186,0,0,0-.024.1l.185-.006c0-.007,0-.006,0,0s-.005.005,0,0a.07.07,0,0,1,.019-.005l.038,0Zm-.339.625a.473.473,0,0,0,.386-.274.592.592,0,0,0,.063-.178.228.228,0,0,0,0-.083.121.121,0,0,0-.028-.055.106.106,0,0,0-.082-.034l.006.185a.08.08,0,0,1-.061-.026.066.066,0,0,1-.016-.029c0-.005,0,0,0,.014a.411.411,0,0,1-.044.12.292.292,0,0,1-.229.176ZM7.421,6.526a.645.645,0,0,0-.081.085A.2.2,0,0,0,7.3,6.72a.16.16,0,0,0,.047.119.372.372,0,0,0,.1.069l.087-.163a.2.2,0,0,1-.049-.033s0,0,0,.017,0,.008.007-.007a.474.474,0,0,1,.057-.059Zm.543.242a1.285,1.285,0,0,0-.233-.243.3.3,0,0,0-.147-.059.214.214,0,0,0-.163.059l.125.137c.013-.012.02-.012.025-.011a.121.121,0,0,1,.055.026,1.129,1.129,0,0,1,.2.207Zm-.018.495a.645.645,0,0,0,.1-.21.337.337,0,0,0-.078-.285l-.145.115a.154.154,0,0,1,.041.134.48.48,0,0,1-.072.148Zm-.035.059c.01-.018.022-.037.035-.059l-.157-.1c-.013.021-.027.044-.04.067Zm-.352-.1a.149.149,0,0,0-.013.163.156.156,0,0,0,.127.07.261.261,0,0,0,.238-.137l-.162-.089a.077.077,0,0,1-.065.042c-.01,0,.007,0,.02.019s0,.048.008.036Zm-.12-.318a.3.3,0,0,1,.11.16.351.351,0,0,1,.02.105.1.1,0,0,1-.01.053l.153.1a.276.276,0,0,0,.042-.159.535.535,0,0,0-.03-.162.472.472,0,0,0-.2-.264Zm9.873-.555a.2.2,0,0,1-.049-.033s0,0,0,.017,0,.008.007-.007a.472.472,0,0,1,.057-.059l-.125-.137a.653.653,0,0,0-.081.085.2.2,0,0,0-.044.109.16.16,0,0,0,.047.119.374.374,0,0,0,.1.069Zm.033.61a.665.665,0,0,0,.093-.3.47.47,0,0,0-.014-.169.234.234,0,0,0-.112-.144l-.087.163s.014.01.021.034a.286.286,0,0,1,.007.1.488.488,0,0,1-.062.207Zm.045,0a.024.024,0,0,1-.006.008h0a.037.037,0,0,1-.022,0l-.011-.008,0,0a.012.012,0,0,1,0,.006s0,0,0,0l-.153-.1a.172.172,0,0,0-.018.166.212.212,0,0,0,.1.1.22.22,0,0,0,.145.022.2.2,0,0,0,.135-.1Zm.013-.023-.013.023.162.089.013-.023Zm.086-.427a.527.527,0,0,1-.086.427l.162.09a.707.707,0,0,0,.1-.563Zm-.159-.24a.047.047,0,0,1,.015-.01h0s.013,0,.032.021a.527.527,0,0,1,.109.229l.179-.046a.7.7,0,0,0-.157-.314.241.241,0,0,0-.143-.075.206.206,0,0,0-.163.058ZM18.9,3.4a.644.644,0,0,0-.081.085.2.2,0,0,0-.044.109.16.16,0,0,0,.047.119.371.371,0,0,0,.1.069l.087-.163a.205.205,0,0,1-.049-.033s0,0,0,.017,0,.008.007-.007a.481.481,0,0,1,.057-.059Zm.463.331a.7.7,0,0,0-.157-.314.241.241,0,0,0-.143-.075A.206.206,0,0,0,18.9,3.4l.125.137a.049.049,0,0,1,.015-.01h0s.013,0,.032.021a.527.527,0,0,1,.109.229Zm-.1.563a.707.707,0,0,0,.1-.563l-.179.046A.527.527,0,0,1,19.1,4.2Zm-.013.023.013-.023L19.1,4.2l-.013.023Zm-.36-.191a.172.172,0,0,0-.018.166.212.212,0,0,0,.1.1.221.221,0,0,0,.145.022.2.2,0,0,0,.135-.1l-.162-.089a.024.024,0,0,1-.006.008h0a.037.037,0,0,1-.022,0l-.011-.008,0,0a.012.012,0,0,1,0,.006s0,0,0,0Zm.033-.343s.014.01.021.034a.289.289,0,0,1,.007.1.49.49,0,0,1-.062.207l.153.1a.667.667,0,0,0,.093-.3.473.473,0,0,0-.015-.169.234.234,0,0,0-.112-.144Zm-4.97-.794a.205.205,0,0,1-.049-.033s0,0,0,.017,0,.008.007-.007a.48.48,0,0,1,.057-.059l-.125-.137a.644.644,0,0,0-.081.085.2.2,0,0,0-.044.109.16.16,0,0,0,.047.119.371.371,0,0,0,.1.069Zm.248.761a.212.212,0,0,0,.033-.1.464.464,0,0,0,0-.1,1.025,1.025,0,0,0-.051-.214,1.113,1.113,0,0,0-.093-.2.39.39,0,0,0-.136-.147l-.087.163a.234.234,0,0,1,.064.079A.935.935,0,0,1,14,3.4a.84.84,0,0,1,.042.174.292.292,0,0,1,0,.058c0,.015,0,.017,0,.013Zm.036-.1a.077.077,0,0,1-.065.042c-.01,0,.007,0,.02.019s0,.048.008.036l-.153-.1a.149.149,0,0,0-.013.163.156.156,0,0,0,.127.07.261.261,0,0,0,.238-.137Zm.009-.526A.383.383,0,0,1,14.3,3.4a.691.691,0,0,1-.07.257l.162.089a.874.874,0,0,0,.092-.332.564.564,0,0,0-.1-.4Zm-.274-.221c.013-.012.02-.012.025-.011a.12.12,0,0,1,.055.026,1.129,1.129,0,0,1,.2.207l.145-.115a1.284,1.284,0,0,0-.233-.243.3.3,0,0,0-.147-.059.214.214,0,0,0-.163.059ZM12.053,5.574c-.016-.011.006,0,.007.029s-.02.045-.009.035a.32.32,0,0,1,.055-.032c.029-.014.063-.03.1-.049l-.076-.168c-.041.018-.079.036-.112.052a.492.492,0,0,0-.089.055.144.144,0,0,0-.058.117.151.151,0,0,0,.072.114Zm.146.076a.053.053,0,0,1,.025-.046.129.129,0,0,1-.043,0,.273.273,0,0,1-.128-.034l-.105.152a.45.45,0,0,0,.228.066.3.3,0,0,0,.117-.017.136.136,0,0,0,.092-.126Zm0-.051c0,.015,0,.034,0,.051h.185c0-.007,0-.018,0-.036Zm.009-.042a.132.132,0,0,1,.026-.009s0,0,0,0a.045.045,0,0,1-.021-.01.038.038,0,0,1-.011-.013s0,0,0,0a.13.13,0,0,1,0,.017c0,.016,0,.034,0,.056l.184.015c0-.02,0-.047,0-.073a.239.239,0,0,0-.018-.093.14.14,0,0,0-.105-.083.227.227,0,0,0-.132.024ZM10.9,6.915l-.02-.09h0l-.016,0-.062.01a1.551,1.551,0,0,1-.21.015v.185a1.738,1.738,0,0,0,.235-.016l.071-.011.02,0h.008Zm.428-.061c-.09,0-.194-.008-.276-.015l-.1-.011-.029,0h-.01l-.012.092-.012.092H10.9l.03,0,.1.011c.084.008.195.016.293.016Zm-.03.449a.591.591,0,0,0,.156-.1.282.282,0,0,0,.084-.134.158.158,0,0,0-.049-.16.242.242,0,0,0-.161-.05v.185a.142.142,0,0,1,.04.005.03.03,0,0,1-.009-.014.023.023,0,0,1,0-.008.109.109,0,0,1-.032.043.408.408,0,0,1-.107.071Zm-.195.225a.294.294,0,0,1,.04-.121.4.4,0,0,1,.155-.1l-.079-.167a.564.564,0,0,0-.225.162.463.463,0,0,0-.072.192Zm-.008.037.008-.036-.181-.038-.008.036Zm-.346.277a.3.3,0,0,0,.147.014.194.194,0,0,0,.117-.071.326.326,0,0,0,.053-.107c.011-.036.02-.075.028-.113l-.181-.039c-.009.039-.016.071-.024.1a.151.151,0,0,1-.021.047s0,0-.007.005a.128.128,0,0,1-.057-.009Zm-.454-.7a3.931,3.931,0,0,0,.173.388,1.157,1.157,0,0,0,.12.185.361.361,0,0,0,.161.122l.055-.176a.19.19,0,0,1-.074-.063.977.977,0,0,1-.1-.155,3.763,3.763,0,0,1-.164-.369Zm-.012-.031.012.031.172-.069-.012-.031Zm.209-.266a.813.813,0,0,0-.085,0,.176.176,0,0,0-.1.031A.138.138,0,0,0,10.25,7a.376.376,0,0,0,.031.117l.172-.069a.376.376,0,0,1-.014-.04.088.088,0,0,1,0-.017.036.036,0,0,1,0,.011.055.055,0,0,1-.007.013.056.056,0,0,1-.011.011.039.039,0,0,1-.013.007h.036l.038,0Zm.094,0c-.033,0-.064,0-.094,0l-.014.184c.03,0,.068.005.108.005ZM8.465,2.793a.068.068,0,0,1,.015.034.385.385,0,0,1,.006.125.5.5,0,0,1-.026.122.12.12,0,0,1-.011.024.063.063,0,0,1,.05-.02v.185a.125.125,0,0,0,.1-.056.289.289,0,0,0,.035-.069.686.686,0,0,0,.036-.169.565.565,0,0,0-.011-.188.222.222,0,0,0-.126-.159Zm-.4.072s0,0,0,0a.04.04,0,0,1,.011-.012.3.3,0,0,1,.11-.05.692.692,0,0,1,.161-.023.327.327,0,0,1,.114.013l.068-.172A.5.5,0,0,0,8.348,2.6a.877.877,0,0,0-.206.029.475.475,0,0,0-.182.088.192.192,0,0,0-.067.206Zm.085.143a.569.569,0,0,1-.085-.143l-.177.053a.723.723,0,0,0,.112.2Zm.059.484a.3.3,0,0,0,.068-.139.287.287,0,0,0-.01-.137.767.767,0,0,0-.118-.208L8,3.116a.608.608,0,0,1,.091.155.1.1,0,0,1,0,.05.112.112,0,0,1-.028.052Zm-.76.678a1.672,1.672,0,0,0,.136-.1c.061-.05.136-.113.214-.181a4.614,4.614,0,0,0,.41-.393l-.141-.12a4.478,4.478,0,0,1-.39.373c-.076.067-.15.129-.209.177s-.1.081-.116.089Zm-.034.02.033-.02-.1-.159-.033.02Zm-.206,0c-.014,0-.01,0,0,0a.073.073,0,0,1,.03.024.081.081,0,0,1,.016.051.06.06,0,0,1-.011.034l.014-.013a1.465,1.465,0,0,1,.157-.1l-.094-.159a1.6,1.6,0,0,0-.18.118.294.294,0,0,0-.039.038.129.129,0,0,0-.032.075.1.1,0,0,0,.02.067.112.112,0,0,0,.046.036.186.186,0,0,0,.073.013Zm.178.008c-.061,0-.125-.008-.178-.008v.185c.045,0,.1,0,.165.008Zm.005,0h0l-.023.184h0Zm.32,0a.454.454,0,0,1-.131.013c-.06,0-.127,0-.195-.009l-.013.185c.066,0,.139.009.207.01a.618.618,0,0,0,.191-.023Zm.218-.225c-.052.061-.1.117-.142.16a.6.6,0,0,1-.053.05L7.723,4.2l-.006,0,.059.175a.271.271,0,0,0,.08-.046.777.777,0,0,0,.071-.065c.047-.048.1-.109.15-.169Zm.317-.323a2.052,2.052,0,0,0-.317.323l.141.12A1.917,1.917,0,0,1,8.36,3.8Zm.183-.3a.053.053,0,0,1-.016-.024.092.092,0,0,1,0,.02.355.355,0,0,1-.019.094.421.421,0,0,1-.15.213L8.36,3.8a.606.606,0,0,0,.219-.306.537.537,0,0,0,.028-.145.269.269,0,0,0,0-.064.138.138,0,0,0-.039-.073Zm-.045-.019.041.018.009,0,0,0,.126-.135a.205.205,0,0,0-.051-.033l-.049-.021Zm-.225-.307a.166.166,0,0,0,0,.136.221.221,0,0,0,.071.087.728.728,0,0,0,.158.084l.072-.17a.571.571,0,0,1-.117-.06.1.1,0,0,1-.013-.012.023.023,0,0,1,0,.013Zm.28.039a.185.185,0,0,0-.016-.073.148.148,0,0,0-.063-.071A.118.118,0,0,0,8.3,2.9a.128.128,0,0,0-.063.025.24.24,0,0,0-.069.094l.168.077c.012-.026.018-.028.011-.023a.058.058,0,0,1-.028.01.067.067,0,0,1-.038-.007.052.052,0,0,1-.016-.013l0,0h0a.022.022,0,0,1,0,0Zm.054.017a.047.047,0,0,1-.016,0,.116.116,0,0,1-.026-.015.079.079,0,0,1-.016-.016s0,0,0,0a.046.046,0,0,1,0,.017H8.26a.156.156,0,0,0,.03.089.279.279,0,0,0,.209.114ZM8.269,4.666l.152-.055-.063-.174-.152.055ZM8.03,4.5a.235.235,0,0,0,.117.149.218.218,0,0,0,.059.02l.02,0h.011s0,0,0-.092,0-.092,0-.092h0l-.009,0s-.016-.009-.024-.036Zm.027-.209a.71.71,0,0,0-.028.089.244.244,0,0,0,0,.12l.178-.052a.07.07,0,0,1,0-.029.539.539,0,0,1,.021-.066Zm.062.007a.063.063,0,0,1-.042-.037.052.052,0,0,1,0-.018s0,0,0,.009-.007.023-.013.04l.174.063c.006-.015.012-.034.017-.052a.215.215,0,0,0,.01-.066.124.124,0,0,0-.045-.094.146.146,0,0,0-.094-.03Zm-.16.257a.858.858,0,0,1,.084-.184.257.257,0,0,1,.051-.06A.044.044,0,0,1,8.119,4.3V4.111a.225.225,0,0,0-.141.054.438.438,0,0,0-.09.1,1.04,1.04,0,0,0-.1.226Zm.209.223a.8.8,0,0,1-.158-.128.252.252,0,0,1-.046-.067.041.041,0,0,1,0-.028l-.175-.059a.222.222,0,0,0,.01.159.433.433,0,0,0,.08.119.985.985,0,0,0,.2.16Zm.225-.165a1.047,1.047,0,0,1-.158.144c-.05.033-.064.023-.067.021l-.1.157a.24.24,0,0,0,.267-.023,1.207,1.207,0,0,0,.189-.17Zm0-.087-.018.091h0l.012,0a.1.1,0,0,1,.024.012A.042.042,0,0,1,8.4,4.609c0-.017.009-.018-.01,0l.133.128A.19.19,0,0,0,8.587,4.6a.157.157,0,0,0-.066-.114.277.277,0,0,0-.075-.039L8.42,4.436l-.008,0h0Zm7.035,2.644a1.563,1.563,0,0,0-.143.53.75.75,0,0,0,.1.5l.148-.11a.578.578,0,0,1-.063-.373,1.379,1.379,0,0,1,.125-.464Zm.271.167c0-.055,0-.106,0-.147,0-.021,0-.041,0-.058a.23.23,0,0,0-.012-.057.1.1,0,0,0-.155-.055.14.14,0,0,0-.029.025.574.574,0,0,0-.075.126l.166.081c.013-.026.023-.046.032-.06l.01-.016,0,0h0l0,0-.008.006a.079.079,0,0,1-.046.011.083.083,0,0,1-.056-.026.067.067,0,0,1-.014-.022s0,0,0,.009,0,.024,0,.043c0,.037,0,.084,0,.14Zm0,.21c0-.074,0-.145,0-.21l-.185-.006c0,.064,0,.138,0,.216Zm.167.427a.74.74,0,0,1-.123-.17.593.593,0,0,1-.045-.257h-.185a.771.771,0,0,0,.062.335.911.911,0,0,0,.15.213Zm0,0h0l-.144.116h0Zm.092.111c-.034-.044-.066-.081-.094-.114l-.14.121c.028.033.057.067.087.106Zm.121-.066a.162.162,0,0,1-.015.062.13.13,0,0,1-.034.048c-.009.007-.013.006-.014.006s-.026-.008-.057-.05l-.147.113a.294.294,0,0,0,.164.117.2.2,0,0,0,.168-.04.312.312,0,0,0,.09-.119.345.345,0,0,0,.031-.137Zm.5-.969a2.508,2.508,0,0,0-.328.509c-.048.094-.09.186-.121.263-.015.039-.028.075-.037.106a.348.348,0,0,0-.016.091h.185a.073.073,0,0,1,0-.011c0-.007,0-.017.007-.029s.017-.054.031-.089c.028-.07.067-.157.113-.247a2.337,2.337,0,0,1,.3-.467Zm.526.063a.225.225,0,0,0-.178-.2.362.362,0,0,0-.348.14l.136.126c.085-.092.144-.092.168-.086s.037.033.037.023Zm.352.343a.568.568,0,0,1-.249-.179.69.69,0,0,1-.08-.113.3.3,0,0,1-.019-.041c0-.012,0-.014,0-.009h-.185a.216.216,0,0,0,.014.072.467.467,0,0,0,.031.067.88.88,0,0,0,.1.145.748.748,0,0,0,.338.236Zm.28-.429-.092-.013h0v0l0,.017c0,.015-.006.036-.012.062a1.459,1.459,0,0,1-.049.181.5.5,0,0,1-.077.151c-.026.03-.038.028-.047.025l-.051.178a.225.225,0,0,0,.238-.082.669.669,0,0,0,.112-.211,1.615,1.615,0,0,0,.056-.205c.006-.028.01-.052.013-.069l0-.02V7.04h0ZM17.64,5.268V7.027h.185V5.268Zm-.2-.618a.367.367,0,0,1,.13.151,1.145,1.145,0,0,1,.069.467h.185a1.319,1.319,0,0,0-.085-.544.546.546,0,0,0-.185-.22Zm-.082-.072a.64.64,0,0,0,.082.072l.113-.146a.473.473,0,0,1-.059-.051Zm-.177-.172c.079.075.144.136.177.172l.136-.125c-.039-.043-.109-.109-.186-.181Zm0,0h0l.128-.134h0Zm-.465-.486a1.946,1.946,0,0,0,.209.238c.084.085.177.173.257.248l.127-.134c-.081-.076-.171-.162-.252-.244a1.772,1.772,0,0,1-.188-.213Zm-.115-.8a4.274,4.274,0,0,0,.008.433.774.774,0,0,0,.107.363l.153-.1a.6.6,0,0,1-.075-.276c-.011-.124-.01-.265-.008-.414Zm0,0Zm0,0h0Zm0,0h0Zm0-.164c0,.053,0,.108,0,.163l.185,0c0-.055,0-.11,0-.165Zm.761.3a1.75,1.75,0,0,0-.359-.4.728.728,0,0,0-.11-.074.282.282,0,0,0-.121-.036.154.154,0,0,0-.134.066.251.251,0,0,0-.037.145h.185a.154.154,0,0,1,0-.039.033.033,0,0,1-.013.01.025.025,0,0,1-.01,0,.114.114,0,0,1,.04.015A.547.547,0,0,1,16.89,3a1.579,1.579,0,0,1,.314.348Zm.037.369a.6.6,0,0,0,.026-.163.41.41,0,0,0-.063-.206l-.159.094a.228.228,0,0,1,.037.115.428.428,0,0,1-.02.114Zm-.024.15a.57.57,0,0,1,.024-.15l-.179-.046a.745.745,0,0,0-.03.2Zm-.041,0a.074.074,0,0,1-.008.038c0,.006,0,0,.015,0a.048.048,0,0,1,.028,0,.034.034,0,0,1,.014.011.058.058,0,0,1,0-.01.169.169,0,0,1,0-.039h-.185a.271.271,0,0,0,.038.151.142.142,0,0,0,.14.065.167.167,0,0,0,.113-.08.256.256,0,0,0,.037-.136Zm-.006-.11c0,.051.006.088.006.11h.185c0-.03,0-.075-.007-.123Zm0,0h0l.185-.009h0Zm.176-.789a.263.263,0,0,0-.141.157.76.76,0,0,0-.043.211,2.947,2.947,0,0,0,.008.423l.184-.013a2.776,2.776,0,0,1-.008-.4.586.586,0,0,1,.031-.158c.016-.04.031-.05.038-.053Zm.4.3c-.022-.057-.042-.108-.061-.15a.433.433,0,0,0-.07-.114.193.193,0,0,0-.125-.064.3.3,0,0,0-.139.026l.069.172a.125.125,0,0,1,.051-.013h0l.006.005a.266.266,0,0,1,.038.066c.016.036.034.081.056.14Zm.095.234c-.039-.09-.069-.168-.095-.234l-.173.067c.026.067.057.148.1.241Zm.05.587a.893.893,0,0,0,.036-.247.9.9,0,0,0-.086-.34l-.17.073a.719.719,0,0,1,.071.27.721.721,0,0,1-.03.2ZM18,4.3a1.122,1.122,0,0,1,.043-.3l-.18-.044a1.307,1.307,0,0,0-.048.342Zm.326.638a2.227,2.227,0,0,1-.218-.295A.685.685,0,0,1,18,4.3h-.185a.869.869,0,0,0,.133.436,2.408,2.408,0,0,0,.236.32Zm.122.159a1.411,1.411,0,0,0-.122-.159l-.142.118a1.281,1.281,0,0,1,.1.135Zm-.4-1.121a1.118,1.118,0,0,1,.1.28c.037.134.071.291.1.437s.045.279.051.364c0,.021,0,.038,0,.051a.157.157,0,0,1,0,.019V5.118A.072.072,0,0,1,18.31,5.1a.087.087,0,0,1,.074-.042.084.084,0,0,1,.06.024.043.043,0,0,1,.006.008l-.159.094a.146.146,0,0,0,.022.029.1.1,0,0,0,.073.031.1.1,0,0,0,.083-.048.121.121,0,0,0,.015-.039.5.5,0,0,0,0-.12c-.007-.094-.027-.234-.054-.383s-.062-.312-.1-.453a1.241,1.241,0,0,0-.131-.336Zm.161-1.15a1.279,1.279,0,0,0-.242.585.812.812,0,0,0,.081.565l.152-.105a.641.641,0,0,1-.05-.432,1.1,1.1,0,0,1,.2-.5Zm.551.349c-.027-.067-.056-.137-.085-.2a.807.807,0,0,0-.1-.17.227.227,0,0,0-.173-.092.255.255,0,0,0-.19.112l.144.116c.037-.046.053-.043.048-.043s0,0,.029.026a.632.632,0,0,1,.077.13c.027.057.054.122.081.19Zm.1.233c-.034-.064-.067-.145-.1-.233l-.171.07c.035.085.072.176.111.25Zm-.107.63a.871.871,0,0,0,.146-.252.468.468,0,0,0-.04-.378l-.163.087a.284.284,0,0,1,.027.234.7.7,0,0,1-.118.2Zm-.048.067c.012-.019.028-.04.048-.067l-.147-.112c-.019.025-.04.053-.057.079Zm.041.168a.872.872,0,0,1-.043-.129c-.005-.028,0-.036,0-.039L18.551,4a.23.23,0,0,0-.027.173,1.008,1.008,0,0,0,.051.16Zm.124.607a1.6,1.6,0,0,0-.124-.607l-.173.065a1.421,1.421,0,0,1,.112.542Zm.462,1.307a2.276,2.276,0,0,1-.462-1.307h-.185a2.46,2.46,0,0,0,.5,1.417Zm.408,1.276a2.673,2.673,0,0,0-.408-1.276l-.149.109a2.5,2.5,0,0,1,.374,1.193Zm.01.071-.01-.071-.183.026.01.071ZM19.569,6.25a10.136,10.136,0,0,1,.049,1.033,2.891,2.891,0,0,1-.012.318c0,.015,0,.009,0,0a.084.084,0,0,1,.018-.023.09.09,0,0,1,.118,0,.08.08,0,0,1,.016.019c.005.009,0,.013,0,0s-.006-.033-.01-.06l-.183.026c0,.03.008.054.013.074a.206.206,0,0,0,.021.059.1.1,0,0,0,.021.025.1.1,0,0,0,.127,0,.1.1,0,0,0,.022-.028.182.182,0,0,0,.017-.058,2.963,2.963,0,0,0,.014-.346,10.333,10.333,0,0,0-.05-1.055Zm-.2-3.225a3.818,3.818,0,0,0-.018.662c.009.281.031.611.058.941.054.661.127,1.327.161,1.623l.184-.021c-.034-.294-.108-.959-.161-1.616-.027-.329-.048-.655-.057-.932a3.689,3.689,0,0,1,.015-.625Zm.4.019c-.024-.057-.047-.114-.069-.159a.572.572,0,0,0-.036-.064.205.205,0,0,0-.053-.056.118.118,0,0,0-.117-.012.15.15,0,0,0-.068.07.743.743,0,0,0-.055.2l.182.031c.007-.042.014-.075.021-.1a.259.259,0,0,1,.016-.047s0,0,0,0a.054.054,0,0,1-.019.014.071.071,0,0,1-.04.005.061.061,0,0,1-.025-.009c-.006,0,0,0,0,.006a.405.405,0,0,1,.024.043c.019.039.04.089.064.148Zm0,0h0l-.167.079h0Zm.175.355a1.9,1.9,0,0,1-.173-.351l-.171.071a2.047,2.047,0,0,0,.194.387Zm.044.061-.044-.061-.15.108.044.061Zm.082.514a.322.322,0,0,0,.074-.246.39.39,0,0,0-.055-.123c-.025-.04-.059-.088-.1-.145l-.15.108c.043.059.073.1.094.136a.221.221,0,0,1,.031.063c0,.011,0,.024-.049.108Zm-.246.108a.21.21,0,0,0,.112,0,.239.239,0,0,0,.134-.111l-.156-.1c-.021.033-.032.033-.028.032l-.017,0Zm.063-.026c0-.008,0-.014,0-.018V4.029a.042.042,0,0,1,0,.009.068.068,0,0,1-.018.021.071.071,0,0,1-.048.016h0l.008,0,.046-.179a.216.216,0,0,0-.039-.007.114.114,0,0,0-.081.025.127.127,0,0,0-.042.071.3.3,0,0,0-.006.064Zm.063.572c-.019-.157-.035-.29-.046-.39s-.017-.164-.017-.181H19.7c0,.031.008.1.019.2s.027.235.046.391Zm.244,2.7c0-.67-.154-1.956-.244-2.7l-.184.022C19.851,5.4,20,6.672,20,7.329ZM19.2,8.882a1.487,1.487,0,0,0,.669-.471,1.7,1.7,0,0,0,.323-1.082H20a1.519,1.519,0,0,1-.284.968,1.3,1.3,0,0,1-.588.412ZM18.4,8.635a.318.318,0,0,0,.233.288.827.827,0,0,0,.559-.041l-.064-.173a.649.649,0,0,1-.432.04c-.087-.031-.11-.083-.11-.114Zm.01.1.052-.042.018-.012.006,0h-.019a.074.074,0,0,1-.048-.019.064.064,0,0,1-.019-.03s0,0,0,0h.185a.143.143,0,0,0-.041-.109.119.119,0,0,0-.126-.018.3.3,0,0,0-.065.039c-.019.014-.04.031-.059.047Zm-.292.151a.323.323,0,0,0,.167-.057,1.284,1.284,0,0,0,.125-.094L18.3,8.594a1.109,1.109,0,0,1-.107.081.152.152,0,0,1-.068.029Zm-.081-.506a.8.8,0,0,0-.109.289.207.207,0,0,0,.036.149.186.186,0,0,0,.154.068V8.7c-.021,0-.015-.006-.007,0s0,.006,0-.018a.638.638,0,0,1,.086-.216Zm.057-.013h0a.067.067,0,0,1-.012-.013.069.069,0,0,1-.011-.025.055.055,0,0,1,0-.018s0,0,0,.011-.015.031-.03.057l.161.091a.821.821,0,0,0,.038-.075.225.225,0,0,0,.019-.065.12.12,0,0,0-.02-.082.137.137,0,0,0-.037-.035Zm-.069-.138a.17.17,0,0,0,.024.092.15.15,0,0,0,.046.046l.1-.153c-.007,0,0,0,.007.009s0,.015,0,.006Zm.249-.305a.282.282,0,0,0-.134.029.2.2,0,0,0-.086.089.428.428,0,0,0-.029.187h.185c0-.027,0-.049,0-.069a.113.113,0,0,1,.008-.037.014.014,0,0,1,.007-.007.1.1,0,0,1,.047-.008Zm.22.359a.433.433,0,0,0,.079-.159.165.165,0,0,0,0-.085.145.145,0,0,0-.051-.07A.247.247,0,0,0,18.4,7.93c-.038,0-.081,0-.119,0v.185c.041,0,.074,0,.1,0l.028,0c.006,0,.006,0,0,0A.04.04,0,0,1,18.4,8.1c0-.008,0-.013,0-.009a.274.274,0,0,1-.048.087Zm-.088-.007-.016,0,0,0a.075.075,0,0,1,.034.029.077.077,0,0,1,.013.052.043.043,0,0,1,0,.011l.008-.014c.01-.016.025-.038.048-.07l-.151-.107c-.023.032-.041.059-.055.08a.2.2,0,0,0-.031.077.108.108,0,0,0,.016.073.11.11,0,0,0,.051.041.237.237,0,0,0,.059.012Zm.213.071a.487.487,0,0,0-.213-.071l-.022.184a.3.3,0,0,1,.137.045Zm.088.054.007,0-.005,0c-.013-.007-.038-.021-.09-.054l-.1.157c.052.032.082.05.1.06l.03.013a.135.135,0,0,0,.025.006Zm.114.051a.333.333,0,0,0-.114-.051l-.029.183h0c.007,0,.022.011.054.029Zm.708-.5a4.566,4.566,0,0,1-.468.4.8.8,0,0,1-.175.1c-.049.017-.064.01-.064.01l-.092.16a.26.26,0,0,0,.218,0,.976.976,0,0,0,.218-.12,4.72,4.72,0,0,0,.489-.413Zm.019-.171a.559.559,0,0,1,.074.035c.018.011.016.015.014.008s0-.008-.009.015a.5.5,0,0,1-.1.113l.126.135a.674.674,0,0,0,.134-.159.2.2,0,0,0,.022-.163.206.206,0,0,0-.09-.106.721.721,0,0,0-.1-.049Zm-.165-.1a.29.29,0,0,0,.083.064c.027.015.057.028.081.038l.073-.17c-.026-.011-.047-.02-.065-.03a.114.114,0,0,1-.031-.022Zm-.216-.335c.042.069.083.138.12.2a1.342,1.342,0,0,0,.1.139l.141-.12a1.192,1.192,0,0,1-.081-.117c-.035-.056-.076-.123-.118-.193Zm0,0h0l.162-.089h0Zm0,0h0l.161-.092h0Zm0,0h0l.161-.092h0Zm-.253-.385.009.01.023.028c.018.024.04.055.064.092.048.074.1.166.158.257l.158-.1c-.054-.09-.111-.185-.162-.262-.025-.039-.049-.074-.071-.1a.387.387,0,0,0-.068-.074Zm.142.13c-.011-.073-.019-.129-.02-.163a.128.128,0,0,1,0-.014.052.052,0,0,1-.006.016.083.083,0,0,1-.069.043.073.073,0,0,1-.047-.013l.112-.147a.114.114,0,0,0-.074-.024.1.1,0,0,0-.086.056.14.14,0,0,0-.014.05.277.277,0,0,0,0,.039c0,.047.012.116.022.184Zm-.01.511a.264.264,0,0,0,.039-.119.757.757,0,0,0,0-.127c0-.087-.019-.184-.031-.265l-.183.027c.012.083.026.172.03.248a.578.578,0,0,1,0,.1.11.11,0,0,1-.008.036Zm-.475.349a.3.3,0,0,0,.133-.04.85.85,0,0,0,.125-.084A1.107,1.107,0,0,0,19.05,7.6l-.153-.1a.929.929,0,0,1-.179.185.662.662,0,0,1-.1.065.233.233,0,0,1-.035.015l-.012,0Zm0-1.829-.092-.005h0s0,0,0,0v.015l0,.055c0,.048-.006.116-.01.2-.008.163-.017.381-.023.6s-.009.437,0,.6a2.026,2.026,0,0,0,.014.207.382.382,0,0,0,.016.074.141.141,0,0,0,.022.041.1.1,0,0,0,.081.04V7.761a.082.082,0,0,1,.064.03.043.043,0,0,1,.008.012.229.229,0,0,1-.007-.036c-.006-.042-.01-.106-.012-.187,0-.16,0-.375,0-.592s.015-.433.022-.6c0-.081.007-.149.01-.2l0-.055V6.123h0Zm-.364-.493,0-.016v0a.051.051,0,0,1,0,.013.082.082,0,0,1-.106.06c-.006,0-.006,0,0,0a1.313,1.313,0,0,1,.145.16c.061.074.124.158.173.223l.059.08.017.023,0,.006v0h0l.075-.054.075-.054h0v0l0-.006-.017-.024-.06-.082c-.049-.066-.115-.152-.178-.229a1.419,1.419,0,0,0-.173-.187.193.193,0,0,0-.048-.029.1.1,0,0,0-.143.075.133.133,0,0,0,0,.038.292.292,0,0,0,.013.061Zm-.347,2.456a.663.663,0,0,0,.1-.2,2.565,2.565,0,0,0,.082-.289,7.448,7.448,0,0,0,.124-.745c.031-.263.053-.526.061-.742,0-.108,0-.2,0-.285a.844.844,0,0,0-.024-.194l-.177.054a.7.7,0,0,1,.017.147c0,.074,0,.166,0,.271-.008.21-.028.468-.06.727a7.229,7.229,0,0,1-.12.726,2.376,2.376,0,0,1-.075.268.5.5,0,0,1-.071.143Zm-1.024-.3a1.094,1.094,0,0,0,.433.361.477.477,0,0,0,.591-.065l-.14-.12c-.079.092-.209.094-.373.018A.917.917,0,0,1,17,7.687Zm-.163.18a.451.451,0,0,1,.11-.21c.018-.015.022-.01.016-.011s.012,0,.036.041l.158-.1a.251.251,0,0,0-.156-.126.2.2,0,0,0-.173.05.623.623,0,0,0-.17.3Zm-.522.911a1.042,1.042,0,0,0,.368-.46,2.816,2.816,0,0,0,.154-.451L16.5,7.915a2.622,2.622,0,0,1-.144.422.862.862,0,0,1-.3.38ZM15.5,8.4a1.9,1.9,0,0,0,.243.388.411.411,0,0,0,.182.124.281.281,0,0,0,.234-.037l-.1-.157a.1.1,0,0,1-.084.016.232.232,0,0,1-.1-.071,1.749,1.749,0,0,1-.215-.349Zm-.115-.2a1.7,1.7,0,0,1,.115.2l.164-.085a1.83,1.83,0,0,0-.131-.227ZM16.6,6.13a.862.862,0,0,1,.112-.1c.058-.045.127-.1.195-.146s.133-.094.181-.127l.058-.04.016-.011,0,0h0l-.052-.077-.052-.077h0l0,0-.016.011-.059.04c-.049.034-.115.08-.184.129s-.141.1-.2.151a.975.975,0,0,0-.143.13Zm-.03.105a.077.077,0,0,1-.026-.018h0v0a.087.087,0,0,1,.012-.029A.49.49,0,0,1,16.6,6.13l-.145-.115a.385.385,0,0,0-.094.189.175.175,0,0,0,.03.117.252.252,0,0,0,.094.078ZM17.2,5.91a1.282,1.282,0,0,1-.364.243,1.088,1.088,0,0,1-.193.072.318.318,0,0,1-.064.01c-.017,0-.018,0-.013,0l-.085.164a.211.211,0,0,0,.1.02.5.5,0,0,0,.1-.015,1.267,1.267,0,0,0,.228-.084,1.454,1.454,0,0,0,.421-.285Zm.221-.368c.007.012.013.044-.03.121a1.413,1.413,0,0,1-.192.247l.136.125a1.583,1.583,0,0,0,.217-.283.307.307,0,0,0,.029-.3Zm-.308.085.055.074h0l0,0,.009-.007.035-.024a1.224,1.224,0,0,1,.11-.066.4.4,0,0,1,.1-.041c.029-.005.006.007-.009-.018l.161-.091a.167.167,0,0,0-.184-.073.573.573,0,0,0-.157.059,1.411,1.411,0,0,0-.127.076l-.04.028-.011.008,0,0h0Zm-.723-1.111-.029-.088h-.006l-.013,0-.04.018a.407.407,0,0,0-.11.08.248.248,0,0,0-.072.169.331.331,0,0,0,.091.215l.141-.12a.154.154,0,0,1-.047-.094.064.064,0,0,1,.021-.044.225.225,0,0,1,.059-.042l.025-.011.006,0h0Zm.4.075a.758.758,0,0,0-.272-.146.6.6,0,0,0-.091-.019l-.027,0h-.013s0,0,0,.092v.092h.017a.412.412,0,0,1,.062.013.573.573,0,0,1,.205.111Zm-.078-.026c0,.03.007.053.008.071a.187.187,0,0,1,0,.019s0,0,0,0a.07.07,0,0,1,.029-.036.073.073,0,0,1,.052-.011c.008,0,.011,0,.007,0l-.021-.015-.118.143a.229.229,0,0,0,.1.052.112.112,0,0,0,.083-.015.115.115,0,0,0,.047-.061.231.231,0,0,0,.008-.087c0-.025-.006-.055-.009-.083Zm.016-.347a.44.44,0,0,0-.03.184,1.455,1.455,0,0,0,.015.163l.183-.024a1.269,1.269,0,0,1-.013-.142.263.263,0,0,1,.015-.106Zm.6.271a.668.668,0,0,0-.248-.335.308.308,0,0,0-.184-.06.2.2,0,0,0-.171.125l.169.074c.008-.018.012-.015.012-.015a.134.134,0,0,1,.071.029.483.483,0,0,1,.175.237Zm-.167.3a.473.473,0,0,0,.07-.012.162.162,0,0,0,.087-.054.167.167,0,0,0,.033-.11.45.45,0,0,0-.023-.119l-.177.055a.286.286,0,0,1,.015.069c0,.01,0,0,.007-.009s.017-.011.01-.009l-.042.006Zm-.092.019a.313.313,0,0,1,.092-.019L17.148,4.6A.486.486,0,0,0,17,4.634Zm.023.3a1.6,1.6,0,0,1-.028-.237.181.181,0,0,1,.007-.06c0-.008,0,0,0,0L17,4.634a.181.181,0,0,0-.1.105.358.358,0,0,0-.019.125,1.729,1.729,0,0,0,.031.268Zm.032.278A1.819,1.819,0,0,0,17.1,5.1l-.182.03a1.672,1.672,0,0,1,.029.248Zm-.918-.463a3.784,3.784,0,0,0,.467.45.948.948,0,0,0,.238.149.178.178,0,0,0,.136,0,.144.144,0,0,0,.077-.136h-.185c0,.013,0-.015.028-.03s.029,0,.006-.008a.8.8,0,0,1-.185-.12,3.611,3.611,0,0,1-.441-.425Z" transform="translate(0.776 0.565)" fill="#fff"/>
    <path id="Path_33499" data-name="Path 33499" d="M9.626,9.977a25.589,25.589,0,0,1-4.74-.165c-.212-.045-.091.922.046,1.144a3.964,3.964,0,0,0,1.589.5c.322.044,1.563-.025,2.853-.1l.64-.035a35.309,35.309,0,0,1,3.642.1c.279.018.476.031.546.031.264,0,.245.089.2.269l-.011.048a1,1,0,0,0,.3.709A3.4,3.4,0,0,0,16,12.314c.241-.093.27-.08.332-.052a.648.648,0,0,0,.308.052c.291,0,.306-.417.317-.711.006-.161.01-.284.058-.284s.124.157.191.3c.1.225.192.426.192.01,0-.688-.809-1.59-1.074-1.518a1.892,1.892,0,0,1-.7-.043,1.51,1.51,0,0,0-.195-.029c-.052,0-.036-.013,0-.04a.262.262,0,0,0,.122-.192c0-.165-.157-.189-.288-.189a.2.2,0,0,0-.2.189c0,.082.1.165.1.165l-.289,0C13.8,9.959,10.168,9.911,9.626,9.977Zm5.349,1.457a1.362,1.362,0,0,0,.277-.287c.214-.264.29-.179.369-.092a.2.2,0,0,0,.144.092.893.893,0,0,1,.577.132c.156.132-.205.314-.311.314a.206.206,0,0,1-.13-.065.211.211,0,0,0-.134-.067.269.269,0,0,0-.163.085c-.03.026-.055.048-.076.048a.38.38,0,0,1-.109-.052.792.792,0,0,0-.337-.13A.235.235,0,0,0,14.975,11.434Z" transform="translate(1.177 2.242)" fill="#fff" fill-rule="evenodd"/>
    <path id="Path_33500" data-name="Path 33500" d="M4.9,9.823l.014-.06h0Zm4.74.165.007.061Zm-4.693.979L5,10.935Zm1.589.5-.008.061Zm2.853-.1,0-.062Zm.64-.035,0-.062Zm3.642.1,0-.062Zm.75.3.06.013h0Zm-.011.048.06.013h0Zm.3.709.023-.057h0Zm1.305-.163.022.058Zm.332-.052-.025.056h0Zm.625-.659-.062,0h0Zm.248.02-.056.025h0Zm-.882-1.507.016.059h0Zm-.7-.043-.011.061Zm-.2-.069L15.4,9.967h0Zm-.269-.027v.062h.168l-.128-.109Zm-.289,0v0Zm.382,1.174.048.039Zm-.277.287.054-.031h0Zm.645-.378-.046.041h0Zm.721.224.04-.047Zm-.44.249.04-.047h0Zm-.3.018.04.047h0Zm-.185,0-.031.054h0ZM4.884,9.883a15.426,15.426,0,0,0,2.5.2c.988.022,1.94.007,2.259-.032L9.63,9.927c-.308.037-1.252.053-2.241.031a15.367,15.367,0,0,1-2.476-.2ZM5,10.935a.974.974,0,0,1-.087-.26,2.829,2.829,0,0,1-.058-.385,1.361,1.361,0,0,1,.005-.327.2.2,0,0,1,.026-.076s.005,0,0,0,0,0,0,0l.025-.121a.12.12,0,0,0-.073.007.133.133,0,0,0-.053.044.311.311,0,0,0-.048.127,1.475,1.475,0,0,0-.007.359,2.946,2.946,0,0,0,.061.4,1.075,1.075,0,0,0,.1.3Zm1.545.467a8,8,0,0,1-.876-.182,3.641,3.641,0,0,1-.444-.145A1.044,1.044,0,0,1,5.07,11,.232.232,0,0,1,5,10.935l-.1.065A.348.348,0,0,0,5,11.1a1.159,1.159,0,0,0,.17.086,3.771,3.771,0,0,0,.46.151,8.118,8.118,0,0,0,.892.185Zm2.841-.1c-.645.036-1.277.071-1.789.092a8.613,8.613,0,0,1-1.053.006l-.017.122a8.617,8.617,0,0,0,1.074,0c.512-.021,1.146-.056,1.79-.092Zm.64-.036-.64.036.007.123.64-.035Zm3.649.1a35.368,35.368,0,0,0-3.649-.1l.007.123a35.243,35.243,0,0,1,3.634.1Zm.542.031c-.068,0-.261-.012-.542-.031l-.008.123c.277.018.477.031.55.031Zm.265.344a1.091,1.091,0,0,0,.023-.125.209.209,0,0,0-.017-.118.168.168,0,0,0-.1-.081.563.563,0,0,0-.168-.02v.123a.449.449,0,0,1,.13.014c.024.008.029.016.031.02a.094.094,0,0,1,0,.05,1.008,1.008,0,0,1-.021.11Zm-.01.048.01-.048-.12-.027-.011.049Zm.26.639-.007,0-.017-.015a.465.465,0,0,1-.046-.057,1.3,1.3,0,0,1-.178-.4.4.4,0,0,1-.012-.167l-.121-.026a.519.519,0,0,0,.013.221,1.309,1.309,0,0,0,.083.235,1.331,1.331,0,0,0,.113.2.582.582,0,0,0,.058.073.2.2,0,0,0,.066.048Zm1.26-.164a3.163,3.163,0,0,1-.756.155c-.129.013-.247.019-.339.019-.046,0-.085,0-.114,0l-.036,0-.011,0h0l-.047.114a.317.317,0,0,0,.087.016c.035,0,.077,0,.125,0,.1,0,.219-.007.35-.02a3.28,3.28,0,0,0,.788-.163Zm.38-.05a.3.3,0,0,0-.055-.021.215.215,0,0,0-.076,0,1.091,1.091,0,0,0-.249.075l.044.115a1,1,0,0,1,.218-.068.093.093,0,0,1,.033,0,.2.2,0,0,1,.034.013Zm.283.046a.921.921,0,0,1-.2-.016.4.4,0,0,1-.087-.03l-.051.112a.512.512,0,0,0,.111.038,1.045,1.045,0,0,0,.222.019Zm.255-.651a1.949,1.949,0,0,1-.051.45.359.359,0,0,1-.078.15.166.166,0,0,1-.127.051v.123a.289.289,0,0,0,.215-.088.479.479,0,0,0,.108-.2,2.067,2.067,0,0,0,.056-.481Zm.119-.344a.093.093,0,0,0-.083.056.27.27,0,0,0-.022.079,2.1,2.1,0,0,0-.014.209l.123,0a1.954,1.954,0,0,1,.013-.2.155.155,0,0,1,.01-.042.034.034,0,0,1-.027.012Zm.247.341c-.033-.073-.069-.152-.1-.213a.484.484,0,0,0-.055-.081.124.124,0,0,0-.089-.047v.123c-.016,0-.017-.009,0,.006a.37.37,0,0,1,.04.06c.031.055.064.128.1.2Zm.075.036a.827.827,0,0,1-.014.189.059.059,0,0,1,0,.008l0,0,.008-.007a.046.046,0,0,1,.032-.007.034.034,0,0,1,.014.005l0,0-.011-.014a.519.519,0,0,1-.029-.051c-.022-.042-.046-.1-.072-.152l-.112.051c.025.056.051.112.074.158a.718.718,0,0,0,.036.062.2.2,0,0,0,.043.049.091.091,0,0,0,.04.017.078.078,0,0,0,.055-.011.116.116,0,0,0,.044-.069.917.917,0,0,0,.018-.222Zm-1-1.458a.141.141,0,0,1,.083.014.652.652,0,0,1,.143.086,1.946,1.946,0,0,1,.345.352,1.814,1.814,0,0,1,.425,1.006h.123a1.932,1.932,0,0,0-.451-1.082,2.071,2.071,0,0,0-.368-.375.776.776,0,0,0-.171-.1.257.257,0,0,0-.161-.019Zm-.726-.042c.1.019.234.043.363.055a1.061,1.061,0,0,0,.363-.014l-.032-.119a.948.948,0,0,1-.319.01c-.123-.012-.248-.035-.352-.054Zm-.184-.028a.51.51,0,0,1,.068.008l.116.02.022-.121L15.528,10a.611.611,0,0,0-.087-.009Zm-.041-.15-.025.021L15.363,10a.076.076,0,0,0-.015.029.066.066,0,0,0,.013.059.073.073,0,0,0,.035.023.157.157,0,0,0,.045.005V9.994c-.013,0-.013,0-.009,0a.051.051,0,0,1,.024.016.057.057,0,0,1,.012.026.057.057,0,0,1,0,.025.048.048,0,0,1-.008.018h0l.018-.015Zm.1-.144a.128.128,0,0,1-.031.08.413.413,0,0,1-.068.064l.077.1a.524.524,0,0,0,.088-.084.25.25,0,0,0,.057-.156ZM15.273,9.7a.409.409,0,0,1,.167.026.1.1,0,0,1,.043.035.115.115,0,0,1,.016.065h.123a.237.237,0,0,0-.037-.133.226.226,0,0,0-.093-.079.524.524,0,0,0-.22-.038Zm-.139.127a.135.135,0,0,1,.139-.127V9.573a.258.258,0,0,0-.263.25Zm.037.165.04-.047h0l0,0L15.2,9.93a.349.349,0,0,1-.029-.032.141.141,0,0,1-.036-.075H15.01a.257.257,0,0,0,.063.152.456.456,0,0,0,.039.043l.013.012,0,0h0Zm-.29.058.29,0V9.927l-.288,0Zm-5.236,0c.132-.016.457-.025.892-.03s.972,0,1.527,0c1.11.006,2.285.021,2.817.028l0-.123c-.533-.007-1.708-.023-2.818-.028-.555,0-1.094,0-1.529,0s-.765.014-.905.031Zm5.571,1.07a2.269,2.269,0,0,1-.2.226c-.021.02-.036.032-.045.039l-.009.007h0l0,0-.005,0-.008.01a.109.109,0,0,0,0,.066l.107-.062a.108.108,0,0,1,0,.066l-.008.009-.005,0,0,0h0l0,0,.015-.011c.013-.01.03-.025.054-.047a2.371,2.371,0,0,0,.217-.239Zm.462-.094a.516.516,0,0,0-.07-.068.178.178,0,0,0-.111-.039.236.236,0,0,0-.133.051.829.829,0,0,0-.148.149l.1.078a.709.709,0,0,1,.125-.127.118.118,0,0,1,.063-.028.056.056,0,0,1,.035.014.4.4,0,0,1,.052.052Zm.1.071c-.029,0-.053-.021-.1-.071l-.092.082a.263.263,0,0,0,.19.112Zm.617.147a.623.623,0,0,0-.309-.13,1.925,1.925,0,0,0-.308-.017v.123a1.812,1.812,0,0,1,.288.016.5.5,0,0,1,.249.1Zm-.35.423a.4.4,0,0,0,.138-.035.735.735,0,0,0,.151-.084.312.312,0,0,0,.11-.129.146.146,0,0,0,.006-.092.166.166,0,0,0-.055-.082l-.08.094a.046.046,0,0,1,.016.021.024.024,0,0,1,0,.015.2.2,0,0,1-.068.074.611.611,0,0,1-.125.07.3.3,0,0,1-.091.026Zm-.169-.08a.264.264,0,0,0,.169.08v-.123c-.026,0-.047-.015-.09-.051Zm-.094-.052c.029,0,.052.016.094.052l.08-.094a.269.269,0,0,0-.174-.082Zm-.123.07a.518.518,0,0,1,.065-.051.111.111,0,0,1,.057-.019v-.123a.233.233,0,0,0-.121.037.612.612,0,0,0-.082.063Zm-.116.063a.125.125,0,0,0,.069-.025.565.565,0,0,0,.047-.038l-.081-.093a.462.462,0,0,1-.036.029l-.007,0h.008Zm-.14-.06c.025.014.05.028.07.039l.031.014a.114.114,0,0,0,.039.008v-.123c.007,0,.009,0,0,0l-.018-.008-.064-.036Zm-.307-.122a.4.4,0,0,1,.15.04,1.666,1.666,0,0,1,.157.082l.061-.107a1.783,1.783,0,0,0-.169-.088.513.513,0,0,0-.2-.05Zm-.16-.009a.108.108,0,0,0,.049.031H15l.009,0,0,0h.006l.014-.005a.212.212,0,0,1,.061-.008v-.123a.337.337,0,0,0-.1.014l-.028.01-.008,0h0l0,0,.009,0h.017a.108.108,0,0,1,.049.031Z" transform="translate(1.165 2.23)" fill="#fff"/>
  </g>
</svg>
