<svg xmlns="http://www.w3.org/2000/svg" xmlns:xlink="http://www.w3.org/1999/xlink" width="40" height="40" viewBox="0 0 40 40">
  <defs>
    <clipPath id="clip-path">
      <rect id="Rectangle_2560" data-name="Rectangle 2560" width="24" height="24" transform="translate(91.421 202.421)" fill="#1d99c6" opacity="0.1"/>
    </clipPath>
  </defs>
  <g id="Group_24092" data-name="Group 24092" transform="translate(-93 -204)">
    <rect id="Rectangle_2548" data-name="Rectangle 2548" width="40" height="40" rx="5" transform="translate(93 204)" fill="#1d99c6" opacity="0.1"/>
    <g id="Mask_Group_39" data-name="Mask Group 39" transform="translate(9.579 9.579)" clip-path="url(#clip-path)">
      <g id="C_-_170_x2C__advertising_x2C__branding_x2C__identity_x2C__corporate" transform="translate(92.605 203.657)">
        <g id="Group_23938" data-name="Group 23938" transform="translate(0 0)">
          <rect id="Rectangle_2561" data-name="Rectangle 2561" width="8.733" height="4.104" transform="translate(1.382 2.293)" fill="#1d99c6"/>
          <path id="Path_35987" data-name="Path 35987" d="M14.172,32.745l5.888-2.93H8.285Z" transform="translate(-6.121 -16.06)" fill="#1d99c6" fill-rule="evenodd"/>
          <path id="Path_35988" data-name="Path 35988" d="M21.4,23.371H13.967v1.164H21.4Z" transform="translate(-8.73 -13.101)" fill="#1d99c6" fill-rule="evenodd"/>
          <path id="Path_35989" data-name="Path 35989" d="M20.178,30.088l-6.563,3.266a.241.241,0,0,1-.214,0L6.838,30.088v6.249h13.34Z" transform="translate(-5.457 -16.185)" fill="#1d99c6" fill-rule="evenodd"/>
          <path id="Path_35990" data-name="Path 35990" d="M9.631,23.953a.584.584,0,0,0,.585.582H11.5V23.371H10.216A.584.584,0,0,0,9.631,23.953Z" transform="translate(-6.739 -13.101)" fill="#1d99c6" fill-rule="evenodd"/>
          <path id="Path_35991" data-name="Path 35991" d="M23.876,12.963v3.153H26.2l.028,0h.015l.028.008,2.334.787a.24.24,0,0,1,.006.453l-2.334.857-.021.006-.017,0h0a.236.236,0,0,1-.042,0H23.876V19.6h4.366a.236.236,0,0,1,.045,0l.015,0,.027.009.016.007.023.013.015.01.021.017.012.011a.24.24,0,0,1,.019.023l.008.011a.238.238,0,0,1,.021.038l0,.007a.246.246,0,0,1,.01.032v0s0,.01,0,.015a.248.248,0,0,1,0,.031s0,0,0,.006v6.878a.24.24,0,0,1-.24.24H23.876v.895H34.912V8.619H23.876Zm8.748-3.335h.845v.841h-.845Zm-2.433,0h.845v.841H30.19Zm-2.433,0H28.6v.841h-.845Zm-2.433,0h.845v.841h-.845Z" transform="translate(-13.28 -6.326)" fill="#1d99c6" fill-rule="evenodd"/>
          <path id="Path_35992" data-name="Path 35992" d="M14.4,22.134H7.761a1.063,1.063,0,1,1,0-2.125H14.4V17.1H4.283v8.116h.9V23.734s0,0,0-.006a.232.232,0,0,1,0-.031c0-.005,0-.01,0-.015v0a.23.23,0,0,1,.011-.032l0-.007a.235.235,0,0,1,.021-.038l.008-.011a.225.225,0,0,1,.019-.023l.012-.011.021-.017.014-.01.023-.013.016-.007.027-.009.015,0a.233.233,0,0,1,.045,0H14.4Zm-1.83-4h.845v.841h-.845Zm-2.433,0h.845v.841h-.845Zm-2.433,0h.845v.841H7.7Zm-1.589.841H5.269v-.841h.844Z" transform="translate(-4.283 -10.22)" fill="#1d99c6" fill-rule="evenodd"/>
          <rect id="Rectangle_2562" data-name="Rectangle 2562" width="11.036" height="1.812" transform="translate(10.595)" fill="#1d99c6"/>
          <path id="Path_35993" data-name="Path 35993" d="M28.6,24.511l1.37-.5-1.37-.462Z" transform="translate(-15.451 -13.181)" fill="#1d99c6" fill-rule="evenodd"/>
        </g>
      </g>
    </g>
  </g>
</svg>
