<svg xmlns="http://www.w3.org/2000/svg" width="65" height="48" viewBox="0 0 65 48">
  <g id="Logo_Driver_1" data-name="Logo Driver 1" transform="translate(-41.169 -49.134)">
    <g id="C" transform="translate(61.775 51.804)">
      <g id="Group_21488" data-name="Group 21488" transform="translate(0 0)">
        <path id="Path_27122" data-name="Path 27122" d="M88.109,54.448c5.845-.71,12.456.1,17.089,3.648a15.937,15.937,0,0,1,1.618,1.275l-5.191,6.644A19.266,19.266,0,0,0,100,64.807,12.47,12.47,0,0,0,89.14,63.037a7.871,7.871,0,0,0-5.3,7.905c-.21,4.079,3.572,7.942,8.153,8,3.683.316,6.937-1.438,9.835-3.2,1.614,1.918,4.97,6.163,4.97,6.163a20.225,20.225,0,0,1-4.449,3.1c-8.861,3.95-19.9,2.823-25.815-4.053l-.006-.011c.035-6.744.023-13.482.012-20.226h0A18.888,18.888,0,0,1,88.109,54.448Z" transform="translate(-76.531 -54.214)" fill="#141324"/>
      </g>
      <g id="Group_21487" data-name="Group 21487" transform="translate(1.843 3.155)">
        <path id="Path_27153" data-name="Path 27153" d="M0,0H.583V2.1H0Z" transform="translate(0 12.407)" fill="#fff"/>
        <path id="Path_27155" data-name="Path 27155" d="M0,0,.577.017.644,2.141.067,2.124Z" transform="translate(0 16.219) rotate(-18)" fill="#fff"/>
        <path id="Path_27162" data-name="Path 27162" d="M0,0,.569.024l.1,2.156L.1,2.156Z" transform="matrix(0.875, -0.485, 0.485, 0.875, 1.748, 20.025)" fill="#fff"/>
        <path id="Path_27163" data-name="Path 27163" d="M0,0,.548.028.66,2.268.112,2.24Z" transform="translate(4.392 23.514) rotate(-51)" fill="#fff"/>
        <path id="Path_27164" data-name="Path 27164" d="M0,0,.534.021l.082,2.3L.082,2.3Z" transform="translate(8.374 25.904) rotate(-66.997)" fill="#fff"/>
        <path id="Path_27165" data-name="Path 27165" d="M0,0H.529l0,2.331H0Z" transform="translate(12.522 27.01) rotate(-90.974)" fill="#fff"/>
        <path id="Path_27166" data-name="Path 27166" d="M.077.019.612,0,.525,2.287l-.536.022Z" transform="translate(17.438 26.461) rotate(-115)" fill="#fff"/>
        <path id="Path_27167" data-name="Path 27167" d="M.1.024.648,0,.535,2.233l-.549.028Z" transform="matrix(-0.643, -0.766, 0.766, -0.643, 21.774, 24.567)" fill="#fff"/>
        <path id="Path_27154" data-name="Path 27154" d="M.031.008.613,0,.577,2.107,0,2.116Z" transform="translate(0.448 8.161) rotate(9)" fill="#fff"/>
        <path id="Path_27156" data-name="Path 27156" d="M.083.02.654,0,.559,2.149l-.57.024Z" transform="matrix(0.883, 0.469, -0.469, 0.883, 2.116, 4.465)" fill="#fff"/>
        <path id="Path_27157" data-name="Path 27157" d="M.1.024.648,0,.535,2.233l-.549.028Z" transform="matrix(0.643, 0.766, -0.766, 0.643, 5.465, 1.452)" fill="#fff"/>
        <path id="Path_27158" data-name="Path 27158" d="M.056.014.586,0,.522,2.309l-.531.016Z" transform="translate(9.327 0.227) rotate(73)" fill="#fff"/>
        <path id="Path_27159" data-name="Path 27159" d="M0,0H.526l0,2.331H0Z" transform="translate(14.133 0.04) rotate(91)" fill="#fff"/>
        <path id="Path_27160" data-name="Path 27160" d="M0,0,.526.006.55,2.334.024,2.328Z" transform="translate(18.231 0.392) rotate(96.024)" fill="#fff"/>
        <path id="Path_27161" data-name="Path 27161" d="M0,0,.534.021l.082,2.3L.082,2.3Z" transform="translate(22.307 1.764) rotate(113.003)" fill="#fff"/>
      </g>
    </g>
    <g id="One" transform="translate(44.739 49.135)">
      <path id="Path_27118" data-name="Path 27118" d="M58.813,49.142q2.78-.016,5.559,0c-.041,3.054.064,6.108-.029,9.161h0a15.993,15.993,0,0,0-.012,20.226l.006.011c.1,2.886.018,5.777.006,8.662a10.1,10.1,0,0,0-2.035-.321c-.735.027-4.616-.073-6.294.673q.008-14.641.006-29.288c-2.908,0-5.81.005-8.712,0-.006-1.424-.006-2.849-.012-4.273,2.815-.116,5.85-.032,8.35-1.383A8.558,8.558,0,0,0,58.813,49.142Z" transform="translate(-47.296 -49.135)" fill="#141324"/>
      <path id="Path_27119" data-name="Path 27119" d="M96.026,78.443c1.981-.368,4.227.076,5.25,2.008a3.781,3.781,0,0,1-1.888,5.261c-2.109.9-5.017.378-6.195-1.54a3.6,3.6,0,0,1-.161-3.5,4.287,4.287,0,0,1,2.993-2.23m0,4.783a2.052,2.052,0,0,0,1.782.334,1.8,1.8,0,0,0,1.27-1.175c.3-.958-.966-1.969-2.168-1.739a1.632,1.632,0,0,0-1.324,1.044,1.413,1.413,0,0,0,.439,1.536Z" transform="translate(-66.223 -62.982)" fill="#141324"/>
      <path id="Path_27120" data-name="Path 27120" d="M126.527,85.052a3.617,3.617,0,0,1-.616-4.092A4.371,4.371,0,0,1,129.7,78.64c2.656-.14,5.058,2,4.522,4.389-1.771.173-3.543.31-5.313.478.8,1.6,2.855.678,4.207.316.344.547.688,1.1,1.037,1.65-2.2,1.509-5.765,1.588-7.622-.421m1.882-2.98a23.93,23.93,0,0,1,3-.27A2.71,2.71,0,0,0,130,80.9a1.461,1.461,0,0,0-1.593,1.176Z" transform="translate(-79.172 -63.362)" fill="#141324"/>
      <path id="Path_27121" data-name="Path 27121" d="M109.63,79.1c.926-.168,1.847-.352,2.774-.521.245.189.729.578.973.773,1.6-.789,4.271-1.393,5.227.5.405.85.076,4.152.116,6.228-1.055-.005-2.116,0-3.176,0-.006-1.688-.017-3.374-.081-5.067-.769.073-1.544.132-2.308.252.012,1.6.006,3.206-.006,4.81q-1.582,0-3.165-.005A32.408,32.408,0,0,0,109.63,79.1Z" transform="translate(-73.306 -63.102)" fill="#141324"/>
    </g>
    <g id="Captain" transform="translate(41.169 83.86)">
      <path id="Path_27123" data-name="Path 27123" d="M43.885,116.083c2.494-1.5,5.878-.951,8.158.636-.452.857-.956,1.693-1.47,2.523-1.243-.678-2.713-1.7-4.225-1.015a2.794,2.794,0,0,0,.029,5.12,5.3,5.3,0,0,0,4.126-.9c.536.694,1.055,1.4,1.579,2.113-2.407,2.313-6.946,2.486-9.336.068A5.456,5.456,0,0,1,43.885,116.083Z" transform="translate(-41.169 -115.2)" fill="#141324"/>
      <path id="Path_27124" data-name="Path 27124" d="M129.916,116.241c1.067-.459,2.8.058,2.611,1.319-.035,1.493-2.377,1.628-3.109.525C129.213,117.858,129.257,116.441,129.916,116.241Z" transform="translate(-77.947 -115.616)" fill="#141324"/>
      <path id="Path_27125" data-name="Path 27125" d="M98.488,117.838a5.513,5.513,0,0,0,1.552.171,5.057,5.057,0,0,0,1.526-.133s-.018,1.566-.018,2.355l2.267-.063q-.026,1.159-.035,2.318c-.757.021-1.515.037-2.273.037.035.841.076,1.682.128,2.523.8-.005,1.609-.016,2.419-.027-.053.6-.1,1.209-.134,1.819-1.5.541-3.278,1.041-4.8.257-1.8-1.122.722-4.257-1.649-4.851.023-.394.064-1.183.088-1.577C99.018,120.183,98.488,117.838,98.488,117.838Z" transform="translate(-64.66 -116.451)" fill="#141324"/>
      <path id="Path_27133" data-name="Path 27133" d="M.109.374a1.432,1.432,0,0,0,.519,0C.837.316,1.529,2.2,1,2.056a1.957,1.957,0,0,0-.892-.051Z" transform="translate(32.311 3.828)" fill="#141324"/>
      <path id="Path_27126" data-name="Path 27126" d="M79.6,122.166c.9-.142,1.812-.278,2.713-.426l.769.612a5.132,5.132,0,0,1,4.132-.242A3.751,3.751,0,0,1,87.208,129c-1.357.657-2.867.21-4.231-.153.041.909.088,1.819.123,2.728-1.06,0-2.116-.005-3.17-.021-.057-3.133.223-6.276-.3-9.388m3.757,4.384a1.907,1.907,0,0,0,2.535-.185,1.4,1.4,0,0,0,.2-1.357,1.619,1.619,0,0,0-1.092-.951,1.558,1.558,0,0,0-1.64,2.49Z" transform="translate(-57.205 -118.302)" fill="#141324"/>
      <path id="Path_27131" data-name="Path 27131" d="M-.242.331l3,.051.729,1.124L-.1,1.208Z" transform="translate(22.551 2.797)" fill="#141324"/>
      <path id="Path_27128" data-name="Path 27128" d="M137.226,121.944a20.905,20.905,0,0,1,3.01-.244l.577.936c1.48-1.035,4.038-1.5,5.21.147.437.568.093,4.257.181,6.381-1.06,0-2.121,0-3.176-.005.041-1.74,0-5.159,0-5.159s-1.818-.013-2.278.549c-.181,1.561-.081,3.133-.123,4.7-1.067-.047-2.127-.084-3.188-.095A41.448,41.448,0,0,0,137.226,121.944Z" transform="translate(-81.25 -118.284)" fill="#141324"/>
      <path id="Path_27129" data-name="Path 27129" d="M61.7,123.393c2.8-.268,5.629.011,8.444-.163a29.749,29.749,0,0,0-.076,6.639,6.181,6.181,0,0,1-3.526-.347c-1.074.357-2.273.862-3.4.352a3.89,3.89,0,0,1-1.44-6.481m2.745,1.451a1.458,1.458,0,0,0,.53,2.775,1.82,1.82,0,0,0,1.649-.687A1.442,1.442,0,0,0,66.7,125.3a2.061,2.061,0,0,0-2.255-.451Z" transform="translate(-49.24 -119.009)" fill="#141324"/>
      <path id="Path_27130" data-name="Path 27130" d="M128.71,122.3q1.766.016,3.531.005a58.431,58.431,0,0,0-.105,7.143c-1.06-.005-2.116.016-3.176.037a46.956,46.956,0,0,0-.25-7.185Z" transform="translate(-77.696 -118.568)" fill="#141324"/>
      <path id="Path_27127" data-name="Path 27127" d="M111.488,122.216a5.051,5.051,0,0,1,4.5-.105,8.337,8.337,0,0,1,3.345.032,26.543,26.543,0,0,0-.105,6.965c-1.107-.063-2.785.636-3.335-.626a3.836,3.836,0,1,1-4.405-6.265m2.016,1.908c-2.057,1.078.419,3.937,2.121,2.4,1.534-1.214-.383-3.364-2.119-2.4Z" transform="translate(-69.752 -118.253)" fill="#141324"/>
      <path id="Path_27132" data-name="Path 27132" d="M-.606,0H2.307L1.889,1.076-1.453.484Z" transform="translate(47.531 3.479)" fill="#141324"/>
    </g>
  </g>
</svg>
