<svg id="EG_-_Egypt" data-name="EG - Egypt" xmlns="http://www.w3.org/2000/svg" width="20" height="15" viewBox="0 0 20 15">
  <path id="Path_33501" data-name="Path 33501" d="M0,0V15H20V0Z" fill="#f7fcff" fill-rule="evenodd"/>
  <g id="Group_17660" data-name="Group 17660">
    <path id="Path_33502" data-name="Path 33502" d="M0,0V5H20V0Z" fill="#bf2714" fill-rule="evenodd"/>
    <path id="Path_33503" data-name="Path 33503" d="M0,10v5H20V10Z" fill="#272727" fill-rule="evenodd"/>
    <path id="Path_33504" data-name="Path 33504" d="M7.663,6.388l.624.029L8.13,9.835l-.624-.029Z" fill="#c09302"/>
    <path id="Path_33505" data-name="Path 33505" d="M8.315,6.6l.624.035L8.782,9.407l-.624-.035Z" fill="#c09302"/>
    <path id="Path_33506" data-name="Path 33506" d="M8.968,6.807l.623.051-.157,1.91-.623-.051Z" fill="#c09302"/>
    <path id="Path_33507" data-name="Path 33507" d="M12.337,6.388l-.624.029.157,3.419.624-.029Z" fill="#c09302"/>
    <path id="Path_33508" data-name="Path 33508" d="M11.685,6.6l-.624.035.157,2.772.624-.035Z" fill="#c09302"/>
    <path id="Path_33509" data-name="Path 33509" d="M11.032,6.807l-.623.051.157,1.91.623-.051Z" fill="#c09302"/>
    <path id="Path_33510" data-name="Path 33510" d="M9.983,9.579l-.609-.14.258-1.125.609.14Z" fill="#c09302"/>
    <path id="Path_33511" data-name="Path 33511" d="M10.45,9.579l.609-.14L10.8,8.314l-.609.14Z" fill="#c09302"/>
    <path id="Path_33512" data-name="Path 33512" d="M10.3,9.569H9.67v-1.1H10.3Z" fill="#c09302"/>
    <path id="Path_33513" data-name="Path 33513" d="M9.147,6.821l.625.015L9.735,8.324,9.11,8.309Z" fill="#c09302"/>
    <path id="Path_33514" data-name="Path 33514" d="M10.234,6.821l.625.015-.036,1.488L10.2,8.309Z" fill="#c09302"/>
    <path id="Path_33515" data-name="Path 33515" d="M8.336,9.952l.162-.6a6.4,6.4,0,0,0,1.52.267,6.4,6.4,0,0,0,1.52-.267l.162.6a6.909,6.909,0,0,1-1.682.288A6.908,6.908,0,0,1,8.336,9.952Z" fill="#c09302"/>
    <path id="Path_33516" data-name="Path 33516" d="M7.676,6.389a.54.54,0,0,1,.61-.657,2.129,2.129,0,0,1,.487.12l.116.04c.277.1.352.124.368.127-.061-.014.119-.341.161-.4,0,.035-.016.03-.066.02l-.564-.113.4-.412A.732.732,0,0,1,9.73,4.9c.022,0,.043,0,.11-.005l.106-.005c.39-.013.67.1.67.5a3.744,3.744,0,0,0,.048.549c.01.059.03.114-.028.138a1.521,1.521,0,0,1,.351-.164l.026-.011c.617-.258.689-.281.888-.161a1.394,1.394,0,0,1,.4.442l-.523.342a1.09,1.09,0,0,0-.2-.248c.079.055-.186.143-.326.2l-.025.01c-.481.2-.544.225-.681.225-.374,0-.508-.383-.545-.931-.115.38-.46.859-.743.859-.124,0-.064.02-.58-.164l-.107-.037a1.682,1.682,0,0,0-.34-.089.284.284,0,0,1,.025-.025Z" fill="#c09302"/>
  </g>
</svg>
