<svg xmlns="http://www.w3.org/2000/svg" width="48" height="48" viewBox="0 0 48 48">
  <g id="vuesax_linear_medal-star" data-name="vuesax/linear/medal-star" transform="translate(-684 -252)">
    <g id="medal-star" transform="translate(684 252)">
      <path id="Vector" d="M27.81,14.133a14.232,14.232,0,0,1-2.324,7.854,13.855,13.855,0,0,1-9.5,6.1,12.063,12.063,0,0,1-4.172,0,13.855,13.855,0,0,1-9.5-6.1A14.232,14.232,0,0,1,0,14.133,14.01,14.01,0,0,1,13.905,0,14.01,14.01,0,0,1,27.81,14.133Z" transform="translate(10.095 4.038)" fill="none" stroke="#292d32" stroke-linecap="round" stroke-linejoin="round" stroke-width="2"/>
      <path id="Vector-2" data-name="Vector" d="M38.469,11.246l-3.294.787A1.97,1.97,0,0,0,33.7,13.527L33,16.495a1.989,1.989,0,0,1-3.473.828L20,6.259,10.482,17.343a1.989,1.989,0,0,1-3.473-.828l-.7-2.968a2,2,0,0,0-1.477-1.494l-3.294-.787A2.033,2.033,0,0,1,.58,7.874L8.365,0a13.929,13.929,0,0,0,9.542,6.1,11.908,11.908,0,0,0,2.1.182A11.908,11.908,0,0,0,22.1,6.1,13.929,13.929,0,0,0,31.642,0l7.785,7.874A2.018,2.018,0,0,1,38.469,11.246Z" transform="translate(3.996 25.59)" fill="none" stroke="#292d32" stroke-linecap="round" stroke-linejoin="round" stroke-width="2"/>
      <path id="Vector-3" data-name="Vector" d="M7.863.969,9.054,3.351a1.462,1.462,0,0,0,.969.707l2.16.363c1.373.222,1.7,1.232.707,2.221L11.214,8.318a1.431,1.431,0,0,0-.343,1.232l.485,2.08c.384,1.635-.485,2.281-1.938,1.413L7.4,11.851a1.416,1.416,0,0,0-1.333,0L4.047,13.042c-1.454.848-2.322.222-1.938-1.413l.485-2.08A1.515,1.515,0,0,0,2.25,8.318L.574,6.642c-.989-.989-.666-1.979.707-2.221l2.16-.363a1.471,1.471,0,0,0,.949-.707L5.581.969C6.167-.323,7.217-.323,7.863.969Z" transform="translate(17.308 10.96)" fill="none" stroke="#292d32" stroke-linecap="round" stroke-linejoin="round" stroke-width="2"/>
      <path id="Vector-4" data-name="Vector" d="M0,0H48V48H0Z" fill="none" opacity="0"/>
    </g>
  </g>
</svg>
