<svg xmlns="http://www.w3.org/2000/svg" xmlns:xlink="http://www.w3.org/1999/xlink" width="114" height="32" viewBox="0 0 114 32">
  <defs>
    <clipPath id="clip-path">
      <rect id="Rectangle_172" data-name="Rectangle 172" width="39.464" height="31.405" fill="#141324"/>
    </clipPath>
  </defs>
  <g id="logo" transform="translate(0 -7)">
    <path id="Path_85" data-name="Path 85" d="M71.325,35.371a11.178,11.178,0,0,1-4.1-.695A5.449,5.449,0,0,1,64.476,32.5a7.361,7.361,0,0,1-.984-4.041,15.114,15.114,0,0,1,.821-4.925,18.065,18.065,0,0,1,5.811-8.178,16.572,16.572,0,0,1,4.358-2.463,13.625,13.625,0,0,1,4.862-.884,9.666,9.666,0,0,1,4.578.947,5.915,5.915,0,0,1,2.589,2.589,7.64,7.64,0,0,1,.852,3.631,13.924,13.924,0,0,1-1.295,5.62,20.428,20.428,0,0,1-3.476,5.4,16.054,16.054,0,0,1-5.02,3.788A14.039,14.039,0,0,1,71.325,35.371ZM74.2,33.7a10.788,10.788,0,0,0,3.661-1.863,16.991,16.991,0,0,0,3.252-3.252,17.284,17.284,0,0,0,2.3-3.978,15.665,15.665,0,0,0,1.326-6,5.6,5.6,0,0,0-.063-.852q-.032-.411-.095-.789a3.793,3.793,0,0,0-1.61-2.715,5.25,5.25,0,0,0-2.841-.789,9.193,9.193,0,0,0-3.347.663A11.106,11.106,0,0,0,73.848,15.7a19.212,19.212,0,0,0-2.81,2.744,17.432,17.432,0,0,0-2.179,3.282,17.154,17.154,0,0,0-1.231,3.315,14.164,14.164,0,0,0-.442,3.443,8.361,8.361,0,0,0,.442,2.778,3.977,3.977,0,0,0,4.136,2.81A9.154,9.154,0,0,0,74.2,33.7Zm14.34.852a1.609,1.609,0,0,1-1.357-.758,4.015,4.015,0,0,1-.377-2.431,13.3,13.3,0,0,1,.316-1.768q.252-1.076.663-2.3.442-1.263.979-2.431a13.259,13.259,0,0,1,1.168-2.115,1.387,1.387,0,0,1,.695-.568,4.915,4.915,0,0,1,1.357-.126H93.5a17.235,17.235,0,0,0-1.136,1.894q-.6,1.136-1.105,2.273-.505,1.105-.789,1.863-.063.221-.252.789a11.9,11.9,0,0,0-.347,1.2,5.338,5.338,0,0,0-.158,1.231,1.76,1.76,0,0,0,.189.852.72.72,0,0,0,.695.347,2.069,2.069,0,0,0,1.295-.758,10.976,10.976,0,0,0,1.389-1.863q.695-1.136,1.357-2.367.695-1.263,1.231-2.336.568-1.105.947-1.705a7.812,7.812,0,0,1,1.01-1.263,1.651,1.651,0,0,1,1.231-.568q.252,0,.663.032h.847a3.675,3.675,0,0,0,.6-.032,1.855,1.855,0,0,0-.442.505q-.252.377-.505.789-.221.377-.347.632-.821,1.642-1.61,3.315A18.313,18.313,0,0,0,97.123,30a3.745,3.745,0,0,0-.158.979q0,.947.632.947A2.454,2.454,0,0,0,98.86,31.3,7.3,7.3,0,0,0,100.091,30a15.5,15.5,0,0,0,1.231-1.768q.568-.947.979-1.736.126-.221.221-.221.189,0,.189.505a2.331,2.331,0,0,1-.095.6,1.985,1.985,0,0,1-.252.632q-.442.758-1.042,1.673-.6.884-1.231,1.768a14.35,14.35,0,0,1-1.168,1.295,9.675,9.675,0,0,1-1.547,1.263,2.751,2.751,0,0,1-1.547.538,1.81,1.81,0,0,1-.821-.189,1.3,1.3,0,0,1-.632-.663,4.246,4.246,0,0,1-.316-1.8q0-.347.032-.726.032-.411.095-.821a11.663,11.663,0,0,1-1.01,1.231q-.505.568-1.042,1.136a6.352,6.352,0,0,1-2.052,1.516,4.318,4.318,0,0,1-1.546.314Zm15.192,0a1.554,1.554,0,0,1-1.389-.726,2.385,2.385,0,0,1-.316-.821,4.98,4.98,0,0,1-.095-.979,8.137,8.137,0,0,1,.063-1.011q.063-.538.158-1.041.158-.821.347-1.484.221-.695.442-1.326V27.13q-.252.473-.632,1.042-.377.538-.538.789-.221.347-.347.347t-.126-.284a3.143,3.143,0,0,1,.377-1.389q.252-.505.695-1.295.442-.821.915-1.768t.821-1.829h-2.115q-.158,0-.063-.252a1.576,1.576,0,0,1,.284-.473q.189-.252.284-.252h2.4q.347-.821.789-1.768a14.467,14.467,0,0,1,1.042-1.768,6.359,6.359,0,0,1,1.295-1.389A2.384,2.384,0,0,1,109.5,16.3h.852a3.913,3.913,0,0,0,.663-.032,6.494,6.494,0,0,0-1.547,1.768,22.705,22.705,0,0,0-1.926,3.725h3.188q.095,0-.063.252a3.845,3.845,0,0,1-.411.473.61.61,0,0,1-.442.252H107.1q-.411,1.042-.915,2.273-.473,1.231-.884,2.431a18.28,18.28,0,0,0-.568,2.147,5.394,5.394,0,0,0-.126,1.105q0,1.2.758,1.2a2.168,2.168,0,0,0,1.2-.505A7.2,7.2,0,0,0,107.957,30a18.542,18.542,0,0,0,1.2-1.768q.6-.947,1.01-1.736.126-.221.221-.221.189,0,.189.505a2.332,2.332,0,0,1-.095.6,1.984,1.984,0,0,1-.252.632q-.442.758-1.042,1.673-.6.884-1.231,1.768a14.353,14.353,0,0,1-1.168,1.295,8.622,8.622,0,0,1-1.516,1.263A2.751,2.751,0,0,1,103.73,34.55Z" transform="translate(-22.405 -1.709)" fill="#141324"/>
    <path id="Path_86" data-name="Path 86" d="M125.833,40.151A3.068,3.068,0,0,1,123.5,39.4a2.356,2.356,0,0,1-.7-1.624,2.169,2.169,0,0,1,.252-1.023,1.4,1.4,0,0,1,.632-.693,1.344,1.344,0,0,1,.568-.15,1.036,1.036,0,0,1,.632.211.674.674,0,0,1,.284.571v.15l-.063.181a1.392,1.392,0,0,0-.347.451,1.84,1.84,0,0,0-.252.6.321.321,0,0,0-.032.15v.15a.934.934,0,0,0,.252.661.762.762,0,0,0,.568.271,2.588,2.588,0,0,0,1.579-.571,6.73,6.73,0,0,0,1.389-1.444,14.612,14.612,0,0,0,1.168-1.714q.505-.872.821-1.5,1.453-2.8,2.747-5.835,1.326-3.038,2.494-5.925h-.884a4.369,4.369,0,0,0-1.2.181,1.611,1.611,0,0,0-.947.782q-.505.932-1.105,1.985a22.718,22.718,0,0,1-1.295,2.105q-.126.211-.221.211-.158,0-.158-.451a1.928,1.928,0,0,1,.189-.9,17.791,17.791,0,0,0,.915-1.652q.473-.932.852-1.774t.568-1.386a1.591,1.591,0,0,1,.316-.571,1.122,1.122,0,0,1,.758-.09l2.778.211q.377-.963.726-1.865.377-.932.726-1.774a26.344,26.344,0,0,1,1.673-3.338,8.4,8.4,0,0,1,2.338-2.587,5.734,5.734,0,0,1,3.443-1.023,4.626,4.626,0,0,1,1.991.331,2.27,2.27,0,0,1,1.2,1.353,1.911,1.911,0,0,1,.095.632,2.748,2.748,0,0,1-.316,1.233,1.773,1.773,0,0,1-.852.872,1.014,1.014,0,0,1-.347.12,2.226,2.226,0,0,1-.347.03,1.278,1.278,0,0,1-.726-.211.68.68,0,0,1-.316-.6.959.959,0,0,1,.095-.391,2.019,2.019,0,0,0,.789-1.113.845.845,0,0,0,.032-.211.543.543,0,0,0,.032-.181.929.929,0,0,0-.473-.872.834.834,0,0,0-.411-.181,1.677,1.677,0,0,0-.444-.055,2.436,2.436,0,0,0-1.863.932,11.628,11.628,0,0,0-1.829,2.707,35.747,35.747,0,0,0-1.484,3.278Q139.16,19.7,138.655,21q.726.03,1.8-.03,1.105-.06,2.3-.15t2.208-.153q1.042-.06,1.61-.06.6,0,.538.09a1.8,1.8,0,0,0-.442.48q-.252.361-.473.752-.221.361-.347.571-.821,1.564-1.547,3.1a17.52,17.52,0,0,0-1.105,2.947,3.891,3.891,0,0,0-.095.48,3.477,3.477,0,0,0-.032.451q0,.872.6.872a1.379,1.379,0,0,0,.538-.12,4.667,4.667,0,0,0,.726-.451,6.521,6.521,0,0,0,1.263-1.233,20.068,20.068,0,0,0,1.2-1.652q.568-.9.979-1.652.158-.24.221-.24.189,0,.189.511a2.124,2.124,0,0,1-.095.571,1.9,1.9,0,0,1-.221.571q-.442.722-1.042,1.594T146.2,29.926a11.6,11.6,0,0,1-1.168,1.263,9.6,9.6,0,0,1-1.547,1.2,3.125,3.125,0,0,1-1.579.48,1.814,1.814,0,0,1-.789-.181,1.266,1.266,0,0,1-.632-.632,3.436,3.436,0,0,1-.316-1.594,9.257,9.257,0,0,1,.316-2.285,18.815,18.815,0,0,1,.821-2.466,21.151,21.151,0,0,1,1.076-2.256,11.435,11.435,0,0,1,1.076-1.684,13.281,13.281,0,0,1-1.926.391q-1.105.12-2.052.15-.915.03-1.295,0l-.915,2.5q-.442,1.2-1.076,2.8-.6,1.594-1.389,3.338a34.06,34.06,0,0,1-1.768,3.338,19.879,19.879,0,0,1-2.084,2.947,9.385,9.385,0,0,1-2.4,2.135,5.066,5.066,0,0,1-2.724.783Zm20.679-20.992a.885.885,0,0,1-.568.3q-.377,0-.377-.542a2.551,2.551,0,0,1,.411-1.143,6.58,6.58,0,0,1,1.01-1.386,2.716,2.716,0,0,1,1.2-.812.639.639,0,0,1,.632.211,1.946,1.946,0,0,1,.505.693,1.486,1.486,0,0,1,.221.722q0,.391-.252.421a4.784,4.784,0,0,0-1.042.421,7.288,7.288,0,0,0-1.042.6A4.732,4.732,0,0,0,146.512,19.159Zm3.327,13.714a1.576,1.576,0,0,1-1.389-.693,2.209,2.209,0,0,1-.316-.782,4.526,4.526,0,0,1-.095-.932,7.391,7.391,0,0,1,.063-.963q.063-.511.158-.992.158-.782.347-1.413.221-.661.442-1.263V25.8q-.252.451-.632.992-.377.511-.538.752-.221.331-.347.331t-.126-.271a2.885,2.885,0,0,1,.377-1.323q.252-.48.695-1.233.442-.782.915-1.684t.821-1.744H148.1q-.158,0-.063-.24a1.49,1.49,0,0,1,.284-.451q.189-.24.284-.24H151q.347-.782.789-1.684a13.649,13.649,0,0,1,1.042-1.684A6.187,6.187,0,0,1,154.128,16a2.458,2.458,0,0,1,1.484-.511h.852a4.106,4.106,0,0,0,.663-.03,6.3,6.3,0,0,0-1.547,1.684,21.283,21.283,0,0,0-1.926,3.549h3.189q.095,0-.063.24a3.72,3.72,0,0,1-.411.451.618.618,0,0,1-.442.24h-2.715q-.411.992-.915,2.166-.473,1.173-.884,2.316a16.754,16.754,0,0,0-.568,2.045,4.906,4.906,0,0,0-.126,1.053q0,1.143.758,1.143a2.228,2.228,0,0,0,1.2-.48,7.045,7.045,0,0,0,1.389-1.323,17.646,17.646,0,0,0,1.2-1.684q.6-.9,1.01-1.652Q156.4,25,156.5,25q.189,0,.189.48a2.125,2.125,0,0,1-.095.571,1.84,1.84,0,0,1-.252.6q-.442.722-1.042,1.594-.6.842-1.231,1.684A13.922,13.922,0,0,1,152.9,31.16a8.541,8.541,0,0,1-1.516,1.2,2.841,2.841,0,0,1-1.545.51Z" transform="translate(-43.127 -1.151)" fill="#141324"/>
    <g id="Group_956" data-name="Group 956" transform="translate(0 7)" clip-path="url(#clip-path)">
      <path id="Path_87" data-name="Path 87" d="M33.625,9.014A1.851,1.851,0,0,0,32.992,7.8a2.022,2.022,0,0,0-1.324-.492H5.914a1.875,1.875,0,0,0-.761.142,1.8,1.8,0,0,0-.628.435,1.7,1.7,0,0,0-.377.647,1.645,1.645,0,0,0-.058.739c.993,8.412,7.365,26.8-3.6,29.058H5.593a29.283,29.283,0,0,0,11.358-2.285,28.146,28.146,0,0,0,9.426-6.468,26.644,26.644,0,0,0,5.892-9.55A25.746,25.746,0,0,0,33.625,9.014Z" transform="translate(-0.167 -7.114)" fill="#141324"/>
      <path id="Path_88" data-name="Path 88" d="M46.519,10.075c.937,8.244-3.038,16.1-8.037,21.34A29.512,29.512,0,0,1,33.138,35.8c8.723-4.4,16.551-12.857,17.343-23.052Z" transform="translate(-11.342 -8.144)" fill="#141324"/>
      <path id="Path_89" data-name="Path 89" d="M20.162,12.437a1.577,1.577,0,0,1-.287.907,1.691,1.691,0,0,1-.766.6,1.781,1.781,0,0,1-.986.093,1.733,1.733,0,0,1-.873-.446,1.608,1.608,0,0,1-.467-.834,1.561,1.561,0,0,1,.1-.941,1.648,1.648,0,0,1,.628-.731,1.767,1.767,0,0,1,2.152.2,1.593,1.593,0,0,1,.5,1.15Z" transform="translate(-5.733 -8.418)" fill="#fff"/>
      <path id="Path_90" data-name="Path 90" d="M37.887,12.437a1.577,1.577,0,0,1-.287.907,1.691,1.691,0,0,1-.766.6,1.781,1.781,0,0,1-.986.093,1.733,1.733,0,0,1-.873-.446,1.608,1.608,0,0,1-.467-.834,1.561,1.561,0,0,1,.1-.941,1.648,1.648,0,0,1,.628-.731,1.767,1.767,0,0,1,2.152.2A1.593,1.593,0,0,1,37.887,12.437Z" transform="translate(-11.8 -8.418)" fill="#fff"/>
      <path id="Path_91" data-name="Path 91" d="M18.469,13.669H19.62v8.4a4.9,4.9,0,0,0,1.538,3.545,5.426,5.426,0,0,0,7.425,0,4.9,4.9,0,0,0,1.538-3.545v-8.4h1.151v8.4A5.976,5.976,0,0,1,29.4,26.388a6.616,6.616,0,0,1-9.052,0,5.976,5.976,0,0,1-1.875-4.322Z" transform="translate(-6.322 -9.48)" fill="#fff"/>
    </g>
  </g>
</svg>
