<svg xmlns="http://www.w3.org/2000/svg" width="153.647" height="145.851" viewBox="0 0 153.647 145.851">
  <g id="Group_17774" data-name="Group 17774" transform="translate(-901.543 -6790.528)">
    <path id="Path_33556" data-name="Path 33556" d="M4.47,0A4.313,4.313,0,0,0,0,4.447a4.313,4.313,0,0,0,4.447,4.47A4.327,4.327,0,0,0,8.917,4.47,4.3,4.3,0,0,0,4.47,0Z" transform="translate(986.16 6850.115) rotate(-45)" fill="rgba(143,152,197,0.3)"/>
    <path id="Path_33557" data-name="Path 33557" d="M4.587,0A4.335,4.335,0,0,0,0,4.355,4.348,4.348,0,0,0,4.355,8.941,4.315,4.315,0,0,0,8.918,4.587,4.29,4.29,0,0,0,4.587,0Z" transform="translate(1014.352 6823.481) rotate(-45)" fill="rgba(143,152,197,0.3)"/>
    <path id="Path_33558" data-name="Path 33558" d="M4.517,0A4.333,4.333,0,0,0,0,4.424,4.333,4.333,0,0,0,4.424,8.94,4.3,4.3,0,0,0,8.917,4.517,4.288,4.288,0,0,0,4.517,0Z" transform="translate(1042.563 6796.833) rotate(-45)" fill="rgba(143,152,197,0.3)"/>
    <path id="Path_33559" data-name="Path 33559" d="M4.447,8.917A4.3,4.3,0,0,0,8.917,4.47,4.3,4.3,0,0,0,4.47,0,4.313,4.313,0,0,0,0,4.447,4.327,4.327,0,0,0,4.447,8.917Z" transform="translate(929.736 6929.986) rotate(-45)" fill="rgba(143,152,197,0.3)"/>
    <path id="Path_33560" data-name="Path 33560" d="M4.378,8.94a4.333,4.333,0,0,0,4.539-4.4A4.3,4.3,0,0,0,4.54,0,4.315,4.315,0,0,0,0,4.378,4.347,4.347,0,0,0,4.378,8.94Z" transform="translate(957.9 6903.364) rotate(-45)" fill="rgba(143,152,197,0.3)"/>
    <path id="Path_33561" data-name="Path 33561" d="M4.424,0A4.333,4.333,0,0,0,0,4.517,4.346,4.346,0,0,0,4.517,8.94a4.3,4.3,0,0,0,4.4-4.516A4.287,4.287,0,0,0,4.424,0Z" transform="translate(986.095 6876.73) rotate(-45)" fill="rgba(143,152,197,0.3)"/>
    <path id="Path_33562" data-name="Path 33562" d="M4.657,0A4.365,4.365,0,0,0,0,4.287,4.365,4.365,0,0,0,4.287,8.942,4.332,4.332,0,0,0,8.919,4.657,4.282,4.282,0,0,0,4.657,0Z" transform="translate(1014.302 6850.083) rotate(-45)" fill="rgba(143,152,197,0.3)"/>
    <path id="Path_33563" data-name="Path 33563" d="M4.54,0A4.328,4.328,0,0,0,0,4.378,4.333,4.333,0,0,0,4.4,8.917a4.314,4.314,0,0,0,4.516-4.4A4.3,4.3,0,0,0,4.54,0Z" transform="translate(1042.493 6823.449) rotate(-45)" fill="rgba(143,152,197,0.3)"/>
    <path id="Path_33564" data-name="Path 33564" d="M4.493,8.94A4.3,4.3,0,0,0,8.917,4.447,4.3,4.3,0,0,0,4.447,0,4.319,4.319,0,0,0,0,4.493,4.359,4.359,0,0,0,4.493,8.94Z" transform="translate(957.837 6929.966) rotate(-45)" fill="rgba(143,152,197,0.3)"/>
    <path id="Path_33565" data-name="Path 33565" d="M.008,4.133A4.377,4.377,0,0,0,4.153,8.927,4.356,4.356,0,0,0,8.924,4.781,4.326,4.326,0,0,0,4.8.01,4.32,4.32,0,0,0,.008,4.133Z" transform="translate(986.064 6903.331) rotate(-45)" fill="rgba(143,152,197,0.3)"/>
    <path id="Path_33566" data-name="Path 33566" d="M4.634,0A4.318,4.318,0,0,0,0,4.287,4.365,4.365,0,0,0,4.287,8.942,4.332,4.332,0,0,0,8.919,4.657,4.313,4.313,0,0,0,4.634,0Z" transform="translate(1014.268 6876.67) rotate(-45)" fill="rgba(143,152,197,0.3)"/>
    <path id="Path_33567" data-name="Path 33567" d="M4.378,0A4.3,4.3,0,0,0,0,4.54,4.333,4.333,0,0,0,4.54,8.94,4.328,4.328,0,0,0,8.918,4.4,4.333,4.333,0,0,0,4.378,0Z" transform="translate(1042.471 6850.023) rotate(-45)" fill="rgba(143,152,197,0.3)"/>
    <path id="Path_33568" data-name="Path 33568" d="M4.447,8.917A4.313,4.313,0,0,0,8.917,4.47,4.3,4.3,0,0,0,4.47,0,4.313,4.313,0,0,0,0,4.447,4.327,4.327,0,0,0,4.447,8.917Z" transform="translate(986.029 6929.912) rotate(-45)" fill="rgba(143,152,197,0.3)"/>
    <path id="Path_33569" data-name="Path 33569" d="M4.378,0A4.333,4.333,0,0,0,0,4.563,4.334,4.334,0,0,0,4.563,8.941,4.3,4.3,0,0,0,8.918,4.378,4.275,4.275,0,0,0,4.378,0Z" transform="translate(1014.207 6903.286) rotate(-45)" fill="rgba(143,152,197,0.3)"/>
    <path id="Path_33570" data-name="Path 33570" d="M4.54,0A4.328,4.328,0,0,0,0,4.378,4.333,4.333,0,0,0,4.4,8.917a4.3,4.3,0,0,0,4.516-4.4A4.3,4.3,0,0,0,4.54,0Z" transform="translate(1042.418 6876.626) rotate(-45)" fill="rgba(143,152,197,0.3)"/>
    <path id="Path_33571" data-name="Path 33571" d="M4.288,8.919A4.332,4.332,0,0,0,8.92,4.634,4.3,4.3,0,0,0,4.659,0,4.365,4.365,0,0,0,0,4.287,4.344,4.344,0,0,0,4.288,8.919Z" transform="translate(1014.109 6929.772) rotate(-45)" fill="rgba(143,152,197,0.3)"/>
    <path id="Path_33572" data-name="Path 33572" d="M4.587,0A4.335,4.335,0,0,0,0,4.355,4.348,4.348,0,0,0,4.355,8.941,4.315,4.315,0,0,0,8.918,4.587,4.29,4.29,0,0,0,4.587,0Z" transform="translate(1042.26 6903.167) rotate(-45)" fill="rgba(143,152,197,0.3)"/>
    <path id="Path_33573" data-name="Path 33573" d="M4.378,0A4.314,4.314,0,0,0,0,4.54,4.327,4.327,0,0,0,4.54,8.918,4.328,4.328,0,0,0,8.918,4.378,4.314,4.314,0,0,0,4.378,0Z" transform="translate(1042.309 6929.788) rotate(-45)" fill="rgba(143,152,197,0.3)"/>
    <path id="Path_33574" data-name="Path 33574" d="M4.47,8.94A4.306,4.306,0,0,0,8.917,4.447,4.3,4.3,0,0,0,4.447,0,4.3,4.3,0,0,0,0,4.47,4.332,4.332,0,0,0,4.47,8.94Z" transform="translate(901.69 6850.252) rotate(-45)" fill="rgba(143,152,197,0.3)"/>
    <path id="Path_33575" data-name="Path 33575" d="M8.9,4.779A4.326,4.326,0,0,0,4.779.008,4.344,4.344,0,0,0,.008,4.153,4.356,4.356,0,0,0,4.153,8.924,4.309,4.309,0,0,0,8.9,4.779Z" transform="translate(929.875 6823.603) rotate(-45)" fill="rgba(143,152,197,0.3)"/>
    <path id="Path_33576" data-name="Path 33576" d="M4.54,0A4.328,4.328,0,0,0,0,4.378,4.333,4.333,0,0,0,4.4,8.917a4.3,4.3,0,0,0,4.516-4.4A4.308,4.308,0,0,0,4.54,0Z" transform="translate(958.095 6796.979) rotate(-45)" fill="rgba(143,152,197,0.3)"/>
    <path id="Path_33577" data-name="Path 33577" d="M4.54,8.918A4.328,4.328,0,0,0,8.918,4.378,4.289,4.289,0,0,0,4.378,0,4.314,4.314,0,0,0,0,4.54,4.328,4.328,0,0,0,4.54,8.918Z" transform="translate(901.737 6876.943) rotate(-45)" fill="rgba(143,152,197,0.3)"/>
    <path id="Path_33578" data-name="Path 33578" d="M4.54,0A4.328,4.328,0,0,0,0,4.378,4.315,4.315,0,0,0,4.378,8.917a4.333,4.333,0,0,0,4.539-4.4A4.322,4.322,0,0,0,4.54,0Z" transform="translate(929.914 6850.28) rotate(-45)" fill="rgba(143,152,197,0.3)"/>
    <path id="Path_33579" data-name="Path 33579" d="M4.493,0A4.287,4.287,0,0,0,0,4.424,4.333,4.333,0,0,0,4.424,8.94,4.313,4.313,0,0,0,8.917,4.517,4.319,4.319,0,0,0,4.493,0Z" transform="translate(958.124 6823.632) rotate(-45)" fill="rgba(143,152,197,0.3)"/>
    <path id="Path_33580" data-name="Path 33580" d="M4.447,0A4.3,4.3,0,0,0,0,4.47,4.3,4.3,0,0,0,4.47,8.917,4.306,4.306,0,0,0,8.917,4.424,4.308,4.308,0,0,0,4.447,0Z" transform="translate(986.334 6797.012) rotate(-45)" fill="rgba(143,152,197,0.3)"/>
    <path id="Path_33581" data-name="Path 33581" d="M4.424,8.94A4.3,4.3,0,0,0,8.917,4.517,4.314,4.314,0,0,0,4.516,0,4.333,4.333,0,0,0,0,4.424,4.373,4.373,0,0,0,4.424,8.94Z" transform="translate(901.598 6903.44) rotate(-45)" fill="rgba(143,152,197,0.3)"/>
    <path id="Path_33582" data-name="Path 33582" d="M4.424,8.94A4.3,4.3,0,0,0,8.917,4.517,4.314,4.314,0,0,0,4.516,0,4.333,4.333,0,0,0,0,4.424,4.373,4.373,0,0,0,4.424,8.94Z" transform="translate(929.773 6876.821) rotate(-45)" fill="rgba(143,152,197,0.3)"/>
    <path id="Path_33583" data-name="Path 33583" d="M4.657,0A4.365,4.365,0,0,0,0,4.287,4.365,4.365,0,0,0,4.286,8.942,4.318,4.318,0,0,0,8.919,4.657,4.294,4.294,0,0,0,4.657,0Z" transform="translate(957.98 6850.174) rotate(-45)" fill="rgba(143,152,197,0.3)"/>
    <path id="Path_33584" data-name="Path 33584" d="M4.47,0A4.313,4.313,0,0,0,0,4.447,4.346,4.346,0,0,0,4.447,8.94a4.3,4.3,0,0,0,4.47-4.447A4.306,4.306,0,0,0,4.47,0Z" transform="translate(986.207 6823.512) rotate(-45)" fill="rgba(143,152,197,0.3)"/>
    <path id="Path_33585" data-name="Path 33585" d="M4.517,0A4.333,4.333,0,0,0,0,4.424,4.333,4.333,0,0,0,4.424,8.94,4.313,4.313,0,0,0,8.917,4.517,4.288,4.288,0,0,0,4.517,0Z" transform="translate(1014.372 6796.919) rotate(-45)" fill="rgba(143,152,197,0.3)"/>
    <path id="Path_33586" data-name="Path 33586" d="M4.424,8.917A4.313,4.313,0,0,0,8.917,4.493,4.282,4.282,0,0,0,4.517,0,4.333,4.333,0,0,0,0,4.424,4.34,4.34,0,0,0,4.424,8.917Z" transform="translate(901.543 6930.073) rotate(-45)" fill="rgba(143,152,197,0.3)"/>
    <path id="Path_33587" data-name="Path 33587" d="M4.288,8.942A4.318,4.318,0,0,0,8.92,4.657,4.334,4.334,0,0,0,4.659,0,4.365,4.365,0,0,0,0,4.287,4.351,4.351,0,0,0,4.288,8.942Z" transform="translate(929.735 6903.41) rotate(-45)" fill="rgba(143,152,197,0.3)"/>
    <path id="Path_33588" data-name="Path 33588" d="M4.54,0A4.333,4.333,0,0,0,0,4.4,4.333,4.333,0,0,0,4.4,8.94a4.314,4.314,0,0,0,4.516-4.4A4.275,4.275,0,0,0,4.54,0Z" transform="translate(957.934 6876.775) rotate(-45)" fill="rgba(143,152,197,0.3)"/>
  </g>
</svg>
