<svg xmlns="http://www.w3.org/2000/svg" width="481.3" height="481.281" viewBox="0 0 481.3 481.281">
  <g id="Group_24092" data-name="Group 24092" transform="translate(-0.09 -7.72)">
    <path id="Path_33589" data-name="Path 33589" d="M199.46,489A280.17,280.17,0,0,1,.09,406.425l2.55-2.55c108.529,108.529,285.094,108.529,393.623,0a278.3,278.3,0,0,0,0-393.6l2.55-2.55a281.965,281.965,0,0,1,0,398.741A280.137,280.137,0,0,1,199.46,489Z" fill="#8f98c5"/>
    <path id="Path_33590" data-name="Path 33590" d="M193.324,463.359A261.708,261.708,0,0,1,7.68,386.588l2.55-2.55c100.951,100.951,265.218,100.951,366.188,0,100.951-100.951,100.951-265.236,0-366.188l2.55-2.55c102.362,102.362,102.362,268.926,0,371.306A261.8,261.8,0,0,1,193.324,463.359Z" transform="translate(6.137 6.129)" fill="#8f98c5"/>
    <path id="Path_33591" data-name="Path 33591" d="M187.2,437.944A241.621,241.621,0,0,1,15.26,366.724l2.55-2.55a239.527,239.527,0,0,0,338.735,0,239.526,239.526,0,0,0,0-338.734l2.55-2.55a243.15,243.15,0,0,1,0,343.87A241.59,241.59,0,0,1,187.2,437.944Z" transform="translate(12.265 12.266)" fill="#8f98c5"/>
    <path id="Path_33592" data-name="Path 33592" d="M181.059,412.309A223.045,223.045,0,0,1,22.85,346.877l2.55-2.55c85.832,85.832,225.485,85.832,311.317,0s85.832-225.485,0-311.317l2.55-2.55c87.243,87.243,87.243,229.193,0,316.417A223.045,223.045,0,0,1,181.059,412.309Z" transform="translate(18.402 18.386)" fill="#8f98c5"/>
    <path id="Path_33593" data-name="Path 33593" d="M174.93,386.777a203.725,203.725,0,0,1-144.5-59.753l2.55-2.55c78.272,78.272,205.61,78.272,283.864,0,78.272-78.272,78.272-205.61,0-283.864l2.55-2.55c79.665,79.665,79.665,209.317,0,288.982A203.637,203.637,0,0,1,174.93,386.777Z" transform="translate(24.53 24.53)" fill="#8f98c5"/>
    <path id="Path_33594" data-name="Path 33594" d="M168.794,361.262A184.377,184.377,0,0,1,38.02,307.187l2.55-2.55c70.695,70.695,185.735,70.695,256.429,0A181.326,181.326,0,0,0,297,48.19l2.55-2.55A184.848,184.848,0,0,1,168.794,361.262Z" transform="translate(30.667 30.659)" fill="#8f98c5"/>
    <path id="Path_33595" data-name="Path 33595" d="M162.665,335.738A165.03,165.03,0,0,1,45.6,287.324l2.55-2.55c63.135,63.135,165.859,63.135,228.994,0s63.135-165.859,0-228.994l2.55-2.55c64.546,64.546,64.546,169.566,0,234.112A165.019,165.019,0,0,1,162.665,335.738Z" transform="translate(36.795 36.795)" fill="#8f98c5"/>
  </g>
</svg>
